SplineFontDB: 3.0
FontName: Bahiana-Regular
FullName: Bahiana-Regular
FamilyName: Bahiana
Weight: Regular
Copyright: Copyright (c) 2013 by Pablo Cosgaya & Dani Raskovsky. All rights reserved.
Version: 001.002
ItalicAngle: 0
UnderlinePosition: -102.4
UnderlineWidth: 102.4
Ascent: 1561
Descent: 487
sfntRevision: 0x00010083
LayerCount: 2
Layer: 0 1 "Back"  1
Layer: 1 1 "Fore"  0
XUID: [1021 809 -2065993493 4996744]
FSType: 8
OS2Version: 3
OS2_WeightWidthSlopeOnly: 0
OS2_UseTypoMetrics: 1
CreationTime: 1387479871
ModificationTime: 1388102301
PfmFamily: 81
TTFWeight: 400
TTFWidth: 5
LineGap: 0
VLineGap: 0
Panose: 0 0 5 0 0 0 0 0 0 0
OS2TypoAscent: 1561
OS2TypoAOffset: 0
OS2TypoDescent: -487
OS2TypoDOffset: 0
OS2TypoLinegap: 410
OS2WinAscent: 1970
OS2WinAOffset: 0
OS2WinDescent: 487
OS2WinDOffset: 0
HheadAscent: 1970
HheadAOffset: 0
HheadDescent: -487
HheadDOffset: 0
OS2SubXSize: 1331
OS2SubYSize: 1229
OS2SubXOff: 0
OS2SubYOff: 154
OS2SupXSize: 1331
OS2SupYSize: 1229
OS2SupXOff: 0
OS2SupYOff: 717
OS2StrikeYSize: 102
OS2StrikeYPos: 604
OS2Vendor: 'UKWN'
OS2CodePages: 20000093.00000000
OS2UnicodeRanges: 00000007.00000000.00000000.00000000
Lookup: 1 0 0 "'aalt' Access All Alternates lookup 0"  {"'aalt' Access All Alternates lookup 0 subtable"  } ['aalt' ('DFLT' <'dflt' > 'grek' <'dflt' > 'latn' <'CAT ' 'ESP ' 'MOL ' 'PLK ' 'ROM ' 'TRK ' 'dflt' > ) ]
Lookup: 3 0 0 "'aalt' Access All Alternates lookup 1"  {"'aalt' Access All Alternates lookup 1 subtable"  } ['aalt' ('DFLT' <'dflt' > 'grek' <'dflt' > 'latn' <'CAT ' 'ESP ' 'MOL ' 'PLK ' 'ROM ' 'TRK ' 'dflt' > ) ]
Lookup: 1 0 0 "'locl' Localized Forms in Latin lookup 2"  {"'locl' Localized Forms in Latin lookup 2 subtable"  } ['locl' ('latn' <'TRK ' > ) ]
Lookup: 1 0 0 "'locl' Localized Forms in Latin lookup 3"  {"'locl' Localized Forms in Latin lookup 3 subtable"  } ['locl' ('latn' <'AZE ' > ) ]

StartChar: .notdef
Encoding: 65536 -1 0
Width: 694
Flags: MW
HStem: 0 80<207 463 207 489> 1384 70
VStem: 102 78<254 254 254 1346> 485 85
LayerCount: 2
UndoRedoHistory
Layer: 1
Undoes
EndUndoes
Redoes
EndRedoes
EndUndoRedoHistory
Fore
SplineSet
594 23 m 1,0,-1
 489 0 l 1,1,-1
 102 0 l 1,2,-1
 102 1436 l 1,3,-1
 547 1454 l 1,4,-1
 594 23 l 1,0,-1
336 842 m 1,5,-1
 477 1376 l 1,6,-1
 461 1384 l 1,7,-1
 207 1384 l 1,8,-1
 336 842 l 1,5,-1
180 254 m 1,9,-1
 311 754 l 1,10,-1
 180 1346 l 1,11,-1
 180 254 l 1,9,-1
485 1266 m 1,12,-1
 356 752 l 1,13,-1
 485 217 l 1,14,-1
 485 1266 l 1,12,-1
463 80 m 1,15,-1
 334 657 l 1,16,-1
 190 84 l 1,17,18
 198 80 198 80 207 80 c 2,19,-1
 463 80 l 1,15,-1
EndSplineSet
Validated: 1
EndChar

StartChar: A
Encoding: 65 65 1
Width: 622
Flags: MW
HStem: 0 43G<53 150 53 53 401 520 401 401> 569 96<291 348 244 379> 1389 66<287 291 291 379>
VStem: 145 133 391 129<678 1376 1376 1380>
LayerCount: 2
UndoRedoHistory
Layer: 1
Undoes
EndUndoes
Redoes
EndRedoes
EndUndoRedoHistory
Fore
SplineSet
401 0 m 1,0,-1
 348 569 l 1,1,-1
 244 569 l 1,2,-1
 150 0 l 1,3,-1
 53 0 l 1,4,-1
 145 1454 l 1,5,-1
 520 1454 l 1,6,-1
 520 0 l 1,7,-1
 401 0 l 1,0,-1
391 1376 m 2,8,9
 391 1389 391 1389 379 1389 c 2,10,-1
 291 1389 l 2,11,12
 279 1389 279 1389 279 1376 c 2,13,-1
 279 676 l 2,14,15
 279 666 279 666 291 666 c 2,16,-1
 379 666 l 2,17,18
 391 666 391 666 391 678 c 2,19,-1
 391 1376 l 2,8,9
EndSplineSet
Validated: 1
Substitution2: "Single Substitution lookup 21 subtable" a
Substitution2: "Single Substitution lookup 20 subtable" ordfeminine
AlternateSubs2: "'aalt' Access All Alternates lookup 1 subtable" ordfeminine a
Position2: "'cpsp' Capital Spacing lookup 0 subtable" dx=10 dy=0 dh=20 dv=0
EndChar

StartChar: Aacute
Encoding: 193 193 2
Width: 622
Flags: MW
HStem: 0 43G<53 150 53 53 401 520 401 401> 569 96<291 348 244 379> 1389 66<287 291 291 379>
VStem: 145 133 391 129<678 1376 1376 1380>
LayerCount: 2
UndoRedoHistory
Layer: 1
Undoes
EndUndoes
Redoes
EndRedoes
EndUndoRedoHistory
Fore
SplineSet
508 1745 m 1,0,-1
 311 1573 l 1,1,-1
 242 1622 l 1,2,-1
 414 1843 l 1,3,-1
 508 1745 l 1,0,-1
401 0 m 1,4,-1
 348 569 l 1,5,-1
 244 569 l 1,6,-1
 150 0 l 1,7,-1
 53 0 l 1,8,-1
 145 1454 l 1,9,-1
 520 1454 l 1,10,-1
 520 0 l 1,11,-1
 401 0 l 1,4,-1
391 1376 m 2,12,13
 391 1389 391 1389 379 1389 c 2,14,-1
 291 1389 l 2,15,16
 279 1389 279 1389 279 1376 c 2,17,-1
 279 676 l 2,18,19
 279 666 279 666 291 666 c 2,20,-1
 379 666 l 2,21,22
 391 666 391 666 391 678 c 2,23,-1
 391 1376 l 2,12,13
EndSplineSet
Validated: 1
Substitution2: "Single Substitution lookup 21 subtable" aacute
Substitution2: "'aalt' Access All Alternates lookup 0 subtable" aacute
Position2: "'cpsp' Capital Spacing lookup 0 subtable" dx=10 dy=0 dh=20 dv=0
EndChar

StartChar: Abreve
Encoding: 258 258 3
Width: 622
Flags: MW
HStem: 0 43G<53 150 53 53 401 520 401 401> 569 96<291 348 244 379> 1389 66<287 291 291 379> 1608 97 1733 98<221 221>
VStem: 127 99 145 133 391 129<678 1376 1376 1380> 468 91
LayerCount: 2
UndoRedoHistory
Layer: 1
Undoes
EndUndoes
Redoes
EndRedoes
EndUndoRedoHistory
Fore
SplineSet
221 1733 m 1,0,-1
 246 1710 l 1,1,-1
 471 1700 l 1,2,-1
 465 1835 l 1,3,-1
 559 1843 l 1,4,-1
 559 1688 l 1,5,-1
 479 1608 l 1,6,-1
 223 1608 l 1,7,-1
 131 1665 l 1,8,-1
 123 1831 l 1,9,-1
 231 1831 l 1,10,-1
 221 1733 l 1,0,-1
401 0 m 1,11,-1
 348 569 l 1,12,-1
 244 569 l 1,13,-1
 150 0 l 1,14,-1
 53 0 l 1,15,-1
 145 1454 l 1,16,-1
 520 1454 l 1,17,-1
 520 0 l 1,18,-1
 401 0 l 1,11,-1
391 1376 m 2,19,20
 391 1389 391 1389 379 1389 c 2,21,-1
 291 1389 l 2,22,23
 279 1389 279 1389 279 1376 c 2,24,-1
 279 676 l 2,25,26
 279 666 279 666 291 666 c 2,27,-1
 379 666 l 2,28,29
 391 666 391 666 391 678 c 2,30,-1
 391 1376 l 2,19,20
EndSplineSet
Validated: 1
Substitution2: "Single Substitution lookup 21 subtable" abreve
Substitution2: "'aalt' Access All Alternates lookup 0 subtable" abreve
Position2: "'cpsp' Capital Spacing lookup 0 subtable" dx=10 dy=0 dh=20 dv=0
EndChar

StartChar: Acircumflex
Encoding: 194 194 4
Width: 622
Flags: MW
HStem: 0 43G<53 150 53 53 401 520 401 401> 569 96<291 348 244 379> 1389 66<287 291 291 379>
VStem: 145 133 391 129<678 1376 1376 1380>
LayerCount: 2
UndoRedoHistory
Layer: 1
Undoes
EndUndoes
Redoes
EndRedoes
EndUndoRedoHistory
Fore
SplineSet
373 1835 m 1,0,-1
 524 1610 l 1,1,-1
 465 1571 l 1,2,-1
 332 1698 l 1,3,-1
 199 1571 l 1,4,-1
 139 1610 l 1,5,-1
 291 1841 l 1,6,-1
 373 1835 l 1,0,-1
401 0 m 1,7,-1
 348 569 l 1,8,-1
 244 569 l 1,9,-1
 150 0 l 1,10,-1
 53 0 l 1,11,-1
 145 1454 l 1,12,-1
 520 1454 l 1,13,-1
 520 0 l 1,14,-1
 401 0 l 1,7,-1
391 1376 m 2,15,16
 391 1389 391 1389 379 1389 c 2,17,-1
 291 1389 l 2,18,19
 279 1389 279 1389 279 1376 c 2,20,-1
 279 676 l 2,21,22
 279 666 279 666 291 666 c 2,23,-1
 379 666 l 2,24,25
 391 666 391 666 391 678 c 2,26,-1
 391 1376 l 2,15,16
EndSplineSet
Validated: 1
Substitution2: "Single Substitution lookup 21 subtable" acircumflex
Substitution2: "'aalt' Access All Alternates lookup 0 subtable" acircumflex
Position2: "'cpsp' Capital Spacing lookup 0 subtable" dx=10 dy=0 dh=20 dv=0
EndChar

StartChar: Adieresis
Encoding: 196 196 5
Width: 622
Flags: MW
HStem: 0 43G<53 150 53 53 401 520 401 401> 569 96<291 348 244 379> 1389 66<287 291 291 379> 1673 167
VStem: 76 166 145 133 386 159 391 129<678 1376 1376 1380>
LayerCount: 2
UndoRedoHistory
Layer: 1
Undoes
EndUndoes
Redoes
EndRedoes
EndUndoRedoHistory
Fore
SplineSet
246 1843 m 1,0,-1
 238 1673 l 1,1,-1
 76 1673 l 1,2,-1
 76 1837 l 1,3,-1
 246 1843 l 1,0,-1
545 1843 m 1,4,-1
 545 1679 l 1,5,-1
 389 1673 l 1,6,-1
 383 1843 l 1,7,-1
 545 1843 l 1,4,-1
401 0 m 1,8,-1
 348 569 l 1,9,-1
 244 569 l 1,10,-1
 150 0 l 1,11,-1
 53 0 l 1,12,-1
 145 1454 l 1,13,-1
 520 1454 l 1,14,-1
 520 0 l 1,15,-1
 401 0 l 1,8,-1
391 1376 m 2,16,17
 391 1389 391 1389 379 1389 c 2,18,-1
 291 1389 l 2,19,20
 279 1389 279 1389 279 1376 c 2,21,-1
 279 676 l 2,22,23
 279 666 279 666 291 666 c 2,24,-1
 379 666 l 2,25,26
 391 666 391 666 391 678 c 2,27,-1
 391 1376 l 2,16,17
EndSplineSet
Validated: 1
Substitution2: "Single Substitution lookup 21 subtable" adieresis
Substitution2: "'aalt' Access All Alternates lookup 0 subtable" adieresis
Position2: "'cpsp' Capital Spacing lookup 0 subtable" dx=10 dy=0 dh=20 dv=0
EndChar

StartChar: Agrave
Encoding: 192 192 6
Width: 622
Flags: MW
HStem: 0 43G<53 150 53 53 401 520 401 401> 569 96<291 348 244 379> 1389 66<287 291 291 379>
VStem: 145 133 391 129<678 1376 1376 1380>
LayerCount: 2
UndoRedoHistory
Layer: 1
Undoes
EndUndoes
Redoes
EndRedoes
EndUndoRedoHistory
Fore
SplineSet
375 1573 m 1,0,-1
 178 1745 l 1,1,-1
 272 1843 l 1,2,-1
 444 1622 l 1,3,-1
 375 1573 l 1,0,-1
401 0 m 1,4,-1
 348 569 l 1,5,-1
 244 569 l 1,6,-1
 150 0 l 1,7,-1
 53 0 l 1,8,-1
 145 1454 l 1,9,-1
 520 1454 l 1,10,-1
 520 0 l 1,11,-1
 401 0 l 1,4,-1
391 1376 m 2,12,13
 391 1389 391 1389 379 1389 c 2,14,-1
 291 1389 l 2,15,16
 279 1389 279 1389 279 1376 c 2,17,-1
 279 676 l 2,18,19
 279 666 279 666 291 666 c 2,20,-1
 379 666 l 2,21,22
 391 666 391 666 391 678 c 2,23,-1
 391 1376 l 2,12,13
EndSplineSet
Validated: 1
Substitution2: "Single Substitution lookup 21 subtable" agrave
Substitution2: "'aalt' Access All Alternates lookup 0 subtable" agrave
Position2: "'cpsp' Capital Spacing lookup 0 subtable" dx=10 dy=0 dh=20 dv=0
EndChar

StartChar: Amacron
Encoding: 256 256 7
Width: 622
Flags: MW
HStem: 0 43G<53 150 53 53 401 520 401 401> 569 96<291 348 244 379> 1389 66<287 291 291 379> 1703 122
VStem: 145 133 391 129<678 1376 1376 1380>
LayerCount: 2
UndoRedoHistory
Layer: 1
Undoes
EndUndoes
Redoes
EndRedoes
EndUndoRedoHistory
Fore
SplineSet
610 1712 m 1,0,-1
 68 1694 l 1,1,-1
 61 1825 l 1,2,-1
 610 1825 l 1,3,-1
 610 1712 l 1,0,-1
401 0 m 1,4,-1
 348 569 l 1,5,-1
 244 569 l 1,6,-1
 150 0 l 1,7,-1
 53 0 l 1,8,-1
 145 1454 l 1,9,-1
 520 1454 l 1,10,-1
 520 0 l 1,11,-1
 401 0 l 1,4,-1
391 1376 m 2,12,13
 391 1389 391 1389 379 1389 c 2,14,-1
 291 1389 l 2,15,16
 279 1389 279 1389 279 1376 c 2,17,-1
 279 676 l 2,18,19
 279 666 279 666 291 666 c 2,20,-1
 379 666 l 2,21,22
 391 666 391 666 391 678 c 2,23,-1
 391 1376 l 2,12,13
EndSplineSet
Validated: 1
Substitution2: "Single Substitution lookup 21 subtable" amacron
Substitution2: "'aalt' Access All Alternates lookup 0 subtable" amacron
Position2: "'cpsp' Capital Spacing lookup 0 subtable" dx=10 dy=0 dh=20 dv=0
EndChar

StartChar: Aogonek
Encoding: 260 260 8
Width: 622
Flags: MW
HStem: 0 43G<53 150 53 53 481 520 481 481> 569 96<291 348 244 379> 1389 66<287 291 291 379>
VStem: 145 133 391 129<678 1376 1376 1380>
LayerCount: 2
UndoRedoHistory
Layer: 1
Undoes
EndUndoes
Redoes
EndRedoes
EndUndoRedoHistory
Fore
SplineSet
481 0 m 1,0,-1
 428 -170 l 1,1,-1
 498 -297 l 1,2,-1
 680 -205 l 1,3,-1
 713 -299 l 1,4,-1
 481 -428 l 1,5,-1
 301 -195 l 1,6,-1
 401 4 l 1,7,-1
 348 569 l 1,8,-1
 244 569 l 1,9,-1
 150 0 l 1,10,-1
 53 0 l 1,11,-1
 145 1454 l 1,12,-1
 520 1454 l 1,13,-1
 520 0 l 1,14,-1
 481 0 l 1,0,-1
391 1376 m 2,15,16
 391 1389 391 1389 379 1389 c 2,17,-1
 291 1389 l 2,18,19
 279 1389 279 1389 279 1376 c 2,20,-1
 279 676 l 2,21,22
 279 666 279 666 291 666 c 2,23,-1
 379 666 l 2,24,25
 391 666 391 666 391 678 c 2,26,-1
 391 1376 l 2,15,16
EndSplineSet
Validated: 1
Substitution2: "Single Substitution lookup 21 subtable" aogonek
Substitution2: "'aalt' Access All Alternates lookup 0 subtable" aogonek
Position2: "'cpsp' Capital Spacing lookup 0 subtable" dx=10 dy=0 dh=20 dv=0
EndChar

StartChar: Aring
Encoding: 197 197 9
Width: 622
Flags: MW
HStem: 0 43G<53 150 53 53 401 520 401 401> 569 96<291 348 244 379> 1389 66<287 291 291 379> 1565 72<303 387 387 392 303 436> 1786 55<302 307>
VStem: 203 88<1641 1645 1645 1780> 391 129<678 1376 1376 1380> 401 86<1649 1763 1763 1765>
LayerCount: 2
UndoRedoHistory
Layer: 1
Undoes
EndUndoes
Redoes
EndRedoes
EndUndoRedoHistory
Fore
SplineSet
487 1618 m 1,0,-1
 436 1565 l 1,1,-1
 203 1565 l 1,2,-1
 203 1841 l 1,3,-1
 487 1841 l 1,4,-1
 487 1618 l 1,0,-1
387 1636 m 2,5,6
 401 1636 401 1636 401 1649 c 2,7,-1
 401 1763 l 2,8,9
 401 1770 401 1770 389 1776 c 1,10,-1
 307 1786 l 1,11,12
 291 1786 291 1786 291 1780 c 2,13,-1
 291 1645 l 2,14,15
 291 1636 291 1636 303 1636 c 2,16,-1
 387 1636 l 2,5,6
401 0 m 1,17,-1
 348 569 l 1,18,-1
 244 569 l 1,19,-1
 150 0 l 1,20,-1
 53 0 l 1,21,-1
 145 1454 l 1,22,-1
 520 1454 l 1,23,-1
 520 0 l 1,24,-1
 401 0 l 1,17,-1
391 1376 m 2,25,26
 391 1389 391 1389 379 1389 c 2,27,-1
 291 1389 l 2,28,29
 279 1389 279 1389 279 1376 c 2,30,-1
 279 676 l 2,31,32
 279 666 279 666 291 666 c 2,33,-1
 379 666 l 2,34,35
 391 666 391 666 391 678 c 2,36,-1
 391 1376 l 2,25,26
EndSplineSet
Validated: 1
Substitution2: "Single Substitution lookup 21 subtable" aring
Substitution2: "'aalt' Access All Alternates lookup 0 subtable" aring
Position2: "'cpsp' Capital Spacing lookup 0 subtable" dx=10 dy=0 dh=20 dv=0
EndChar

StartChar: Aringacute
Encoding: 506 506 10
Width: 622
Flags: MW
HStem: 0 43G<53 150 53 53 401 520 401 401> 569 96<291 348 244 379> 1382 72<289 379 379 384> 1604 55<294 299>
VStem: 195 84 391 129<678 1376 1376 1377>
LayerCount: 2
UndoRedoHistory
Layer: 1
Undoes
EndUndoes
Redoes
EndRedoes
EndUndoRedoHistory
Fore
SplineSet
512 1731 m 1,0,-1
 254 1686 l 1,1,-1
 221 1763 l 1,2,-1
 494 1843 l 1,3,-1
 512 1731 l 1,0,-1
479 1454 m 1,4,-1
 520 1454 l 1,5,-1
 520 0 l 1,6,-1
 401 0 l 1,7,-1
 348 569 l 1,8,-1
 244 569 l 1,9,-1
 150 0 l 1,10,-1
 53 0 l 1,11,-1
 145 1454 l 1,12,-1
 195 1454 l 1,13,-1
 195 1659 l 1,14,-1
 479 1659 l 1,15,-1
 479 1454 l 1,4,-1
379 1454 m 2,16,17
 393 1454 393 1454 393 1466 c 2,18,-1
 393 1581 l 2,19,20
 393 1587 393 1587 381 1593 c 1,21,-1
 299 1604 l 1,22,23
 283 1604 283 1604 283 1597 c 2,24,-1
 283 1462 l 2,25,26
 283 1454 283 1454 289 1454 c 2,27,-1
 379 1454 l 2,16,17
391 1376 m 2,28,29
 391 1380 391 1380 389 1382 c 1,30,-1
 279 1382 l 1,31,-1
 279 676 l 2,32,33
 279 666 279 666 291 666 c 2,34,-1
 379 666 l 2,35,36
 391 666 391 666 391 678 c 2,37,-1
 391 1376 l 2,28,29
EndSplineSet
Validated: 1
Substitution2: "Single Substitution lookup 21 subtable" aringacute
Substitution2: "'aalt' Access All Alternates lookup 0 subtable" aringacute
Position2: "'cpsp' Capital Spacing lookup 0 subtable" dx=10 dy=0 dh=20 dv=0
EndChar

StartChar: Atilde
Encoding: 195 195 11
Width: 622
Flags: MW
HStem: 0 43G<53 150 53 53 401 520 401 401> 569 96<291 348 244 379> 1389 66<287 291 291 379>
VStem: 122 157 391 129<678 1376 1376 1380>
LayerCount: 2
UndoRedoHistory
Layer: 1
Undoes
EndUndoes
Redoes
EndRedoes
EndUndoRedoHistory
Fore
SplineSet
172 1808 m 1,0,1
 209 1837 209 1837 250 1837 c 0,2,3
 301 1837 301 1837 360 1796 c 1,4,-1
 438 1745 l 1,5,-1
 586 1843 l 1,6,-1
 586 1720 l 1,7,-1
 537 1673 l 1,8,9
 486 1626 486 1626 446 1626 c 0,10,11
 409 1626 409 1626 354 1665 c 2,12,-1
 264 1729 l 1,13,-1
 125 1620 l 1,14,-1
 119 1761 l 1,15,-1
 172 1808 l 1,0,1
401 0 m 1,16,-1
 348 569 l 1,17,-1
 244 569 l 1,18,-1
 150 0 l 1,19,-1
 53 0 l 1,20,-1
 145 1454 l 1,21,-1
 520 1454 l 1,22,-1
 520 0 l 1,23,-1
 401 0 l 1,16,-1
391 1376 m 2,24,25
 391 1389 391 1389 379 1389 c 2,26,-1
 291 1389 l 2,27,28
 279 1389 279 1389 279 1376 c 2,29,-1
 279 676 l 2,30,31
 279 666 279 666 291 666 c 2,32,-1
 379 666 l 2,33,34
 391 666 391 666 391 678 c 2,35,-1
 391 1376 l 2,24,25
EndSplineSet
Validated: 1
Substitution2: "Single Substitution lookup 21 subtable" atilde
Substitution2: "'aalt' Access All Alternates lookup 0 subtable" atilde
Position2: "'cpsp' Capital Spacing lookup 0 subtable" dx=10 dy=0 dh=20 dv=0
EndChar

StartChar: AE
Encoding: 198 198 12
Width: 966
Flags: MW
HStem: 0 170<584 584 584 885 442 584> 0 207<860 860 860 885> 569 96<291 379 379 383 291 389 244 379> 842 102<573 797> 1294 160<573 573 573 866> 1389 66<287 291 291 379>
VStem: 145 133 391 182<944 1294 944 1376 944 1380>
LayerCount: 2
UndoRedoHistory
Layer: 1
Undoes
EndUndoes
Redoes
EndRedoes
EndUndoRedoHistory
Fore
SplineSet
573 1294 m 1,0,-1
 573 944 l 1,1,-1
 797 944 l 1,2,-1
 797 842 l 1,3,-1
 584 805 l 1,4,-1
 584 170 l 1,5,-1
 860 207 l 1,6,-1
 885 0 l 1,7,-1
 442 0 l 1,8,-1
 389 569 l 1,9,-1
 244 569 l 1,10,-1
 150 0 l 1,11,-1
 53 0 l 1,12,-1
 145 1454 l 1,13,-1
 866 1454 l 1,14,-1
 866 1294 l 1,15,-1
 573 1294 l 1,0,-1
391 1376 m 2,16,17
 391 1389 391 1389 379 1389 c 2,18,-1
 291 1389 l 2,19,20
 279 1389 279 1389 279 1376 c 2,21,-1
 279 676 l 2,22,23
 279 666 279 666 291 666 c 2,24,-1
 379 666 l 2,25,26
 391 666 391 666 391 678 c 2,27,-1
 391 1376 l 2,16,17
EndSplineSet
Validated: 1
Substitution2: "Single Substitution lookup 21 subtable" ae
Substitution2: "'aalt' Access All Alternates lookup 0 subtable" ae
Position2: "'cpsp' Capital Spacing lookup 0 subtable" dx=10 dy=0 dh=20 dv=0
EndChar

StartChar: AEacute
Encoding: 508 508 13
Width: 966
Flags: MW
HStem: 0 170<584 584 584 885 442 584> 0 207<860 860 860 885> 569 96<291 379 379 383 291 389 244 379> 842 102<573 797> 1294 160<573 573 573 866> 1389 66<287 291 291 379>
VStem: 145 133 391 182<944 1294 944 1376 944 1380>
LayerCount: 2
UndoRedoHistory
Layer: 1
Undoes
EndUndoes
Redoes
EndRedoes
EndUndoRedoHistory
Fore
SplineSet
651 1745 m 1,0,-1
 455 1573 l 1,1,-1
 385 1622 l 1,2,-1
 557 1843 l 1,3,-1
 651 1745 l 1,0,-1
573 1294 m 1,4,-1
 573 944 l 1,5,-1
 797 944 l 1,6,-1
 797 842 l 1,7,-1
 584 805 l 1,8,-1
 584 170 l 1,9,-1
 860 207 l 1,10,-1
 885 0 l 1,11,-1
 442 0 l 1,12,-1
 389 569 l 1,13,-1
 244 569 l 1,14,-1
 150 0 l 1,15,-1
 53 0 l 1,16,-1
 145 1454 l 1,17,-1
 866 1454 l 1,18,-1
 866 1294 l 1,19,-1
 573 1294 l 1,4,-1
391 1376 m 2,20,21
 391 1389 391 1389 379 1389 c 2,22,-1
 291 1389 l 2,23,24
 279 1389 279 1389 279 1376 c 2,25,-1
 279 676 l 2,26,27
 279 666 279 666 291 666 c 2,28,-1
 379 666 l 2,29,30
 391 666 391 666 391 678 c 2,31,-1
 391 1376 l 2,20,21
EndSplineSet
Validated: 1
Substitution2: "Single Substitution lookup 21 subtable" aeacute
Substitution2: "'aalt' Access All Alternates lookup 0 subtable" aeacute
Position2: "'cpsp' Capital Spacing lookup 0 subtable" dx=10 dy=0 dh=20 dv=0
EndChar

StartChar: B
Encoding: 66 66 14
Width: 626
Flags: MW
HStem: 41 115<287 317 317 345 287 381> 690 76 1333 121<236 244 244 332>
VStem: 102 117<845 850 850 1325> 340 174 381 154<41 102 217 678 678 678>
LayerCount: 2
UndoRedoHistory
Layer: 1
Undoes
EndUndoes
Redoes
EndRedoes
EndUndoRedoHistory
Fore
SplineSet
453 813 m 1,0,1
 453 791 453 791 448.5 782.5 c 128,-1,2
 444 774 444 774 430 766 c 1,3,4
 454 762 454 762 467.5 759 c 128,-1,5
 481 756 481 756 499.5 750.5 c 128,-1,6
 518 745 518 745 526.5 738 c 128,-1,7
 535 731 535 731 535 721 c 2,8,-1
 535 102 l 2,9,10
 535 82 535 82 516 68 c 128,-1,11
 497 54 497 54 466.5 49 c 128,-1,12
 436 44 436 44 417 42.5 c 128,-1,13
 398 41 398 41 381 41 c 2,14,-1
 102 41 l 1,15,-1
 102 1454 l 1,16,-1
 334 1454 l 2,17,18
 359 1454 359 1454 384.5 1450.5 c 128,-1,19
 410 1447 410 1447 442 1438 c 128,-1,20
 474 1429 474 1429 494 1408 c 128,-1,21
 514 1387 514 1387 514 1356 c 1,22,-1
 512 1335 l 1,23,-1
 453 813 l 1,0,1
219 850 m 2,24,25
 219 834 219 834 244 834 c 1,26,-1
 322 864 l 1,27,28
 340 867 340 867 340 883 c 2,29,-1
 360 1325 l 2,30,31
 360 1333 360 1333 332 1333 c 2,32,-1
 244 1333 l 2,33,34
 219 1333 219 1333 219 1325 c 2,35,-1
 219 850 l 2,24,25
317 156 m 2,36,37
 353 156 353 156 369 172 c 128,-1,38
 385 188 385 188 385 205 c 0,39,40
 385 217 385 217 381 217 c 1,41,-1
 381 678 l 1,42,43
 387 681 387 681 387 684 c 0,44,45
 387 690 387 690 373 690 c 2,46,-1
 287 690 l 2,47,48
 282 690 282 690 276.5 687.5 c 128,-1,49
 271 685 271 685 267.5 682 c 128,-1,50
 264 679 264 679 264 678 c 2,51,-1
 264 162 l 2,52,53
 264 156 264 156 287 156 c 2,54,-1
 317 156 l 2,36,37
EndSplineSet
Validated: 1
Substitution2: "Single Substitution lookup 20 subtable" b
Substitution2: "'aalt' Access All Alternates lookup 0 subtable" b
Position2: "'cpsp' Capital Spacing lookup 0 subtable" dx=10 dy=0 dh=20 dv=0
EndChar

StartChar: C
Encoding: 67 67 15
Width: 684
Flags: MW
HStem: 0 170<289 309 309 410 410 418 289 602> 1333 121<274 303 303 389>
VStem: 102 154 414 188
LayerCount: 2
UndoRedoHistory
Layer: 1
Undoes
EndUndoes
Redoes
EndRedoes
EndUndoRedoHistory
Fore
SplineSet
602 0 m 1,0,-1
 309 0 l 2,1,2
 203 0 203 0 152.5 35.5 c 128,-1,3
 102 71 102 71 102 127 c 2,4,-1
 102 1339 l 2,5,6
 102 1388 102 1388 145.5 1421 c 128,-1,7
 189 1454 189 1454 266 1454 c 2,8,-1
 602 1454 l 1,9,-1
 602 1339 l 1,10,-1
 569 1083 l 1,11,-1
 434 1083 l 1,12,-1
 414 1315 l 1,13,14
 414 1333 414 1333 389 1333 c 2,15,-1
 303 1333 l 2,16,17
 265 1333 265 1333 247 1301 c 128,-1,18
 229 1269 229 1269 229 1231 c 0,19,20
 229 1208 229 1208 236 1204 c 1,21,-1
 276 182 l 1,22,23
 270 179 270 179 270 176 c 0,24,25
 270 170 270 170 289 170 c 2,26,-1
 410 170 l 2,27,28
 434 170 434 170 434 182 c 1,29,-1
 475 342 l 1,30,-1
 602 342 l 1,31,-1
 602 0 l 1,0,-1
EndSplineSet
Validated: 1
Substitution2: "Single Substitution lookup 20 subtable" c
Substitution2: "'aalt' Access All Alternates lookup 0 subtable" c
Position2: "'cpsp' Capital Spacing lookup 0 subtable" dx=10 dy=0 dh=20 dv=0
EndChar

StartChar: Cacute
Encoding: 262 262 16
Width: 684
Flags: MW
HStem: 0 170<289 309 309 410 410 418 289 602> 1333 121<274 303 303 389>
VStem: 102 154 414 188
LayerCount: 2
UndoRedoHistory
Layer: 1
Undoes
EndUndoes
Redoes
EndRedoes
EndUndoRedoHistory
Fore
SplineSet
545 1745 m 1,0,-1
 348 1573 l 1,1,-1
 279 1622 l 1,2,-1
 451 1843 l 1,3,-1
 545 1745 l 1,0,-1
602 0 m 1,4,-1
 309 0 l 2,5,6
 203 0 203 0 152.5 35.5 c 128,-1,7
 102 71 102 71 102 127 c 2,8,-1
 102 1339 l 2,9,10
 102 1388 102 1388 145.5 1421 c 128,-1,11
 189 1454 189 1454 266 1454 c 2,12,-1
 602 1454 l 1,13,-1
 602 1339 l 1,14,-1
 569 1083 l 1,15,-1
 434 1083 l 1,16,-1
 414 1315 l 1,17,18
 414 1333 414 1333 389 1333 c 2,19,-1
 303 1333 l 2,20,21
 265 1333 265 1333 247 1301 c 128,-1,22
 229 1269 229 1269 229 1231 c 0,23,24
 229 1208 229 1208 236 1204 c 1,25,-1
 276 182 l 1,26,27
 270 179 270 179 270 176 c 0,28,29
 270 170 270 170 289 170 c 2,30,-1
 410 170 l 2,31,32
 434 170 434 170 434 182 c 1,33,-1
 475 342 l 1,34,-1
 602 342 l 1,35,-1
 602 0 l 1,4,-1
EndSplineSet
Validated: 1
Substitution2: "Single Substitution lookup 20 subtable" cacute
Substitution2: "'locl' Localized Forms in Latin lookup 11 subtable" Cacute.loclPLK
AlternateSubs2: "'aalt' Access All Alternates lookup 1 subtable" Cacute.loclPLK cacute
Position2: "'cpsp' Capital Spacing lookup 0 subtable" dx=10 dy=0 dh=20 dv=0
EndChar

StartChar: Ccaron
Encoding: 268 268 17
Width: 684
Flags: MW
HStem: 0 170<289 309 309 410 410 418 289 602> 1333 121<274 303 303 389>
VStem: 102 154 414 188
LayerCount: 2
UndoRedoHistory
Layer: 1
Undoes
EndUndoes
Redoes
EndRedoes
EndUndoRedoHistory
Fore
SplineSet
346 1579 m 1,0,-1
 195 1804 l 1,1,-1
 254 1843 l 1,2,-1
 387 1716 l 1,3,-1
 520 1843 l 1,4,-1
 580 1804 l 1,5,-1
 428 1573 l 1,6,-1
 346 1579 l 1,0,-1
602 0 m 1,7,-1
 309 0 l 2,8,9
 203 0 203 0 152.5 35.5 c 128,-1,10
 102 71 102 71 102 127 c 2,11,-1
 102 1339 l 2,12,13
 102 1388 102 1388 145.5 1421 c 128,-1,14
 189 1454 189 1454 266 1454 c 2,15,-1
 602 1454 l 1,16,-1
 602 1339 l 1,17,-1
 569 1083 l 1,18,-1
 434 1083 l 1,19,-1
 414 1315 l 1,20,21
 414 1333 414 1333 389 1333 c 2,22,-1
 303 1333 l 2,23,24
 265 1333 265 1333 247 1301 c 128,-1,25
 229 1269 229 1269 229 1231 c 0,26,27
 229 1208 229 1208 236 1204 c 1,28,-1
 276 182 l 1,29,30
 270 179 270 179 270 176 c 0,31,32
 270 170 270 170 289 170 c 2,33,-1
 410 170 l 2,34,35
 434 170 434 170 434 182 c 1,36,-1
 475 342 l 1,37,-1
 602 342 l 1,38,-1
 602 0 l 1,7,-1
EndSplineSet
Validated: 1
Substitution2: "Single Substitution lookup 20 subtable" ccaron
Substitution2: "'aalt' Access All Alternates lookup 0 subtable" ccaron
Position2: "'cpsp' Capital Spacing lookup 0 subtable" dx=10 dy=0 dh=20 dv=0
EndChar

StartChar: Ccedilla
Encoding: 199 199 18
Width: 684
Flags: MW
HStem: -426 119<143 395 143 408> -190 98 0 170<393 410 410 418 289 602 393 393> 1333 121<274 303 303 389>
VStem: 102 154 143 383<-332 -307 -307 -307> 414 188
LayerCount: 2
UndoRedoHistory
Layer: 1
Undoes
EndUndoes
Redoes
EndRedoes
EndUndoRedoHistory
Fore
SplineSet
602 0 m 1,0,-1
 393 0 l 1,1,-1
 346 -92 l 1,2,-1
 575 -92 l 1,3,-1
 526 -303 l 1,4,5
 526 -345 526 -345 483 -385.5 c 128,-1,6
 440 -426 440 -426 395 -426 c 2,7,-1
 143 -426 l 1,8,-1
 143 -307 l 1,9,-1
 408 -307 l 1,10,-1
 428 -199 l 1,11,-1
 213 -182 l 1,12,-1
 264 2 l 1,13,14
 181 9 181 9 141.5 43 c 128,-1,15
 102 77 102 77 102 127 c 2,16,-1
 102 1339 l 2,17,18
 102 1388 102 1388 145.5 1421 c 128,-1,19
 189 1454 189 1454 266 1454 c 2,20,-1
 602 1454 l 1,21,-1
 602 1339 l 1,22,-1
 569 1083 l 1,23,-1
 434 1083 l 1,24,-1
 414 1315 l 1,25,26
 414 1333 414 1333 389 1333 c 2,27,-1
 303 1333 l 2,28,29
 265 1333 265 1333 247 1301 c 128,-1,30
 229 1269 229 1269 229 1231 c 0,31,32
 229 1208 229 1208 236 1204 c 1,33,-1
 276 182 l 1,34,35
 270 179 270 179 270 176 c 0,36,37
 270 170 270 170 289 170 c 2,38,-1
 410 170 l 2,39,40
 434 170 434 170 434 182 c 1,41,-1
 475 342 l 1,42,-1
 602 342 l 1,43,-1
 602 0 l 1,0,-1
EndSplineSet
Validated: 1
Substitution2: "Single Substitution lookup 20 subtable" ccedilla
Substitution2: "'aalt' Access All Alternates lookup 0 subtable" ccedilla
Position2: "'cpsp' Capital Spacing lookup 0 subtable" dx=10 dy=0 dh=20 dv=0
EndChar

StartChar: Ccircumflex
Encoding: 264 264 19
Width: 684
Flags: MW
HStem: 0 170<289 309 309 410 410 418 289 602> 1333 121<274 303 303 389>
VStem: 102 154 414 188
LayerCount: 2
UndoRedoHistory
Layer: 1
Undoes
EndUndoes
Redoes
EndRedoes
EndUndoRedoHistory
Fore
SplineSet
422 1837 m 1,0,-1
 573 1612 l 1,1,-1
 514 1573 l 1,2,-1
 381 1700 l 1,3,-1
 248 1573 l 1,4,-1
 188 1612 l 1,5,-1
 340 1843 l 1,6,-1
 422 1837 l 1,0,-1
602 0 m 1,7,-1
 309 0 l 2,8,9
 203 0 203 0 152.5 35.5 c 128,-1,10
 102 71 102 71 102 127 c 2,11,-1
 102 1339 l 2,12,13
 102 1388 102 1388 145.5 1421 c 128,-1,14
 189 1454 189 1454 266 1454 c 2,15,-1
 602 1454 l 1,16,-1
 602 1339 l 1,17,-1
 569 1083 l 1,18,-1
 434 1083 l 1,19,-1
 414 1315 l 1,20,21
 414 1333 414 1333 389 1333 c 2,22,-1
 303 1333 l 2,23,24
 265 1333 265 1333 247 1301 c 128,-1,25
 229 1269 229 1269 229 1231 c 0,26,27
 229 1208 229 1208 236 1204 c 1,28,-1
 276 182 l 1,29,30
 270 179 270 179 270 176 c 0,31,32
 270 170 270 170 289 170 c 2,33,-1
 410 170 l 2,34,35
 434 170 434 170 434 182 c 1,36,-1
 475 342 l 1,37,-1
 602 342 l 1,38,-1
 602 0 l 1,7,-1
EndSplineSet
Validated: 1
Substitution2: "Single Substitution lookup 20 subtable" ccircumflex
Substitution2: "'aalt' Access All Alternates lookup 0 subtable" ccircumflex
Position2: "'cpsp' Capital Spacing lookup 0 subtable" dx=10 dy=0 dh=20 dv=0
EndChar

StartChar: Cdotaccent
Encoding: 266 266 20
Width: 684
Flags: MW
HStem: 0 170<289 309 309 410 410 418 289 602> 1333 121<274 303 303 389> 1646 198
VStem: 102 154 291 186 414 188
LayerCount: 2
UndoRedoHistory
Layer: 1
Undoes
EndUndoes
Redoes
EndRedoes
EndUndoRedoHistory
Fore
SplineSet
477 1843 m 1,0,-1
 477 1649 l 1,1,-1
 295 1642 l 1,2,-1
 287 1843 l 1,3,-1
 477 1843 l 1,0,-1
602 0 m 1,4,-1
 309 0 l 2,5,6
 203 0 203 0 152.5 35.5 c 128,-1,7
 102 71 102 71 102 127 c 2,8,-1
 102 1339 l 2,9,10
 102 1388 102 1388 145.5 1421 c 128,-1,11
 189 1454 189 1454 266 1454 c 2,12,-1
 602 1454 l 1,13,-1
 602 1339 l 1,14,-1
 569 1083 l 1,15,-1
 434 1083 l 1,16,-1
 414 1315 l 1,17,18
 414 1333 414 1333 389 1333 c 2,19,-1
 303 1333 l 2,20,21
 265 1333 265 1333 247 1301 c 128,-1,22
 229 1269 229 1269 229 1231 c 0,23,24
 229 1208 229 1208 236 1204 c 1,25,-1
 276 182 l 1,26,27
 270 179 270 179 270 176 c 0,28,29
 270 170 270 170 289 170 c 2,30,-1
 410 170 l 2,31,32
 434 170 434 170 434 182 c 1,33,-1
 475 342 l 1,34,-1
 602 342 l 1,35,-1
 602 0 l 1,4,-1
EndSplineSet
Validated: 1
Substitution2: "Single Substitution lookup 20 subtable" cdotaccent
Substitution2: "'aalt' Access All Alternates lookup 0 subtable" cdotaccent
Position2: "'cpsp' Capital Spacing lookup 0 subtable" dx=10 dy=0 dh=20 dv=0
EndChar

StartChar: D
Encoding: 68 68 21
Width: 638
Flags: MW
HStem: 0 140 1319 135<265 268 268 338 338 360>
VStem: 102 147<147 1307 147 1454> 362 199
LayerCount: 2
UndoRedoHistory
Layer: 1
Undoes
EndUndoes
Redoes
EndRedoes
EndUndoRedoHistory
Fore
SplineSet
338 1454 m 2,0,1
 436 1454 436 1454 498.5 1390.5 c 128,-1,2
 561 1327 561 1327 561 1229 c 1,3,-1
 500 117 l 1,4,-1
 375 0 l 1,5,-1
 102 0 l 1,6,-1
 102 1454 l 1,7,-1
 338 1454 l 2,0,1
385 1307 m 2,8,9
 385 1319 385 1319 360 1319 c 2,10,-1
 268 1319 l 2,11,12
 263 1319 263 1319 256.5 1315 c 128,-1,13
 250 1311 250 1311 250 1307 c 2,14,-1
 250 147 l 1,15,-1
 268 135 l 1,16,-1
 344 145 l 1,17,18
 362 157 362 157 362 172 c 2,19,-1
 385 1307 l 2,8,9
EndSplineSet
Validated: 1
Substitution2: "Single Substitution lookup 20 subtable" d
Substitution2: "'aalt' Access All Alternates lookup 0 subtable" d
Position2: "'cpsp' Capital Spacing lookup 0 subtable" dx=10 dy=0 dh=20 dv=0
EndChar

StartChar: DZ
Encoding: 497 497 22
Width: 1257
Flags: MW
HStem: 0 140 1319 135<265 268 268 338 338 360>
VStem: 102 147<147 1307 147 1454> 362 199
LayerCount: 2
UndoRedoHistory
Layer: 1
Undoes
EndUndoes
Redoes
EndRedoes
EndUndoRedoHistory
Fore
SplineSet
338 1454 m 2,0,1
 436 1454 436 1454 498.5 1390.5 c 128,-1,2
 561 1327 561 1327 561 1229 c 1,3,-1
 500 117 l 1,4,-1
 375 0 l 1,5,-1
 102 0 l 1,6,-1
 102 1454 l 1,7,-1
 338 1454 l 2,0,1
1180 133 m 1,8,-1
 1196 0 l 1,9,-1
 737 0 l 1,10,-1
 700 45 l 1,11,-1
 770 180 l 1,12,-1
 1012 1307 l 1,13,-1
 733 1372 l 1,14,-1
 733 1454 l 1,15,-1
 1133 1454 l 1,16,-1
 1196 1391 l 1,17,-1
 905 172 l 1,18,-1
 1180 133 l 1,8,-1
385 1307 m 2,19,20
 385 1319 385 1319 360 1319 c 2,21,-1
 268 1319 l 2,22,23
 263 1319 263 1319 256.5 1315 c 128,-1,24
 250 1311 250 1311 250 1307 c 2,25,-1
 250 147 l 1,26,-1
 268 135 l 1,27,-1
 344 145 l 1,28,29
 362 157 362 157 362 172 c 2,30,-1
 385 1307 l 2,19,20
EndSplineSet
Validated: 1
Substitution2: "Single Substitution lookup 20 subtable" dz
Substitution2: "'aalt' Access All Alternates lookup 0 subtable" dz
Position2: "'cpsp' Capital Spacing lookup 0 subtable" dx=10 dy=0 dh=20 dv=0
EndChar

StartChar: DZcaron
Encoding: 452 452 23
Width: 1257
Flags: MW
HStem: 0 45<700 737 700 1196> 0 140 1319 135<265 268 268 338 338 360> 1372 82<733 733> 1391 63
VStem: 102 147<147 1307 147 1454> 362 199
LayerCount: 2
UndoRedoHistory
Layer: 1
Undoes
EndUndoes
Redoes
EndRedoes
EndUndoRedoHistory
Fore
SplineSet
920 1579 m 1,0,-1
 768 1804 l 1,1,-1
 827 1843 l 1,2,-1
 961 1716 l 1,3,-1
 1094 1843 l 1,4,-1
 1153 1804 l 1,5,-1
 1001 1573 l 1,6,-1
 920 1579 l 1,0,-1
338 1454 m 2,7,8
 436 1454 436 1454 498.5 1390.5 c 128,-1,9
 561 1327 561 1327 561 1229 c 1,10,-1
 500 117 l 1,11,-1
 375 0 l 1,12,-1
 102 0 l 1,13,-1
 102 1454 l 1,14,-1
 338 1454 l 2,7,8
700 45 m 1,15,-1
 770 180 l 1,16,-1
 1012 1307 l 1,17,-1
 733 1372 l 1,18,-1
 733 1454 l 1,19,-1
 1133 1454 l 1,20,-1
 1196 1391 l 1,21,-1
 905 172 l 1,22,-1
 1180 133 l 1,23,-1
 1196 0 l 1,24,-1
 737 0 l 1,25,-1
 700 45 l 1,15,-1
385 1307 m 2,26,27
 385 1319 385 1319 360 1319 c 2,28,-1
 268 1319 l 2,29,30
 263 1319 263 1319 256.5 1315 c 128,-1,31
 250 1311 250 1311 250 1307 c 2,32,-1
 250 147 l 1,33,-1
 268 135 l 1,34,-1
 344 145 l 1,35,36
 362 157 362 157 362 172 c 2,37,-1
 385 1307 l 2,26,27
EndSplineSet
Validated: 1
Substitution2: "Single Substitution lookup 20 subtable" dzcaron
Substitution2: "'aalt' Access All Alternates lookup 0 subtable" dzcaron
Position2: "'cpsp' Capital Spacing lookup 0 subtable" dx=10 dy=0 dh=20 dv=0
EndChar

StartChar: Eth
Encoding: 208 208 24
Width: 638
Flags: MW
HStem: 0 140 692 116 1319 135<265 268 268 338 338 360>
VStem: 102 147<147 692 147 692 147 692 805 1307> 362 201
LayerCount: 2
UndoRedoHistory
Layer: 1
Undoes
EndUndoes
Redoes
EndRedoes
EndUndoRedoHistory
Fore
SplineSet
102 1454 m 1,0,-1
 338 1454 l 2,1,2
 418 1454 418 1454 490.5 1398 c 128,-1,3
 563 1342 563 1342 563 1262 c 0,4,5
 563 1260 563 1260 562 1247 c 128,-1,6
 561 1234 561 1234 561 1229 c 2,7,-1
 500 117 l 2,8,9
 498 79 498 79 481 53 c 128,-1,10
 464 27 464 27 440.5 17 c 128,-1,11
 417 7 417 7 401.5 3.5 c 128,-1,12
 386 0 386 0 375 0 c 2,13,-1
 102 0 l 1,14,-1
 102 692 l 1,15,-1
 0 692 l 1,16,-1
 -6 811 l 1,17,-1
 102 805 l 1,18,-1
 102 1454 l 1,0,-1
385 1307 m 2,19,20
 385 1319 385 1319 360 1319 c 2,21,-1
 268 1319 l 2,22,23
 263 1319 263 1319 256.5 1315 c 128,-1,24
 250 1311 250 1311 250 1307 c 2,25,-1
 250 797 l 1,26,-1
 322 793 l 1,27,-1
 322 692 l 1,28,-1
 250 692 l 1,29,-1
 250 147 l 1,30,-1
 268 135 l 1,31,-1
 344 145 l 1,32,33
 362 157 362 157 362 172 c 2,34,-1
 385 1307 l 2,19,20
EndSplineSet
Validated: 1
Substitution2: "Single Substitution lookup 20 subtable" eth
Substitution2: "'aalt' Access All Alternates lookup 0 subtable" eth
Position2: "'cpsp' Capital Spacing lookup 0 subtable" dx=10 dy=0 dh=20 dv=0
EndChar

StartChar: Dcaron
Encoding: 270 270 25
Width: 638
Flags: MW
HStem: 0 140 1319 135<265 268 268 338 338 360>
VStem: 102 147<147 1307 147 1454> 362 199
LayerCount: 2
UndoRedoHistory
Layer: 1
Undoes
EndUndoes
Redoes
EndRedoes
EndUndoRedoHistory
Fore
SplineSet
283 1579 m 1,0,-1
 131 1804 l 1,1,-1
 190 1843 l 1,2,-1
 324 1716 l 1,3,-1
 457 1843 l 1,4,-1
 516 1804 l 1,5,-1
 365 1573 l 1,6,-1
 283 1579 l 1,0,-1
338 1454 m 2,7,8
 436 1454 436 1454 498.5 1390.5 c 128,-1,9
 561 1327 561 1327 561 1229 c 1,10,-1
 500 117 l 1,11,-1
 375 0 l 1,12,-1
 102 0 l 1,13,-1
 102 1454 l 1,14,-1
 338 1454 l 2,7,8
385 1307 m 2,15,16
 385 1319 385 1319 360 1319 c 2,17,-1
 268 1319 l 2,18,19
 263 1319 263 1319 256.5 1315 c 128,-1,20
 250 1311 250 1311 250 1307 c 2,21,-1
 250 147 l 1,22,-1
 268 135 l 1,23,-1
 344 145 l 1,24,25
 362 157 362 157 362 172 c 2,26,-1
 385 1307 l 2,15,16
EndSplineSet
Validated: 1
Substitution2: "Single Substitution lookup 20 subtable" dcaron
Substitution2: "'aalt' Access All Alternates lookup 0 subtable" dcaron
Position2: "'cpsp' Capital Spacing lookup 0 subtable" dx=10 dy=0 dh=20 dv=0
EndChar

StartChar: Dcroat
Encoding: 272 272 26
Width: 638
Flags: MW
HStem: 0 140 692 116 1319 135<265 268 268 338 338 360>
VStem: 102 147<147 692 147 692 147 692 805 1307> 362 201
LayerCount: 2
UndoRedoHistory
Layer: 1
Undoes
EndUndoes
Redoes
EndRedoes
EndUndoRedoHistory
Fore
SplineSet
102 1454 m 1,0,-1
 338 1454 l 2,1,2
 418 1454 418 1454 490.5 1398 c 128,-1,3
 563 1342 563 1342 563 1262 c 0,4,5
 563 1260 563 1260 562 1247 c 128,-1,6
 561 1234 561 1234 561 1229 c 2,7,-1
 500 117 l 2,8,9
 498 79 498 79 481 53 c 128,-1,10
 464 27 464 27 440.5 17 c 128,-1,11
 417 7 417 7 401.5 3.5 c 128,-1,12
 386 0 386 0 375 0 c 2,13,-1
 102 0 l 1,14,-1
 102 692 l 1,15,-1
 0 692 l 1,16,-1
 -6 811 l 1,17,-1
 102 805 l 1,18,-1
 102 1454 l 1,0,-1
385 1307 m 2,19,20
 385 1319 385 1319 360 1319 c 2,21,-1
 268 1319 l 2,22,23
 263 1319 263 1319 256.5 1315 c 128,-1,24
 250 1311 250 1311 250 1307 c 2,25,-1
 250 797 l 1,26,-1
 322 793 l 1,27,-1
 322 692 l 1,28,-1
 250 692 l 1,29,-1
 250 147 l 1,30,-1
 268 135 l 1,31,-1
 344 145 l 1,32,33
 362 157 362 157 362 172 c 2,34,-1
 385 1307 l 2,19,20
EndSplineSet
Validated: 1
Substitution2: "Single Substitution lookup 20 subtable" dcroat
Substitution2: "'aalt' Access All Alternates lookup 0 subtable" dcroat
Position2: "'cpsp' Capital Spacing lookup 0 subtable" dx=10 dy=0 dh=20 dv=0
EndChar

StartChar: Ddotbelow
Encoding: 7692 7692 27
Width: 638
Flags: MW
HStem: -312 198 0 140 1319 135<265 268 268 338 338 360>
VStem: 102 147<147 1307 147 1454> 201 186 362 199
LayerCount: 2
UndoRedoHistory
Layer: 1
Undoes
EndUndoes
Redoes
EndRedoes
EndUndoRedoHistory
Fore
SplineSet
338 1454 m 2,0,1
 436 1454 436 1454 498.5 1390.5 c 128,-1,2
 561 1327 561 1327 561 1229 c 1,3,-1
 500 117 l 1,4,-1
 375 0 l 1,5,-1
 102 0 l 1,6,-1
 102 1454 l 1,7,-1
 338 1454 l 2,0,1
385 1307 m 2,8,9
 385 1319 385 1319 360 1319 c 2,10,-1
 268 1319 l 2,11,12
 263 1319 263 1319 256.5 1315 c 128,-1,13
 250 1311 250 1311 250 1307 c 2,14,-1
 250 147 l 1,15,-1
 268 135 l 1,16,-1
 344 145 l 1,17,18
 362 157 362 157 362 172 c 2,19,-1
 385 1307 l 2,8,9
387 -115 m 1,20,-1
 387 -309 l 1,21,-1
 205 -315 l 1,22,-1
 197 -115 l 1,23,-1
 387 -115 l 1,20,-1
EndSplineSet
Validated: 1
Substitution2: "Single Substitution lookup 20 subtable" ddotbelow
Substitution2: "'aalt' Access All Alternates lookup 0 subtable" ddotbelow
Position2: "'cpsp' Capital Spacing lookup 0 subtable" dx=10 dy=0 dh=20 dv=0
EndChar

StartChar: E
Encoding: 69 69 28
Width: 647
Flags: MW
HStem: 41 170<274 274 274 575> 770 102<264 487> 1294 160<264 557 264 264>
VStem: 118 157
LayerCount: 2
UndoRedoHistory
Layer: 1
Undoes
EndUndoes
Redoes
EndRedoes
EndUndoRedoHistory
Fore
SplineSet
94 41 m 1,0,-1
 141 1454 l 1,1,-1
 557 1454 l 1,2,-1
 557 1294 l 1,3,-1
 264 1294 l 1,4,-1
 264 872 l 1,5,-1
 487 872 l 1,6,-1
 487 770 l 1,7,-1
 274 733 l 1,8,-1
 274 211 l 1,9,-1
 551 248 l 1,10,-1
 575 41 l 1,11,-1
 94 41 l 1,0,-1
EndSplineSet
Validated: 1
Substitution2: "Single Substitution lookup 21 subtable" e
Substitution2: "'aalt' Access All Alternates lookup 0 subtable" e
Position2: "'cpsp' Capital Spacing lookup 0 subtable" dx=10 dy=0 dh=20 dv=0
EndChar

StartChar: Eacute
Encoding: 201 201 29
Width: 647
Flags: MW
HStem: 41 170<274 274 274 575> 770 102<264 487> 1294 160<264 557 264 264>
VStem: 118 157
LayerCount: 2
UndoRedoHistory
Layer: 1
Undoes
EndUndoes
Redoes
EndRedoes
EndUndoRedoHistory
Fore
SplineSet
498 1745 m 1,0,-1
 301 1573 l 1,1,-1
 231 1622 l 1,2,-1
 403 1843 l 1,3,-1
 498 1745 l 1,0,-1
94 41 m 1,4,-1
 141 1454 l 1,5,-1
 557 1454 l 1,6,-1
 557 1294 l 1,7,-1
 264 1294 l 1,8,-1
 264 872 l 1,9,-1
 487 872 l 1,10,-1
 487 770 l 1,11,-1
 274 733 l 1,12,-1
 274 211 l 1,13,-1
 551 248 l 1,14,-1
 575 41 l 1,15,-1
 94 41 l 1,4,-1
EndSplineSet
Validated: 1
Substitution2: "Single Substitution lookup 21 subtable" eacute
Substitution2: "'aalt' Access All Alternates lookup 0 subtable" eacute
Position2: "'cpsp' Capital Spacing lookup 0 subtable" dx=10 dy=0 dh=20 dv=0
EndChar

StartChar: Ebreve
Encoding: 276 276 30
Width: 647
Flags: MW
HStem: 41 170<274 274 274 575> 770 102<264 487> 1294 160<264 557 264 264> 1608 97 1733 98<246 246>
VStem: 118 157 152 99 493 91
LayerCount: 2
UndoRedoHistory
Layer: 1
Undoes
EndUndoes
Redoes
EndRedoes
EndUndoRedoHistory
Fore
SplineSet
246 1733 m 1,0,-1
 270 1710 l 1,1,-1
 496 1700 l 1,2,-1
 489 1835 l 1,3,-1
 584 1843 l 1,4,-1
 584 1688 l 1,5,-1
 504 1608 l 1,6,-1
 248 1608 l 1,7,-1
 156 1665 l 1,8,-1
 147 1831 l 1,9,-1
 256 1831 l 1,10,-1
 246 1733 l 1,0,-1
94 41 m 1,11,-1
 141 1454 l 1,12,-1
 557 1454 l 1,13,-1
 557 1294 l 1,14,-1
 264 1294 l 1,15,-1
 264 872 l 1,16,-1
 487 872 l 1,17,-1
 487 770 l 1,18,-1
 274 733 l 1,19,-1
 274 211 l 1,20,-1
 551 248 l 1,21,-1
 575 41 l 1,22,-1
 94 41 l 1,11,-1
EndSplineSet
Validated: 1
Substitution2: "Single Substitution lookup 21 subtable" ebreve
Substitution2: "'aalt' Access All Alternates lookup 0 subtable" ebreve
Position2: "'cpsp' Capital Spacing lookup 0 subtable" dx=10 dy=0 dh=20 dv=0
EndChar

StartChar: Ecaron
Encoding: 282 282 31
Width: 647
Flags: MW
HStem: 41 170<274 274 274 575> 770 102<264 487> 1294 160<264 557 264 264>
VStem: 118 157
LayerCount: 2
UndoRedoHistory
Layer: 1
Undoes
EndUndoes
Redoes
EndRedoes
EndUndoRedoHistory
Fore
SplineSet
319 1579 m 1,0,-1
 168 1804 l 1,1,-1
 227 1843 l 1,2,-1
 360 1716 l 1,3,-1
 494 1843 l 1,4,-1
 553 1804 l 1,5,-1
 401 1573 l 1,6,-1
 319 1579 l 1,0,-1
94 41 m 1,7,-1
 141 1454 l 1,8,-1
 557 1454 l 1,9,-1
 557 1294 l 1,10,-1
 264 1294 l 1,11,-1
 264 872 l 1,12,-1
 487 872 l 1,13,-1
 487 770 l 1,14,-1
 274 733 l 1,15,-1
 274 211 l 1,16,-1
 551 248 l 1,17,-1
 575 41 l 1,18,-1
 94 41 l 1,7,-1
EndSplineSet
Validated: 1
Substitution2: "Single Substitution lookup 21 subtable" ecaron
Substitution2: "'aalt' Access All Alternates lookup 0 subtable" ecaron
Position2: "'cpsp' Capital Spacing lookup 0 subtable" dx=10 dy=0 dh=20 dv=0
EndChar

StartChar: Ecircumflex
Encoding: 202 202 32
Width: 647
Flags: MW
HStem: 41 170<274 274 274 575> 770 102<264 487> 1294 160<264 557 264 264>
VStem: 118 157
LayerCount: 2
UndoRedoHistory
Layer: 1
Undoes
EndUndoes
Redoes
EndRedoes
EndUndoRedoHistory
Fore
SplineSet
406 1835 m 1,0,-1
 557 1610 l 1,1,-1
 498 1571 l 1,2,-1
 365 1698 l 1,3,-1
 231 1571 l 1,4,-1
 172 1610 l 1,5,-1
 324 1841 l 1,6,-1
 406 1835 l 1,0,-1
94 41 m 1,7,-1
 141 1454 l 1,8,-1
 557 1454 l 1,9,-1
 557 1294 l 1,10,-1
 264 1294 l 1,11,-1
 264 872 l 1,12,-1
 487 872 l 1,13,-1
 487 770 l 1,14,-1
 274 733 l 1,15,-1
 274 211 l 1,16,-1
 551 248 l 1,17,-1
 575 41 l 1,18,-1
 94 41 l 1,7,-1
EndSplineSet
Validated: 1
Substitution2: "Single Substitution lookup 21 subtable" ecircumflex
Substitution2: "'aalt' Access All Alternates lookup 0 subtable" ecircumflex
Position2: "'cpsp' Capital Spacing lookup 0 subtable" dx=10 dy=0 dh=20 dv=0
EndChar

StartChar: Edieresis
Encoding: 203 203 33
Width: 647
Flags: MW
HStem: 41 170<274 274 274 575> 770 102<264 487> 1294 160<264 557 264 264> 1673 167
VStem: 88 166 118 157 398 159
LayerCount: 2
UndoRedoHistory
Layer: 1
Undoes
EndUndoes
Redoes
EndRedoes
EndUndoRedoHistory
Fore
SplineSet
258 1843 m 1,0,-1
 250 1673 l 1,1,-1
 88 1673 l 1,2,-1
 88 1837 l 1,3,-1
 258 1843 l 1,0,-1
557 1843 m 1,4,-1
 557 1679 l 1,5,-1
 401 1673 l 1,6,-1
 395 1843 l 1,7,-1
 557 1843 l 1,4,-1
94 41 m 1,8,-1
 141 1454 l 1,9,-1
 557 1454 l 1,10,-1
 557 1294 l 1,11,-1
 264 1294 l 1,12,-1
 264 872 l 1,13,-1
 487 872 l 1,14,-1
 487 770 l 1,15,-1
 274 733 l 1,16,-1
 274 211 l 1,17,-1
 551 248 l 1,18,-1
 575 41 l 1,19,-1
 94 41 l 1,8,-1
EndSplineSet
Validated: 1
Substitution2: "Single Substitution lookup 21 subtable" edieresis
Substitution2: "'aalt' Access All Alternates lookup 0 subtable" edieresis
Position2: "'cpsp' Capital Spacing lookup 0 subtable" dx=10 dy=0 dh=20 dv=0
EndChar

StartChar: Edotaccent
Encoding: 278 278 34
Width: 647
Flags: MW
HStem: 41 170<274 274 274 575> 770 102<264 487> 1294 160<264 557 264 264> 1646 198
VStem: 118 157 264 186
LayerCount: 2
UndoRedoHistory
Layer: 1
Undoes
EndUndoes
Redoes
EndRedoes
EndUndoRedoHistory
Fore
SplineSet
451 1843 m 1,0,-1
 451 1649 l 1,1,-1
 268 1642 l 1,2,-1
 260 1843 l 1,3,-1
 451 1843 l 1,0,-1
94 41 m 1,4,-1
 141 1454 l 1,5,-1
 557 1454 l 1,6,-1
 557 1294 l 1,7,-1
 264 1294 l 1,8,-1
 264 872 l 1,9,-1
 487 872 l 1,10,-1
 487 770 l 1,11,-1
 274 733 l 1,12,-1
 274 211 l 1,13,-1
 551 248 l 1,14,-1
 575 41 l 1,15,-1
 94 41 l 1,4,-1
EndSplineSet
Validated: 1
Substitution2: "Single Substitution lookup 21 subtable" edotaccent
Substitution2: "'aalt' Access All Alternates lookup 0 subtable" edotaccent
Position2: "'cpsp' Capital Spacing lookup 0 subtable" dx=10 dy=0 dh=20 dv=0
EndChar

StartChar: Edotbelow
Encoding: 7864 7864 35
Width: 647
Flags: MW
HStem: -312 198 41 170<274 274 274 575> 770 102<264 487> 1294 160<264 557 264 264>
VStem: 118 157 236 186
LayerCount: 2
UndoRedoHistory
Layer: 1
Undoes
EndUndoes
Redoes
EndRedoes
EndUndoRedoHistory
Fore
SplineSet
94 41 m 1,0,-1
 141 1454 l 1,1,-1
 557 1454 l 1,2,-1
 557 1294 l 1,3,-1
 264 1294 l 1,4,-1
 264 872 l 1,5,-1
 487 872 l 1,6,-1
 487 770 l 1,7,-1
 274 733 l 1,8,-1
 274 211 l 1,9,-1
 551 248 l 1,10,-1
 575 41 l 1,11,-1
 94 41 l 1,0,-1
422 -115 m 1,12,-1
 422 -309 l 1,13,-1
 240 -315 l 1,14,-1
 231 -115 l 1,15,-1
 422 -115 l 1,12,-1
EndSplineSet
Validated: 1
Substitution2: "Single Substitution lookup 21 subtable" edotbelow
Substitution2: "'aalt' Access All Alternates lookup 0 subtable" edotbelow
Position2: "'cpsp' Capital Spacing lookup 0 subtable" dx=10 dy=0 dh=20 dv=0
EndChar

StartChar: Egrave
Encoding: 200 200 36
Width: 647
Flags: MW
HStem: 41 170<274 274 274 575> 770 102<264 487> 1294 160<264 557 264 264>
VStem: 118 157
LayerCount: 2
UndoRedoHistory
Layer: 1
Undoes
EndUndoes
Redoes
EndRedoes
EndUndoRedoHistory
Fore
SplineSet
408 1571 m 1,0,-1
 211 1743 l 1,1,-1
 305 1841 l 1,2,-1
 477 1620 l 1,3,-1
 408 1571 l 1,0,-1
94 41 m 1,4,-1
 141 1454 l 1,5,-1
 557 1454 l 1,6,-1
 557 1294 l 1,7,-1
 264 1294 l 1,8,-1
 264 872 l 1,9,-1
 487 872 l 1,10,-1
 487 770 l 1,11,-1
 274 733 l 1,12,-1
 274 211 l 1,13,-1
 551 248 l 1,14,-1
 575 41 l 1,15,-1
 94 41 l 1,4,-1
EndSplineSet
Validated: 1
Substitution2: "Single Substitution lookup 21 subtable" egrave
Substitution2: "'aalt' Access All Alternates lookup 0 subtable" egrave
Position2: "'cpsp' Capital Spacing lookup 0 subtable" dx=10 dy=0 dh=20 dv=0
EndChar

StartChar: Emacron
Encoding: 274 274 37
Width: 647
Flags: MW
HStem: 41 170<274 274 274 575> 770 102<264 487> 1294 160<264 557 264 264> 1703 122
VStem: 118 157
LayerCount: 2
UndoRedoHistory
Layer: 1
Undoes
EndUndoes
Redoes
EndRedoes
EndUndoRedoHistory
Fore
SplineSet
627 1712 m 1,0,-1
 84 1694 l 1,1,-1
 78 1825 l 1,2,-1
 627 1825 l 1,3,-1
 627 1712 l 1,0,-1
94 41 m 1,4,-1
 141 1454 l 1,5,-1
 557 1454 l 1,6,-1
 557 1294 l 1,7,-1
 264 1294 l 1,8,-1
 264 872 l 1,9,-1
 487 872 l 1,10,-1
 487 770 l 1,11,-1
 274 733 l 1,12,-1
 274 211 l 1,13,-1
 551 248 l 1,14,-1
 575 41 l 1,15,-1
 94 41 l 1,4,-1
EndSplineSet
Validated: 1
Substitution2: "Single Substitution lookup 21 subtable" emacron
Substitution2: "'aalt' Access All Alternates lookup 0 subtable" emacron
Position2: "'cpsp' Capital Spacing lookup 0 subtable" dx=10 dy=0 dh=20 dv=0
EndChar

StartChar: Eogonek
Encoding: 280 280 38
Width: 647
Flags: MW
HStem: 770 102<264 487> 1294 160<264 557 264 264>
VStem: 118 157 252 61<41 41>
LayerCount: 2
UndoRedoHistory
Layer: 1
Undoes
EndUndoes
Redoes
EndRedoes
EndUndoRedoHistory
Fore
SplineSet
313 41 m 1,0,-1
 313 0 l 1,1,-1
 260 -170 l 1,2,-1
 330 -297 l 1,3,-1
 512 -205 l 1,4,-1
 545 -299 l 1,5,-1
 313 -428 l 1,6,-1
 133 -195 l 1,7,-1
 252 41 l 1,8,-1
 94 41 l 1,9,-1
 141 1454 l 1,10,-1
 557 1454 l 1,11,-1
 557 1294 l 1,12,-1
 264 1294 l 1,13,-1
 264 872 l 1,14,-1
 487 872 l 1,15,-1
 487 770 l 1,16,-1
 274 733 l 1,17,-1
 274 211 l 1,18,-1
 551 248 l 1,19,-1
 575 41 l 1,20,-1
 313 41 l 1,0,-1
EndSplineSet
Validated: 1
Substitution2: "Single Substitution lookup 21 subtable" eogonek
Substitution2: "'aalt' Access All Alternates lookup 0 subtable" eogonek
Position2: "'cpsp' Capital Spacing lookup 0 subtable" dx=10 dy=0 dh=20 dv=0
EndChar

StartChar: Etilde
Encoding: 7868 7868 39
Width: 647
Flags: MW
HStem: 41 170<274 274 274 575> 770 102<264 487> 1294 160<264 557 264 264>
VStem: 118 157 132 464
LayerCount: 2
UndoRedoHistory
Layer: 1
Undoes
EndUndoes
Redoes
EndRedoes
EndUndoRedoHistory
Fore
SplineSet
182 1808 m 1,0,1
 219 1837 219 1837 260 1837 c 0,2,3
 312 1837 312 1837 371 1796 c 1,4,-1
 449 1745 l 1,5,-1
 596 1843 l 1,6,-1
 596 1720 l 1,7,-1
 547 1673 l 1,8,9
 496 1626 496 1626 457 1626 c 0,10,11
 420 1626 420 1626 365 1665 c 2,12,-1
 274 1729 l 1,13,-1
 135 1620 l 1,14,-1
 129 1761 l 1,15,-1
 182 1808 l 1,0,1
94 41 m 1,16,-1
 141 1454 l 1,17,-1
 557 1454 l 1,18,-1
 557 1294 l 1,19,-1
 264 1294 l 1,20,-1
 264 872 l 1,21,-1
 487 872 l 1,22,-1
 487 770 l 1,23,-1
 274 733 l 1,24,-1
 274 211 l 1,25,-1
 551 248 l 1,26,-1
 575 41 l 1,27,-1
 94 41 l 1,16,-1
EndSplineSet
Validated: 1
Substitution2: "Single Substitution lookup 21 subtable" etilde
Substitution2: "'aalt' Access All Alternates lookup 0 subtable" etilde
Position2: "'cpsp' Capital Spacing lookup 0 subtable" dx=10 dy=0 dh=20 dv=0
EndChar

StartChar: F
Encoding: 70 70 40
Width: 575
Flags: MW
HStem: 0 43G<92 272 92 92> 764 102<262 485> 1274 180<262 514 262 262>
VStem: 116 157
LayerCount: 2
UndoRedoHistory
Layer: 1
Undoes
EndUndoes
Redoes
EndRedoes
EndUndoRedoHistory
Fore
SplineSet
139 1454 m 1,0,-1
 514 1454 l 1,1,-1
 514 1274 l 1,2,-1
 262 1274 l 1,3,-1
 262 866 l 1,4,-1
 485 866 l 1,5,-1
 485 764 l 1,6,-1
 272 727 l 1,7,-1
 272 0 l 1,8,-1
 92 0 l 1,9,-1
 139 1454 l 1,0,-1
EndSplineSet
Validated: 1
Substitution2: "Single Substitution lookup 20 subtable" f
Substitution2: "'aalt' Access All Alternates lookup 0 subtable" f
Position2: "'cpsp' Capital Spacing lookup 0 subtable" dx=10 dy=0 dh=20 dv=0
EndChar

StartChar: G
Encoding: 71 71 41
Width: 772
Flags: MW
HStem: 41 147<181 469 319 469 469 477 319 639> 612 130 1333 121<296 326 326 463>
VStem: 102 174<216 225 216 1343> 510 129<205 213> 524 88<1149 1454>
LayerCount: 2
UndoRedoHistory
Layer: 1
Undoes
EndUndoes
Redoes
EndRedoes
EndUndoRedoHistory
Fore
SplineSet
209 41 m 2,0,1
 165 41 165 41 133.5 82.5 c 128,-1,2
 102 124 102 124 102 199 c 2,3,-1
 102 1343 l 1,4,-1
 176 1454 l 1,5,-1
 612 1454 l 1,6,-1
 612 1149 l 1,7,-1
 524 1149 l 1,8,-1
 463 1333 l 1,9,-1
 326 1333 l 2,10,11
 243 1333 243 1333 240 1241 c 1,12,-1
 276 225 l 2,13,14
 276 212 276 212 290.5 200 c 128,-1,15
 305 188 305 188 319 188 c 2,16,-1
 469 188 l 2,17,18
 483 188 483 188 496.5 195 c 128,-1,19
 510 202 510 202 510 213 c 2,20,-1
 530 610 l 1,21,-1
 408 614 l 1,22,-1
 408 729 l 1,23,-1
 639 756 l 1,24,-1
 639 41 l 1,25,-1
 209 41 l 2,0,1
EndSplineSet
Validated: 1
Substitution2: "Single Substitution lookup 20 subtable" g
Substitution2: "'aalt' Access All Alternates lookup 0 subtable" g
Position2: "'cpsp' Capital Spacing lookup 0 subtable" dx=10 dy=0 dh=20 dv=0
EndChar

StartChar: Gbreve
Encoding: 286 286 42
Width: 772
Flags: MW
HStem: 41 147<181 469 319 469 469 477 319 639> 612 130 1333 121<296 326 326 463> 1608 97 1733 98<272 272>
VStem: 102 174<216 225 216 1343> 178 99 510 129<205 213> 519 91
LayerCount: 2
UndoRedoHistory
Layer: 1
Undoes
EndUndoes
Redoes
EndRedoes
EndUndoRedoHistory
Fore
SplineSet
272 1733 m 1,0,-1
 297 1710 l 1,1,-1
 522 1700 l 1,2,-1
 516 1835 l 1,3,-1
 610 1843 l 1,4,-1
 610 1688 l 1,5,-1
 530 1608 l 1,6,-1
 274 1608 l 1,7,-1
 182 1665 l 1,8,-1
 174 1831 l 1,9,-1
 283 1831 l 1,10,-1
 272 1733 l 1,0,-1
209 41 m 2,11,12
 165 41 165 41 133.5 82.5 c 128,-1,13
 102 124 102 124 102 199 c 2,14,-1
 102 1343 l 1,15,-1
 176 1454 l 1,16,-1
 612 1454 l 1,17,-1
 612 1149 l 1,18,-1
 524 1149 l 1,19,-1
 463 1333 l 1,20,-1
 326 1333 l 2,21,22
 243 1333 243 1333 240 1241 c 1,23,-1
 276 225 l 2,24,25
 276 212 276 212 290.5 200 c 128,-1,26
 305 188 305 188 319 188 c 2,27,-1
 469 188 l 2,28,29
 483 188 483 188 496.5 195 c 128,-1,30
 510 202 510 202 510 213 c 2,31,-1
 530 610 l 1,32,-1
 408 614 l 1,33,-1
 408 729 l 1,34,-1
 639 756 l 1,35,-1
 639 41 l 1,36,-1
 209 41 l 2,11,12
EndSplineSet
Validated: 1
Substitution2: "Single Substitution lookup 20 subtable" gbreve
Substitution2: "'aalt' Access All Alternates lookup 0 subtable" gbreve
Position2: "'cpsp' Capital Spacing lookup 0 subtable" dx=10 dy=0 dh=20 dv=0
EndChar

StartChar: Gcircumflex
Encoding: 284 284 43
Width: 772
Flags: MW
HStem: 41 147<181 469 319 469 469 477 319 639> 612 130 1333 121<296 326 326 463>
VStem: 102 174<216 225 216 1343> 510 129<205 213> 524 88<1149 1454>
LayerCount: 2
UndoRedoHistory
Layer: 1
Undoes
EndUndoes
Redoes
EndRedoes
EndUndoRedoHistory
Fore
SplineSet
428 1837 m 1,0,-1
 580 1612 l 1,1,-1
 520 1573 l 1,2,-1
 387 1700 l 1,3,-1
 254 1573 l 1,4,-1
 195 1612 l 1,5,-1
 346 1843 l 1,6,-1
 428 1837 l 1,0,-1
209 41 m 2,7,8
 165 41 165 41 133.5 82.5 c 128,-1,9
 102 124 102 124 102 199 c 2,10,-1
 102 1343 l 1,11,-1
 176 1454 l 1,12,-1
 612 1454 l 1,13,-1
 612 1149 l 1,14,-1
 524 1149 l 1,15,-1
 463 1333 l 1,16,-1
 326 1333 l 2,17,18
 243 1333 243 1333 240 1241 c 1,19,-1
 276 225 l 2,20,21
 276 212 276 212 290.5 200 c 128,-1,22
 305 188 305 188 319 188 c 2,23,-1
 469 188 l 2,24,25
 483 188 483 188 496.5 195 c 128,-1,26
 510 202 510 202 510 213 c 2,27,-1
 530 610 l 1,28,-1
 408 614 l 1,29,-1
 408 729 l 1,30,-1
 639 756 l 1,31,-1
 639 41 l 1,32,-1
 209 41 l 2,7,8
EndSplineSet
Validated: 1
Substitution2: "Single Substitution lookup 20 subtable" gcircumflex
Substitution2: "'aalt' Access All Alternates lookup 0 subtable" gcircumflex
Position2: "'cpsp' Capital Spacing lookup 0 subtable" dx=10 dy=0 dh=20 dv=0
EndChar

StartChar: Gcommaaccent
Encoding: 290 290 44
Width: 772
Flags: MW
HStem: -512 43G<408 408> -328 168<303 389 303 469 303 475> 41 147<181 469 319 469 469 477 319 639> 612 130 1333 121<296 326 326 463>
VStem: 102 174<216 225 216 1343> 303 169 510 129<205 213> 524 88<1149 1454>
LayerCount: 2
UndoRedoHistory
Layer: 1
Undoes
EndUndoes
Redoes
EndRedoes
EndUndoRedoHistory
Fore
SplineSet
209 41 m 2,0,1
 165 41 165 41 133.5 82.5 c 128,-1,2
 102 124 102 124 102 199 c 2,3,-1
 102 1343 l 1,4,-1
 176 1454 l 1,5,-1
 612 1454 l 1,6,-1
 612 1149 l 1,7,-1
 524 1149 l 1,8,-1
 463 1333 l 1,9,-1
 326 1333 l 2,10,11
 243 1333 243 1333 240 1241 c 1,12,-1
 276 225 l 2,13,14
 276 212 276 212 290.5 200 c 128,-1,15
 305 188 305 188 319 188 c 2,16,-1
 469 188 l 2,17,18
 483 188 483 188 496.5 195 c 128,-1,19
 510 202 510 202 510 213 c 2,20,-1
 530 610 l 1,21,-1
 408 614 l 1,22,-1
 408 729 l 1,23,-1
 639 756 l 1,24,-1
 639 41 l 1,25,-1
 209 41 l 2,0,1
469 -160 m 1,26,-1
 475 -328 l 1,27,-1
 408 -512 l 1,28,-1
 295 -479 l 1,29,-1
 389 -328 l 1,30,-1
 303 -328 l 1,31,-1
 303 -160 l 1,32,-1
 469 -160 l 1,26,-1
EndSplineSet
Validated: 1
Substitution2: "Single Substitution lookup 20 subtable" gcommaaccent
Substitution2: "'aalt' Access All Alternates lookup 0 subtable" gcommaaccent
Position2: "'cpsp' Capital Spacing lookup 0 subtable" dx=10 dy=0 dh=20 dv=0
EndChar

StartChar: Gdotaccent
Encoding: 288 288 45
Width: 772
Flags: MW
HStem: 41 147<181 469 319 469 469 477 319 639> 612 130 1333 121<296 326 326 463> 1646 198
VStem: 102 174<216 225 216 1343> 297 186 510 129<205 213> 524 88<1149 1454>
LayerCount: 2
UndoRedoHistory
Layer: 1
Undoes
EndUndoes
Redoes
EndRedoes
EndUndoRedoHistory
Fore
SplineSet
483 1843 m 1,0,-1
 483 1649 l 1,1,-1
 301 1642 l 1,2,-1
 293 1843 l 1,3,-1
 483 1843 l 1,0,-1
209 41 m 2,4,5
 165 41 165 41 133.5 82.5 c 128,-1,6
 102 124 102 124 102 199 c 2,7,-1
 102 1343 l 1,8,-1
 176 1454 l 1,9,-1
 612 1454 l 1,10,-1
 612 1149 l 1,11,-1
 524 1149 l 1,12,-1
 463 1333 l 1,13,-1
 326 1333 l 2,14,15
 243 1333 243 1333 240 1241 c 1,16,-1
 276 225 l 2,17,18
 276 212 276 212 290.5 200 c 128,-1,19
 305 188 305 188 319 188 c 2,20,-1
 469 188 l 2,21,22
 483 188 483 188 496.5 195 c 128,-1,23
 510 202 510 202 510 213 c 2,24,-1
 530 610 l 1,25,-1
 408 614 l 1,26,-1
 408 729 l 1,27,-1
 639 756 l 1,28,-1
 639 41 l 1,29,-1
 209 41 l 2,4,5
EndSplineSet
Validated: 1
Substitution2: "Single Substitution lookup 20 subtable" gdotaccent
Substitution2: "'aalt' Access All Alternates lookup 0 subtable" gdotaccent
Position2: "'cpsp' Capital Spacing lookup 0 subtable" dx=10 dy=0 dh=20 dv=0
EndChar

StartChar: H
Encoding: 72 72 46
Width: 665
Flags: MW
HStem: 0 43G<123 266 123 123> 1278 135<541 541> 1413 41G
VStem: 99 142 393 169
LayerCount: 2
UndoRedoHistory
Layer: 1
Undoes
EndUndoes
Redoes
EndRedoes
EndUndoRedoHistory
Fore
SplineSet
244 649 m 1,0,-1
 266 0 l 1,1,-1
 123 0 l 1,2,-1
 76 1454 l 1,3,-1
 242 1454 l 1,4,-1
 242 788 l 1,5,-1
 393 819 l 1,6,-1
 393 1413 l 1,7,-1
 571 1413 l 1,8,-1
 571 1327 l 1,9,-1
 541 1278 l 1,10,-1
 584 -41 l 1,11,-1
 451 -41 l 1,12,-1
 408 668 l 1,13,-1
 244 649 l 1,0,-1
EndSplineSet
Validated: 1
Substitution2: "Single Substitution lookup 20 subtable" h
Substitution2: "'aalt' Access All Alternates lookup 0 subtable" h
Position2: "'cpsp' Capital Spacing lookup 0 subtable" dx=10 dy=0 dh=20 dv=0
EndChar

StartChar: Hbar
Encoding: 294 294 47
Width: 665
Flags: MW
HStem: 0 43G<133 276 133 133> 1061 106 1278 135<551 551> 1413 41G
VStem: 90 162 116 150 403 150 439 136
LayerCount: 2
UndoRedoHistory
Layer: 1
Undoes
EndUndoes
Redoes
EndRedoes
EndUndoRedoHistory
Fore
SplineSet
254 649 m 1,0,-1
 276 0 l 1,1,-1
 133 0 l 1,2,-1
 98 1051 l 1,3,-1
 6 1051 l 1,4,-1
 0 1167 l 1,5,-1
 94 1167 l 1,6,-1
 86 1454 l 1,7,-1
 252 1454 l 1,8,-1
 252 1167 l 1,9,-1
 403 1167 l 1,10,-1
 403 1413 l 1,11,-1
 582 1413 l 1,12,-1
 582 1327 l 1,13,-1
 551 1278 l 1,14,-1
 555 1167 l 1,15,-1
 666 1167 l 1,16,-1
 666 1073 l 1,17,-1
 557 1069 l 1,18,-1
 594 -41 l 1,19,-1
 461 -41 l 1,20,-1
 418 668 l 1,21,-1
 254 649 l 1,0,-1
403 1063 m 1,22,-1
 252 1059 l 1,23,-1
 252 788 l 1,24,-1
 403 819 l 1,25,-1
 403 1063 l 1,22,-1
EndSplineSet
Validated: 1
Substitution2: "Single Substitution lookup 20 subtable" hbar
Substitution2: "'aalt' Access All Alternates lookup 0 subtable" hbar
Position2: "'cpsp' Capital Spacing lookup 0 subtable" dx=10 dy=0 dh=20 dv=0
EndChar

StartChar: Hcircumflex
Encoding: 292 292 48
Width: 665
Flags: MW
HStem: 0 43G<123 266 123 123> 1278 135<541 541> 1413 41G
VStem: 99 142 393 169
LayerCount: 2
UndoRedoHistory
Layer: 1
Undoes
EndUndoes
Redoes
EndRedoes
EndUndoRedoHistory
Fore
SplineSet
362 1837 m 1,0,-1
 514 1612 l 1,1,-1
 455 1573 l 1,2,-1
 322 1700 l 1,3,-1
 188 1573 l 1,4,-1
 129 1612 l 1,5,-1
 281 1843 l 1,6,-1
 362 1837 l 1,0,-1
244 649 m 1,7,-1
 266 0 l 1,8,-1
 123 0 l 1,9,-1
 76 1454 l 1,10,-1
 242 1454 l 1,11,-1
 242 788 l 1,12,-1
 393 819 l 1,13,-1
 393 1413 l 1,14,-1
 571 1413 l 1,15,-1
 571 1327 l 1,16,-1
 541 1278 l 1,17,-1
 584 -41 l 1,18,-1
 451 -41 l 1,19,-1
 408 668 l 1,20,-1
 244 649 l 1,7,-1
EndSplineSet
Validated: 1
Substitution2: "Single Substitution lookup 20 subtable" hcircumflex
Substitution2: "'aalt' Access All Alternates lookup 0 subtable" hcircumflex
Position2: "'cpsp' Capital Spacing lookup 0 subtable" dx=10 dy=0 dh=20 dv=0
EndChar

StartChar: Hdotbelow
Encoding: 7716 7716 49
Width: 665
Flags: MW
HStem: -312 198 0 43G<123 266 123 123> 1278 135<541 541> 1413 41G
VStem: 99 142 246 186 393 169
LayerCount: 2
UndoRedoHistory
Layer: 1
Undoes
EndUndoes
Redoes
EndRedoes
EndUndoRedoHistory
Fore
SplineSet
244 649 m 1,0,-1
 266 0 l 1,1,-1
 123 0 l 1,2,-1
 76 1454 l 1,3,-1
 242 1454 l 1,4,-1
 242 788 l 1,5,-1
 393 819 l 1,6,-1
 393 1413 l 1,7,-1
 571 1413 l 1,8,-1
 571 1327 l 1,9,-1
 541 1278 l 1,10,-1
 584 -41 l 1,11,-1
 451 -41 l 1,12,-1
 408 668 l 1,13,-1
 244 649 l 1,0,-1
432 -115 m 1,14,-1
 432 -309 l 1,15,-1
 250 -315 l 1,16,-1
 242 -115 l 1,17,-1
 432 -115 l 1,14,-1
EndSplineSet
Validated: 1
Substitution2: "Single Substitution lookup 20 subtable" hdotbelow
Substitution2: "'aalt' Access All Alternates lookup 0 subtable" hdotbelow
Position2: "'cpsp' Capital Spacing lookup 0 subtable" dx=10 dy=0 dh=20 dv=0
EndChar

StartChar: I
Encoding: 73 73 50
Width: 364
Flags: MW
HStem: 0 43G<102 102 102 254> 1413 41G<66 272 272 272>
VStem: 102 161
LayerCount: 2
UndoRedoHistory
Layer: 1
Undoes
EndUndoes
Redoes
EndRedoes
EndUndoRedoHistory
Fore
SplineSet
102 0 m 1,0,-1
 102 1262 l 1,1,-1
 66 1360 l 1,2,-1
 66 1454 l 1,3,-1
 272 1454 l 1,4,-1
 254 0 l 1,5,-1
 102 0 l 1,0,-1
EndSplineSet
Validated: 1
Substitution2: "Single Substitution lookup 21 subtable" i
AlternateSubs2: "'aalt' Access All Alternates lookup 1 subtable" i
Position2: "'cpsp' Capital Spacing lookup 0 subtable" dx=10 dy=0 dh=20 dv=0
EndChar

StartChar: IJ
Encoding: 306 306 51
Width: 929
Flags: MW
HStem: 0 43G<102 102 102 254 449 819 819 819> 1413 41G<66 272 272 272 641 838 641 641>
VStem: 102 161 542 136
LayerCount: 2
UndoRedoHistory
Layer: 1
Undoes
EndUndoes
Redoes
EndRedoes
EndUndoRedoHistory
Fore
SplineSet
102 0 m 1,0,-1
 102 1262 l 1,1,-1
 66 1360 l 1,2,-1
 66 1454 l 1,3,-1
 272 1454 l 1,4,-1
 254 0 l 1,5,-1
 102 0 l 1,0,-1
641 1454 m 1,6,-1
 838 1454 l 1,7,-1
 819 0 l 1,8,-1
 449 0 l 1,9,-1
 375 352 l 1,10,-1
 537 393 l 1,11,-1
 547 111 l 1,12,-1
 678 100 l 1,13,-1
 678 1262 l 1,14,-1
 641 1360 l 1,15,-1
 641 1454 l 1,6,-1
EndSplineSet
Validated: 1
Substitution2: "Single Substitution lookup 21 subtable" ij
Substitution2: "'aalt' Access All Alternates lookup 0 subtable" ij
Position2: "'cpsp' Capital Spacing lookup 0 subtable" dx=10 dy=0 dh=20 dv=0
EndChar

StartChar: Iacute
Encoding: 205 205 52
Width: 364
Flags: MW
HStem: 0 43G<102 102 102 254> 1413 41G<66 272 272 272>
VStem: 102 161
LayerCount: 2
UndoRedoHistory
Layer: 1
Undoes
EndUndoes
Redoes
EndRedoes
EndUndoRedoHistory
Fore
SplineSet
315 1745 m 1,0,-1
 119 1573 l 1,1,-1
 49 1622 l 1,2,-1
 221 1843 l 1,3,-1
 315 1745 l 1,0,-1
102 0 m 1,4,-1
 102 1262 l 1,5,-1
 66 1360 l 1,6,-1
 66 1454 l 1,7,-1
 272 1454 l 1,8,-1
 254 0 l 1,9,-1
 102 0 l 1,4,-1
EndSplineSet
Validated: 1
Substitution2: "Single Substitution lookup 21 subtable" iacute
Substitution2: "'aalt' Access All Alternates lookup 0 subtable" iacute
Position2: "'cpsp' Capital Spacing lookup 0 subtable" dx=10 dy=0 dh=20 dv=0
EndChar

StartChar: Ibreve
Encoding: 300 300 53
Width: 364
Flags: MW
HStem: 0 43G<102 102 102 254> 1413 41G<66 272 272 272> 1608 97 1733 98<61 61>
VStem: -33 99 102 161 308 91
LayerCount: 2
UndoRedoHistory
Layer: 1
Undoes
EndUndoes
Redoes
EndRedoes
EndUndoRedoHistory
Fore
SplineSet
61 1733 m 1,0,-1
 86 1710 l 1,1,-1
 311 1700 l 1,2,-1
 305 1835 l 1,3,-1
 399 1843 l 1,4,-1
 399 1688 l 1,5,-1
 319 1608 l 1,6,-1
 63 1608 l 1,7,-1
 -29 1665 l 1,8,-1
 -37 1831 l 1,9,-1
 72 1831 l 1,10,-1
 61 1733 l 1,0,-1
102 0 m 1,11,-1
 102 1262 l 1,12,-1
 66 1360 l 1,13,-1
 66 1454 l 1,14,-1
 272 1454 l 1,15,-1
 254 0 l 1,16,-1
 102 0 l 1,11,-1
EndSplineSet
Validated: 1
Substitution2: "Single Substitution lookup 21 subtable" ibreve
Substitution2: "'aalt' Access All Alternates lookup 0 subtable" ibreve
Position2: "'cpsp' Capital Spacing lookup 0 subtable" dx=10 dy=0 dh=20 dv=0
EndChar

StartChar: Icircumflex
Encoding: 206 206 54
Width: 364
Flags: MW
HStem: 0 43G<102 102 102 254> 1413 41G<66 272 272 272>
VStem: 102 161
LayerCount: 2
UndoRedoHistory
Layer: 1
Undoes
EndUndoes
Redoes
EndRedoes
EndUndoRedoHistory
Fore
SplineSet
223 1835 m 1,0,-1
 375 1610 l 1,1,-1
 315 1571 l 1,2,-1
 182 1698 l 1,3,-1
 49 1571 l 1,4,-1
 -10 1610 l 1,5,-1
 141 1841 l 1,6,-1
 223 1835 l 1,0,-1
102 0 m 1,7,-1
 102 1262 l 1,8,-1
 66 1360 l 1,9,-1
 66 1454 l 1,10,-1
 272 1454 l 1,11,-1
 254 0 l 1,12,-1
 102 0 l 1,7,-1
EndSplineSet
Validated: 1
Substitution2: "Single Substitution lookup 21 subtable" icircumflex
Substitution2: "'aalt' Access All Alternates lookup 0 subtable" icircumflex
Position2: "'cpsp' Capital Spacing lookup 0 subtable" dx=10 dy=0 dh=20 dv=0
EndChar

StartChar: Idieresis
Encoding: 207 207 55
Width: 364
Flags: MW
HStem: 0 43G<102 102 102 254> 1413 41G<66 272 272 272> 1673 167
VStem: -51 166 102 161 259 159
LayerCount: 2
UndoRedoHistory
Layer: 1
Undoes
EndUndoes
Redoes
EndRedoes
EndUndoRedoHistory
Fore
SplineSet
119 1843 m 1,0,-1
 111 1673 l 1,1,-1
 -51 1673 l 1,2,-1
 -51 1837 l 1,3,-1
 119 1843 l 1,0,-1
418 1843 m 1,4,-1
 418 1679 l 1,5,-1
 262 1673 l 1,6,-1
 256 1843 l 1,7,-1
 418 1843 l 1,4,-1
102 0 m 1,8,-1
 102 1262 l 1,9,-1
 66 1360 l 1,10,-1
 66 1454 l 1,11,-1
 272 1454 l 1,12,-1
 254 0 l 1,13,-1
 102 0 l 1,8,-1
EndSplineSet
Validated: 1
Substitution2: "Single Substitution lookup 21 subtable" idieresis
Substitution2: "'aalt' Access All Alternates lookup 0 subtable" idieresis
Position2: "'cpsp' Capital Spacing lookup 0 subtable" dx=10 dy=0 dh=20 dv=0
EndChar

StartChar: Idotaccent
Encoding: 304 304 56
Width: 364
Flags: MW
HStem: 0 43G<102 102 102 254> 1413 41G<66 272 272 272> 1646 198
VStem: 96 186 102 161
LayerCount: 2
UndoRedoHistory
Layer: 1
Undoes
EndUndoes
Redoes
EndRedoes
EndUndoRedoHistory
Fore
SplineSet
283 1843 m 1,0,-1
 283 1649 l 1,1,-1
 100 1642 l 1,2,-1
 92 1843 l 1,3,-1
 283 1843 l 1,0,-1
102 0 m 1,4,-1
 102 1262 l 1,5,-1
 66 1360 l 1,6,-1
 66 1454 l 1,7,-1
 272 1454 l 1,8,-1
 254 0 l 1,9,-1
 102 0 l 1,4,-1
EndSplineSet
Validated: 1
Substitution2: "Single Substitution lookup 21 subtable" i.loclTRK
Substitution2: "'aalt' Access All Alternates lookup 0 subtable" i.loclTRK
Position2: "'cpsp' Capital Spacing lookup 0 subtable" dx=10 dy=0 dh=20 dv=0
EndChar

StartChar: Idotbelow
Encoding: 7882 7882 57
Width: 364
Flags: MW
HStem: -312 198 0 43G<102 102 102 254> 1413 41G<66 272 272 272>
VStem: 86 186 102 161
LayerCount: 2
UndoRedoHistory
Layer: 1
Undoes
EndUndoes
Redoes
EndRedoes
EndUndoRedoHistory
Fore
SplineSet
102 0 m 1,0,-1
 102 1262 l 1,1,-1
 66 1360 l 1,2,-1
 66 1454 l 1,3,-1
 272 1454 l 1,4,-1
 254 0 l 1,5,-1
 102 0 l 1,0,-1
272 -115 m 1,6,-1
 272 -309 l 1,7,-1
 90 -315 l 1,8,-1
 82 -115 l 1,9,-1
 272 -115 l 1,6,-1
EndSplineSet
Validated: 1
Substitution2: "Single Substitution lookup 21 subtable" idotbelow
Substitution2: "'aalt' Access All Alternates lookup 0 subtable" idotbelow
Position2: "'cpsp' Capital Spacing lookup 0 subtable" dx=10 dy=0 dh=20 dv=0
EndChar

StartChar: Igrave
Encoding: 204 204 58
Width: 364
Flags: MW
HStem: 0 43G<102 102 102 254> 1413 41G<66 272 272 272>
VStem: 102 161
LayerCount: 2
UndoRedoHistory
Layer: 1
Undoes
EndUndoes
Redoes
EndRedoes
EndUndoRedoHistory
Fore
SplineSet
225 1573 m 1,0,-1
 29 1745 l 1,1,-1
 123 1843 l 1,2,-1
 295 1622 l 1,3,-1
 225 1573 l 1,0,-1
102 0 m 1,4,-1
 102 1262 l 1,5,-1
 66 1360 l 1,6,-1
 66 1454 l 1,7,-1
 272 1454 l 1,8,-1
 254 0 l 1,9,-1
 102 0 l 1,4,-1
EndSplineSet
Validated: 1
Substitution2: "Single Substitution lookup 21 subtable" igrave
Substitution2: "'aalt' Access All Alternates lookup 0 subtable" igrave
Position2: "'cpsp' Capital Spacing lookup 0 subtable" dx=10 dy=0 dh=20 dv=0
EndChar

StartChar: Imacron
Encoding: 298 298 59
Width: 364
Flags: MW
HStem: 0 43G<102 102 102 254> 1413 41G<66 272 272 272> 1703 122
VStem: 102 161
LayerCount: 2
UndoRedoHistory
Layer: 1
Undoes
EndUndoes
Redoes
EndRedoes
EndUndoRedoHistory
Fore
SplineSet
449 1712 m 1,0,-1
 -94 1694 l 1,1,-1
 -100 1825 l 1,2,-1
 449 1825 l 1,3,-1
 449 1712 l 1,0,-1
102 0 m 1,4,-1
 102 1262 l 1,5,-1
 66 1360 l 1,6,-1
 66 1454 l 1,7,-1
 272 1454 l 1,8,-1
 254 0 l 1,9,-1
 102 0 l 1,4,-1
EndSplineSet
Validated: 1
Substitution2: "Single Substitution lookup 21 subtable" imacron
Substitution2: "'aalt' Access All Alternates lookup 0 subtable" imacron
Position2: "'cpsp' Capital Spacing lookup 0 subtable" dx=10 dy=0 dh=20 dv=0
EndChar

StartChar: Iogonek
Encoding: 302 302 60
Width: 364
Flags: MW
HStem: 0 43G<102 170 102 102 252 254 252 252> 1413 41G<66 272 272 272>
VStem: 102 161
LayerCount: 2
UndoRedoHistory
Layer: 1
Undoes
EndUndoes
Redoes
EndRedoes
EndUndoRedoHistory
Fore
SplineSet
252 0 m 1,0,-1
 199 -170 l 1,1,-1
 268 -297 l 1,2,-1
 451 -205 l 1,3,-1
 483 -299 l 1,4,-1
 252 -428 l 1,5,-1
 72 -195 l 1,6,-1
 170 0 l 1,7,-1
 102 0 l 1,8,-1
 102 1262 l 1,9,-1
 66 1360 l 1,10,-1
 66 1454 l 1,11,-1
 272 1454 l 1,12,-1
 254 0 l 1,13,-1
 252 0 l 1,0,-1
EndSplineSet
Validated: 1
Substitution2: "Single Substitution lookup 21 subtable" iogonek
Substitution2: "'aalt' Access All Alternates lookup 0 subtable" iogonek
Position2: "'cpsp' Capital Spacing lookup 0 subtable" dx=10 dy=0 dh=20 dv=0
EndChar

StartChar: Itilde
Encoding: 296 296 61
Width: 364
Flags: MW
HStem: 0 43G<102 102 102 254> 1413 41G<66 272 272 272>
VStem: -48 464 102 161
LayerCount: 2
UndoRedoHistory
Layer: 1
Undoes
EndUndoes
Redoes
EndRedoes
EndUndoRedoHistory
Fore
SplineSet
2 1808 m 1,0,1
 39 1837 39 1837 80 1837 c 0,2,3
 131 1837 131 1837 190 1796 c 1,4,-1
 268 1745 l 1,5,-1
 416 1843 l 1,6,-1
 416 1720 l 1,7,-1
 367 1673 l 1,8,9
 316 1626 316 1626 276 1626 c 0,10,11
 239 1626 239 1626 184 1665 c 2,12,-1
 94 1729 l 1,13,-1
 -45 1620 l 1,14,-1
 -51 1761 l 1,15,-1
 2 1808 l 1,0,1
102 0 m 1,16,-1
 102 1262 l 1,17,-1
 66 1360 l 1,18,-1
 66 1454 l 1,19,-1
 272 1454 l 1,20,-1
 254 0 l 1,21,-1
 102 0 l 1,16,-1
EndSplineSet
Validated: 1
Substitution2: "Single Substitution lookup 21 subtable" itilde
Substitution2: "'aalt' Access All Alternates lookup 0 subtable" itilde
Position2: "'cpsp' Capital Spacing lookup 0 subtable" dx=10 dy=0 dh=20 dv=0
EndChar

StartChar: J
Encoding: 74 74 62
Width: 616
Flags: MW
HStem: 0 105 1413 41G<317 514 514 514>
VStem: 354 151
LayerCount: 2
UndoRedoHistory
Layer: 1
Undoes
EndUndoes
Redoes
EndRedoes
EndUndoRedoHistory
Fore
SplineSet
125 0 m 1,0,-1
 51 352 l 1,1,-1
 213 393 l 1,2,-1
 223 111 l 1,3,-1
 354 100 l 1,4,-1
 354 1262 l 1,5,-1
 317 1360 l 1,6,-1
 317 1454 l 1,7,-1
 514 1454 l 1,8,-1
 496 0 l 1,9,-1
 125 0 l 1,0,-1
EndSplineSet
Validated: 1
Substitution2: "Single Substitution lookup 20 subtable" j
Substitution2: "'aalt' Access All Alternates lookup 0 subtable" j
Position2: "'cpsp' Capital Spacing lookup 0 subtable" dx=10 dy=0 dh=20 dv=0
EndChar

StartChar: Jcircumflex
Encoding: 308 308 63
Width: 616
Flags: MW
HStem: 0 105 1413 41G<317 514 514 514>
VStem: 354 151
LayerCount: 2
UndoRedoHistory
Layer: 1
Undoes
EndUndoes
Redoes
EndRedoes
EndUndoRedoHistory
Fore
SplineSet
459 1837 m 1,0,-1
 610 1612 l 1,1,-1
 551 1573 l 1,2,-1
 418 1700 l 1,3,-1
 285 1573 l 1,4,-1
 225 1612 l 1,5,-1
 377 1843 l 1,6,-1
 459 1837 l 1,0,-1
125 0 m 1,7,-1
 51 352 l 1,8,-1
 213 393 l 1,9,-1
 223 111 l 1,10,-1
 354 100 l 1,11,-1
 354 1262 l 1,12,-1
 317 1360 l 1,13,-1
 317 1454 l 1,14,-1
 514 1454 l 1,15,-1
 496 0 l 1,16,-1
 125 0 l 1,7,-1
EndSplineSet
Validated: 1
Substitution2: "Single Substitution lookup 20 subtable" jcircumflex
Substitution2: "'aalt' Access All Alternates lookup 0 subtable" jcircumflex
Position2: "'cpsp' Capital Spacing lookup 0 subtable" dx=10 dy=0 dh=20 dv=0
EndChar

StartChar: K
Encoding: 75 75 64
Width: 636
Flags: MW
HStem: 1413 41G
VStem: 110 136 403 153
LayerCount: 2
UndoRedoHistory
Layer: 1
Undoes
EndUndoes
Redoes
EndRedoes
EndUndoRedoHistory
Fore
SplineSet
403 -41 m 1,0,-1
 403 541 l 1,1,-1
 293 643 l 1,2,-1
 270 627 l 1,3,-1
 270 -41 l 1,4,-1
 133 -41 l 1,5,-1
 86 1413 l 1,6,-1
 246 1413 l 1,7,-1
 246 799 l 1,8,-1
 299 768 l 1,9,-1
 391 842 l 1,10,-1
 412 1454 l 1,11,-1
 588 1454 l 1,12,-1
 502 791 l 1,13,-1
 403 725 l 1,14,-1
 545 643 l 1,15,-1
 567 -41 l 1,16,-1
 403 -41 l 1,0,-1
EndSplineSet
Validated: 1
Substitution2: "Single Substitution lookup 20 subtable" k
Substitution2: "'aalt' Access All Alternates lookup 0 subtable" k
Position2: "'cpsp' Capital Spacing lookup 0 subtable" dx=10 dy=0 dh=20 dv=0
EndChar

StartChar: Kcommaaccent
Encoding: 310 310 65
Width: 636
Flags: MW
HStem: -512 43G<362 362> -328 168<258 344 258 424 258 430> 1413 41G
VStem: 110 136 258 169 403 153
LayerCount: 2
UndoRedoHistory
Layer: 1
Undoes
EndUndoes
Redoes
EndRedoes
EndUndoRedoHistory
Fore
SplineSet
403 -41 m 1,0,-1
 403 541 l 1,1,-1
 293 643 l 1,2,-1
 270 627 l 1,3,-1
 270 -41 l 1,4,-1
 133 -41 l 1,5,-1
 86 1413 l 1,6,-1
 246 1413 l 1,7,-1
 246 799 l 1,8,-1
 299 768 l 1,9,-1
 391 842 l 1,10,-1
 412 1454 l 1,11,-1
 588 1454 l 1,12,-1
 502 791 l 1,13,-1
 403 725 l 1,14,-1
 545 643 l 1,15,-1
 567 -41 l 1,16,-1
 403 -41 l 1,0,-1
424 -160 m 1,17,-1
 430 -328 l 1,18,-1
 362 -512 l 1,19,-1
 250 -479 l 1,20,-1
 344 -328 l 1,21,-1
 258 -328 l 1,22,-1
 258 -160 l 1,23,-1
 424 -160 l 1,17,-1
EndSplineSet
Validated: 1
Substitution2: "Single Substitution lookup 20 subtable" kcommaaccent
Substitution2: "'aalt' Access All Alternates lookup 0 subtable" kcommaaccent
Position2: "'cpsp' Capital Spacing lookup 0 subtable" dx=10 dy=0 dh=20 dv=0
EndChar

StartChar: L
Encoding: 76 76 66
Width: 540
Flags: MW
HStem: 0 131<102 489> 1413 41G<102 301 301 301>
VStem: 102 177
LayerCount: 2
UndoRedoHistory
Layer: 1
Undoes
EndUndoes
Redoes
EndRedoes
EndUndoRedoHistory
Fore
SplineSet
102 0 m 1,0,-1
 102 1454 l 1,1,-1
 301 1454 l 1,2,-1
 258 168 l 1,3,-1
 489 131 l 1,4,-1
 489 0 l 1,5,-1
 102 0 l 1,0,-1
EndSplineSet
Validated: 1
Substitution2: "Single Substitution lookup 20 subtable" l
Substitution2: "'aalt' Access All Alternates lookup 0 subtable" l
Position2: "'cpsp' Capital Spacing lookup 0 subtable" dx=10 dy=0 dh=20 dv=0
EndChar

StartChar: LJ
Encoding: 455 455 67
Width: 1157
Flags: MW
HStem: 0 105 1413 41G<102 301 301 301 858 1055 1055 1055>
VStem: 102 177 895 151
LayerCount: 2
UndoRedoHistory
Layer: 1
Undoes
EndUndoes
Redoes
EndRedoes
EndUndoRedoHistory
Fore
SplineSet
102 0 m 1,0,-1
 102 1454 l 1,1,-1
 301 1454 l 1,2,-1
 258 168 l 1,3,-1
 489 131 l 1,4,-1
 489 0 l 1,5,-1
 102 0 l 1,0,-1
666 0 m 1,6,-1
 592 352 l 1,7,-1
 754 393 l 1,8,-1
 764 111 l 1,9,-1
 895 100 l 1,10,-1
 895 1262 l 1,11,-1
 858 1360 l 1,12,-1
 858 1454 l 1,13,-1
 1055 1454 l 1,14,-1
 1036 0 l 1,15,-1
 666 0 l 1,6,-1
EndSplineSet
Validated: 1
Substitution2: "Single Substitution lookup 20 subtable" lj
Substitution2: "'aalt' Access All Alternates lookup 0 subtable" lj
Position2: "'cpsp' Capital Spacing lookup 0 subtable" dx=10 dy=0 dh=20 dv=0
EndChar

StartChar: Lacute
Encoding: 313 313 68
Width: 540
Flags: MW
HStem: 0 1843<305 305 305 489 305 489>
VStem: 102 387<0 131 0 1454 0 131>
LayerCount: 2
UndoRedoHistory
Layer: 1
Undoes
EndUndoes
Redoes
EndRedoes
EndUndoRedoHistory
Fore
SplineSet
399 1745 m 1,0,-1
 203 1573 l 1,1,-1
 133 1622 l 1,2,-1
 305 1843 l 1,3,-1
 399 1745 l 1,0,-1
258 168 m 1,4,-1
 489 131 l 1,5,-1
 489 0 l 1,6,-1
 102 0 l 1,7,-1
 102 1454 l 1,8,-1
 301 1454 l 1,9,-1
 258 168 l 1,4,-1
EndSplineSet
Validated: 1
Substitution2: "Single Substitution lookup 20 subtable" lacute
Substitution2: "'aalt' Access All Alternates lookup 0 subtable" lacute
Position2: "'cpsp' Capital Spacing lookup 0 subtable" dx=10 dy=0 dh=20 dv=0
EndChar

StartChar: Lcaron
Encoding: 317 317 69
Width: 540
Flags: MW
HStem: 1454 96
VStem: 102 469<1358 1358 1358 1454>
LayerCount: 2
UndoRedoHistory
Layer: 1
Undoes
EndUndoes
Redoes
EndRedoes
EndUndoRedoHistory
Fore
SplineSet
559 1554 m 1,0,-1
 571 1358 l 1,1,-1
 432 1174 l 1,2,-1
 344 1204 l 1,3,-1
 449 1358 l 1,4,-1
 383 1546 l 1,5,-1
 559 1554 l 1,0,-1
258 168 m 1,6,-1
 489 131 l 1,7,-1
 489 0 l 1,8,-1
 102 0 l 1,9,-1
 102 1454 l 1,10,-1
 301 1454 l 1,11,-1
 258 168 l 1,6,-1
EndSplineSet
Validated: 1
Substitution2: "Single Substitution lookup 20 subtable" lcaron
Substitution2: "'aalt' Access All Alternates lookup 0 subtable" lcaron
Position2: "'cpsp' Capital Spacing lookup 0 subtable" dx=10 dy=0 dh=20 dv=0
EndChar

StartChar: Lcommaaccent
Encoding: 315 315 70
Width: 540
Flags: MW
HStem: -512 43G<293 293> -328 168<188 274 188 354 188 360> 0 131<102 489> 1413 41G<102 301 301 301>
VStem: 102 177 188 169
LayerCount: 2
UndoRedoHistory
Layer: 1
Undoes
EndUndoes
Redoes
EndRedoes
EndUndoRedoHistory
Fore
SplineSet
102 0 m 1,0,-1
 102 1454 l 1,1,-1
 301 1454 l 1,2,-1
 258 168 l 1,3,-1
 489 131 l 1,4,-1
 489 0 l 1,5,-1
 102 0 l 1,0,-1
354 -160 m 1,6,-1
 360 -328 l 1,7,-1
 293 -512 l 1,8,-1
 180 -479 l 1,9,-1
 274 -328 l 1,10,-1
 188 -328 l 1,11,-1
 188 -160 l 1,12,-1
 354 -160 l 1,6,-1
EndSplineSet
Validated: 1
Substitution2: "Single Substitution lookup 20 subtable" lcommaaccent
Substitution2: "'aalt' Access All Alternates lookup 0 subtable" lcommaaccent
Position2: "'cpsp' Capital Spacing lookup 0 subtable" dx=10 dy=0 dh=20 dv=0
EndChar

StartChar: Ldot
Encoding: 319 319 71
Width: 540
Flags: MW
HStem: 0 131<102 489> 664 193 1413 41G<102 301 301 301>
VStem: 102 177 344 193
LayerCount: 2
UndoRedoHistory
Layer: 1
Undoes
EndUndoes
Redoes
EndRedoes
EndUndoRedoHistory
Fore
SplineSet
102 0 m 1,0,-1
 102 1454 l 1,1,-1
 301 1454 l 1,2,-1
 258 168 l 1,3,-1
 489 131 l 1,4,-1
 489 0 l 1,5,-1
 102 0 l 1,0,-1
541 860 m 1,6,-1
 532 664 l 1,7,-1
 344 664 l 1,8,-1
 344 852 l 1,9,-1
 541 860 l 1,6,-1
EndSplineSet
Validated: 1
Substitution2: "Single Substitution lookup 20 subtable" ldot
Ligature2: "Ligature Substitution lookup 19 subtable" L periodcentered
Substitution2: "'aalt' Access All Alternates lookup 0 subtable" ldot
Position2: "'cpsp' Capital Spacing lookup 0 subtable" dx=10 dy=0 dh=20 dv=0
EndChar

StartChar: Lslash
Encoding: 321 321 72
Width: 540
Flags: MW
HStem: 0 131<102 489> 1413 41G<102 301 301 301>
VStem: 102 165
LayerCount: 2
UndoRedoHistory
Layer: 1
Undoes
EndUndoes
Redoes
EndRedoes
EndUndoRedoHistory
Fore
SplineSet
102 0 m 1,0,-1
 102 618 l 1,1,-1
 6 561 l 1,2,-1
 -47 672 l 1,3,-1
 102 756 l 1,4,-1
 102 1454 l 1,5,-1
 301 1454 l 1,6,-1
 281 856 l 1,7,-1
 446 950 l 1,8,-1
 498 856 l 1,9,-1
 276 723 l 1,10,-1
 258 168 l 1,11,-1
 489 131 l 1,12,-1
 489 0 l 1,13,-1
 102 0 l 1,0,-1
EndSplineSet
Validated: 1
Substitution2: "Single Substitution lookup 20 subtable" lslash
Substitution2: "'aalt' Access All Alternates lookup 0 subtable" lslash
Position2: "'cpsp' Capital Spacing lookup 0 subtable" dx=10 dy=0 dh=20 dv=0
EndChar

StartChar: M
Encoding: 77 77 73
Width: 720
Flags: MW
HStem: 0 43G<524 659 524 524> 1249 205<168 176 168 168> 1354 141<561 569 561 561>
VStem: 61 106<-41 1249 -41 1454> 547 113
LayerCount: 2
UndoRedoHistory
Layer: 1
Undoes
EndUndoes
Redoes
EndRedoes
EndUndoRedoHistory
Fore
SplineSet
61 1454 m 1,0,-1
 246 1454 l 1,1,-1
 352 680 l 1,2,-1
 365 680 l 1,3,-1
 461 1495 l 1,4,-1
 659 1495 l 1,5,-1
 659 0 l 1,6,-1
 524 0 l 1,7,-1
 569 1354 l 1,8,-1
 561 1354 l 1,9,-1
 383 371 l 1,10,-1
 322 371 l 1,11,-1
 176 1249 l 1,12,-1
 168 1249 l 1,13,-1
 168 -41 l 1,14,-1
 61 -41 l 1,15,-1
 61 1454 l 1,0,-1
EndSplineSet
Validated: 1
Substitution2: "Single Substitution lookup 20 subtable" m
Substitution2: "'aalt' Access All Alternates lookup 0 subtable" m
Position2: "'cpsp' Capital Spacing lookup 0 subtable" dx=10 dy=0 dh=20 dv=0
EndChar

StartChar: N
Encoding: 78 78 74
Width: 704
Flags: MW
HStem: 0 119<483 492 483 635 399 492> 1333 121<182 190 182 182>
VStem: 61 121<0 1333 0 1454> 514 131
LayerCount: 2
UndoRedoHistory
Layer: 1
Undoes
EndUndoes
Redoes
EndRedoes
EndUndoRedoHistory
Fore
SplineSet
399 0 m 1,0,-1
 190 1333 l 1,1,-1
 182 1333 l 1,2,-1
 182 0 l 1,3,-1
 61 0 l 1,4,-1
 61 1454 l 1,5,-1
 299 1454 l 1,6,-1
 483 119 l 1,7,-1
 492 119 l 1,8,-1
 537 1454 l 1,9,-1
 655 1454 l 1,10,-1
 635 0 l 1,11,-1
 399 0 l 1,0,-1
EndSplineSet
Validated: 1
Substitution2: "Single Substitution lookup 20 subtable" n
Substitution2: "'aalt' Access All Alternates lookup 0 subtable" n
Position2: "'cpsp' Capital Spacing lookup 0 subtable" dx=10 dy=0 dh=20 dv=0
EndChar

StartChar: NJ
Encoding: 458 458 75
Width: 1320
Flags: MW
HStem: 0 105 1333 121<182 190 182 182>
VStem: 61 121<0 1333 0 1454> 514 131 1059 151
LayerCount: 2
UndoRedoHistory
Layer: 1
Undoes
EndUndoes
Redoes
EndRedoes
EndUndoRedoHistory
Fore
SplineSet
399 0 m 1,0,-1
 190 1333 l 1,1,-1
 182 1333 l 1,2,-1
 182 0 l 1,3,-1
 61 0 l 1,4,-1
 61 1454 l 1,5,-1
 299 1454 l 1,6,-1
 483 119 l 1,7,-1
 492 119 l 1,8,-1
 537 1454 l 1,9,-1
 655 1454 l 1,10,-1
 635 0 l 1,11,-1
 399 0 l 1,0,-1
829 0 m 1,12,-1
 756 352 l 1,13,-1
 918 393 l 1,14,-1
 928 111 l 1,15,-1
 1059 100 l 1,16,-1
 1059 1262 l 1,17,-1
 1022 1360 l 1,18,-1
 1022 1454 l 1,19,-1
 1219 1454 l 1,20,-1
 1200 0 l 1,21,-1
 829 0 l 1,12,-1
EndSplineSet
Validated: 1
Substitution2: "Single Substitution lookup 20 subtable" nj
Substitution2: "'aalt' Access All Alternates lookup 0 subtable" nj
Position2: "'cpsp' Capital Spacing lookup 0 subtable" dx=10 dy=0 dh=20 dv=0
EndChar

StartChar: Nacute
Encoding: 323 323 76
Width: 704
Flags: MW
HStem: 1454 168<262 262 262 299>
VStem: 182 332
LayerCount: 2
UndoRedoHistory
Layer: 1
Undoes
EndUndoes
Redoes
EndRedoes
EndUndoRedoHistory
Fore
SplineSet
528 1745 m 1,0,-1
 332 1573 l 1,1,-1
 262 1622 l 1,2,-1
 434 1843 l 1,3,-1
 528 1745 l 1,0,-1
537 1454 m 1,4,-1
 655 1454 l 1,5,-1
 635 0 l 1,6,-1
 399 0 l 1,7,-1
 190 1333 l 1,8,-1
 182 1333 l 1,9,-1
 182 0 l 1,10,-1
 61 0 l 1,11,-1
 61 1454 l 1,12,-1
 299 1454 l 1,13,-1
 483 119 l 1,14,-1
 492 119 l 1,15,-1
 537 1454 l 1,4,-1
EndSplineSet
Validated: 1
Substitution2: "Single Substitution lookup 20 subtable" nacute
Substitution2: "'locl' Localized Forms in Latin lookup 11 subtable" Nacute.loclPLK
AlternateSubs2: "'aalt' Access All Alternates lookup 1 subtable" Nacute.loclPLK nacute
Position2: "'cpsp' Capital Spacing lookup 0 subtable" dx=10 dy=0 dh=20 dv=0
EndChar

StartChar: Ncaron
Encoding: 327 327 77
Width: 704
Flags: MW
HStem: 0 119<483 492 483 635 399 492> 1333 121<182 190 182 182>
VStem: 61 121<0 1333 0 1454> 514 131
LayerCount: 2
UndoRedoHistory
Layer: 1
Undoes
EndUndoes
Redoes
EndRedoes
EndUndoRedoHistory
Fore
SplineSet
336 1579 m 1,0,-1
 184 1804 l 1,1,-1
 244 1843 l 1,2,-1
 377 1716 l 1,3,-1
 510 1843 l 1,4,-1
 569 1804 l 1,5,-1
 418 1573 l 1,6,-1
 336 1579 l 1,0,-1
399 0 m 1,7,-1
 190 1333 l 1,8,-1
 182 1333 l 1,9,-1
 182 0 l 1,10,-1
 61 0 l 1,11,-1
 61 1454 l 1,12,-1
 299 1454 l 1,13,-1
 483 119 l 1,14,-1
 492 119 l 1,15,-1
 537 1454 l 1,16,-1
 655 1454 l 1,17,-1
 635 0 l 1,18,-1
 399 0 l 1,7,-1
EndSplineSet
Validated: 1
Substitution2: "Single Substitution lookup 20 subtable" ncaron
Substitution2: "'aalt' Access All Alternates lookup 0 subtable" ncaron
Position2: "'cpsp' Capital Spacing lookup 0 subtable" dx=10 dy=0 dh=20 dv=0
EndChar

StartChar: Ncommaaccent
Encoding: 325 325 78
Width: 704
Flags: MW
HStem: -512 43G<375 375> -328 168<270 356 270 436 270 442> 0 119<483 492 483 635 399 492> 1333 121<182 190 182 182>
VStem: 61 121<0 1333 0 1454> 270 169 514 131
LayerCount: 2
UndoRedoHistory
Layer: 1
Undoes
EndUndoes
Redoes
EndRedoes
EndUndoRedoHistory
Fore
SplineSet
399 0 m 1,0,-1
 190 1333 l 1,1,-1
 182 1333 l 1,2,-1
 182 0 l 1,3,-1
 61 0 l 1,4,-1
 61 1454 l 1,5,-1
 299 1454 l 1,6,-1
 483 119 l 1,7,-1
 492 119 l 1,8,-1
 537 1454 l 1,9,-1
 655 1454 l 1,10,-1
 635 0 l 1,11,-1
 399 0 l 1,0,-1
436 -160 m 1,12,-1
 442 -328 l 1,13,-1
 375 -512 l 1,14,-1
 262 -479 l 1,15,-1
 356 -328 l 1,16,-1
 270 -328 l 1,17,-1
 270 -160 l 1,18,-1
 436 -160 l 1,12,-1
EndSplineSet
Validated: 1
Substitution2: "Single Substitution lookup 20 subtable" ncommaaccent
Substitution2: "'aalt' Access All Alternates lookup 0 subtable" ncommaaccent
Position2: "'cpsp' Capital Spacing lookup 0 subtable" dx=10 dy=0 dh=20 dv=0
EndChar

StartChar: Ndotaccent
Encoding: 7748 7748 79
Width: 704
Flags: MW
HStem: 1646 198
VStem: 182 332 291 186
LayerCount: 2
UndoRedoHistory
Layer: 1
Undoes
EndUndoes
Redoes
EndRedoes
EndUndoRedoHistory
Fore
SplineSet
477 1843 m 1,0,-1
 477 1649 l 1,1,-1
 295 1642 l 1,2,-1
 287 1843 l 1,3,-1
 477 1843 l 1,0,-1
537 1454 m 1,4,-1
 655 1454 l 1,5,-1
 635 0 l 1,6,-1
 399 0 l 1,7,-1
 190 1333 l 1,8,-1
 182 1333 l 1,9,-1
 182 0 l 1,10,-1
 61 0 l 1,11,-1
 61 1454 l 1,12,-1
 299 1454 l 1,13,-1
 483 119 l 1,14,-1
 492 119 l 1,15,-1
 537 1454 l 1,4,-1
EndSplineSet
Validated: 1
Substitution2: "Single Substitution lookup 20 subtable" ndotaccent
Substitution2: "'aalt' Access All Alternates lookup 0 subtable" ndotaccent
Position2: "'cpsp' Capital Spacing lookup 0 subtable" dx=10 dy=0 dh=20 dv=0
EndChar

StartChar: Eng
Encoding: 330 330 80
Width: 727
Flags: MW
HStem: -61 105 0 43G<61 182 61 61> 1333 121<182 190 182 182>
VStem: 61 121<0 1333 0 1454> 537 130
LayerCount: 2
UndoRedoHistory
Layer: 1
Undoes
EndUndoes
Redoes
EndRedoes
EndUndoRedoHistory
Fore
SplineSet
348 -61 m 1,0,-1
 295 188 l 1,1,-1
 436 229 l 1,2,-1
 446 49 l 1,3,-1
 537 39 l 1,4,-1
 537 324 l 1,5,-1
 190 1333 l 1,6,-1
 182 1333 l 1,7,-1
 182 0 l 1,8,-1
 61 0 l 1,9,-1
 61 1454 l 1,10,-1
 299 1454 l 1,11,-1
 528 641 l 1,12,-1
 537 641 l 1,13,-1
 537 1262 l 1,14,-1
 500 1360 l 1,15,-1
 500 1454 l 1,16,-1
 676 1454 l 1,17,-1
 657 -61 l 1,18,-1
 348 -61 l 1,0,-1
EndSplineSet
Validated: 1
Substitution2: "Single Substitution lookup 20 subtable" eng
Substitution2: "'aalt' Access All Alternates lookup 0 subtable" eng
Position2: "'cpsp' Capital Spacing lookup 0 subtable" dx=10 dy=0 dh=20 dv=0
EndChar

StartChar: Ntilde
Encoding: 209 209 81
Width: 704
Flags: MW
HStem: 0 1843<61 623 182 623 623 623 623 635 623 635>
VStem: 159 464 182 332
LayerCount: 2
UndoRedoHistory
Layer: 1
Undoes
EndUndoes
Redoes
EndRedoes
EndUndoRedoHistory
Fore
SplineSet
209 1808 m 1,0,1
 246 1837 246 1837 287 1837 c 0,2,3
 338 1837 338 1837 397 1796 c 1,4,-1
 475 1745 l 1,5,-1
 623 1843 l 1,6,-1
 623 1720 l 1,7,-1
 573 1673 l 2,8,9
 522 1626 522 1626 483 1626 c 0,10,11
 446 1626 446 1626 391 1665 c 2,12,-1
 301 1729 l 1,13,-1
 162 1620 l 1,14,-1
 156 1761 l 1,15,-1
 209 1808 l 1,0,1
537 1454 m 1,16,-1
 655 1454 l 1,17,-1
 635 0 l 1,18,-1
 399 0 l 1,19,-1
 190 1333 l 1,20,-1
 182 1333 l 1,21,-1
 182 0 l 1,22,-1
 61 0 l 1,23,-1
 61 1454 l 1,24,-1
 299 1454 l 1,25,-1
 483 119 l 1,26,-1
 492 119 l 1,27,-1
 537 1454 l 1,16,-1
EndSplineSet
Validated: 1
Substitution2: "Single Substitution lookup 20 subtable" ntilde
Substitution2: "'aalt' Access All Alternates lookup 0 subtable" ntilde
Position2: "'cpsp' Capital Spacing lookup 0 subtable" dx=10 dy=0 dh=20 dv=0
EndChar

StartChar: O
Encoding: 79 79 82
Width: 651
Flags: MW
HStem: 0 143<287 373 373 379 287 420 223 373> 1348 106<281 287 287 393>
VStem: 102 166<152 156 156 1329> 412 137<1329 1335>
LayerCount: 2
UndoRedoHistory
Layer: 1
Undoes
EndUndoes
Redoes
EndRedoes
EndUndoRedoHistory
Fore
SplineSet
467 1454 m 1,0,-1
 549 1397 l 1,1,-1
 549 74 l 1,2,-1
 420 0 l 1,3,-1
 223 0 l 1,4,-1
 102 86 l 1,5,-1
 102 1389 l 1,6,-1
 190 1454 l 1,7,-1
 467 1454 l 1,0,-1
412 1329 m 2,8,9
 412 1348 412 1348 393 1348 c 2,10,-1
 287 1348 l 2,11,12
 268 1348 268 1348 268 1329 c 2,13,-1
 268 156 l 2,14,15
 268 143 268 143 287 143 c 2,16,-1
 373 143 l 2,17,18
 391 143 391 143 391 156 c 2,19,-1
 412 1329 l 2,8,9
EndSplineSet
Validated: 1
Substitution2: "Single Substitution lookup 21 subtable" o
Substitution2: "Single Substitution lookup 20 subtable" ordmasculine
AlternateSubs2: "'aalt' Access All Alternates lookup 1 subtable" ordmasculine o
Position2: "'cpsp' Capital Spacing lookup 0 subtable" dx=10 dy=0 dh=20 dv=0
EndChar

StartChar: Oacute
Encoding: 211 211 83
Width: 651
Flags: MW
HStem: 0 143<287 373 373 379 287 420 223 373> 1348 106<281 287 287 393>
VStem: 102 166<152 156 156 1329> 412 137<1329 1335>
LayerCount: 2
UndoRedoHistory
Layer: 1
Undoes
EndUndoes
Redoes
EndRedoes
EndUndoRedoHistory
Fore
SplineSet
500 1745 m 1,0,-1
 303 1573 l 1,1,-1
 233 1622 l 1,2,-1
 406 1843 l 1,3,-1
 500 1745 l 1,0,-1
467 1454 m 1,4,-1
 549 1397 l 1,5,-1
 549 74 l 1,6,-1
 420 0 l 1,7,-1
 223 0 l 1,8,-1
 102 86 l 1,9,-1
 102 1389 l 1,10,-1
 190 1454 l 1,11,-1
 467 1454 l 1,4,-1
412 1329 m 2,12,13
 412 1348 412 1348 393 1348 c 2,14,-1
 287 1348 l 2,15,16
 268 1348 268 1348 268 1329 c 2,17,-1
 268 156 l 2,18,19
 268 143 268 143 287 143 c 2,20,-1
 373 143 l 2,21,22
 391 143 391 143 391 156 c 2,23,-1
 412 1329 l 2,12,13
EndSplineSet
Validated: 1
Substitution2: "Single Substitution lookup 21 subtable" oacute
Substitution2: "'locl' Localized Forms in Latin lookup 11 subtable" Oacute.loclPLK
AlternateSubs2: "'aalt' Access All Alternates lookup 1 subtable" Oacute.loclPLK oacute
Position2: "'cpsp' Capital Spacing lookup 0 subtable" dx=10 dy=0 dh=20 dv=0
EndChar

StartChar: Obreve
Encoding: 334 334 84
Width: 651
Flags: MW
HStem: 0 143<287 373 373 379 287 420 223 373> 1348 106<281 287 287 393> 1608 97 1733 98<219 219>
VStem: 102 166<152 156 156 1329> 125 99 412 137<1329 1335> 466 91
LayerCount: 2
UndoRedoHistory
Layer: 1
Undoes
EndUndoes
Redoes
EndRedoes
EndUndoRedoHistory
Fore
SplineSet
219 1733 m 1,0,-1
 244 1710 l 1,1,-1
 469 1700 l 1,2,-1
 463 1835 l 1,3,-1
 557 1843 l 1,4,-1
 557 1688 l 1,5,-1
 477 1608 l 1,6,-1
 221 1608 l 1,7,-1
 129 1665 l 1,8,-1
 121 1831 l 1,9,-1
 229 1831 l 1,10,-1
 219 1733 l 1,0,-1
467 1454 m 1,11,-1
 549 1397 l 1,12,-1
 549 74 l 1,13,-1
 420 0 l 1,14,-1
 223 0 l 1,15,-1
 102 86 l 1,16,-1
 102 1389 l 1,17,-1
 190 1454 l 1,18,-1
 467 1454 l 1,11,-1
412 1329 m 2,19,20
 412 1348 412 1348 393 1348 c 2,21,-1
 287 1348 l 2,22,23
 268 1348 268 1348 268 1329 c 2,24,-1
 268 156 l 2,25,26
 268 143 268 143 287 143 c 2,27,-1
 373 143 l 2,28,29
 391 143 391 143 391 156 c 2,30,-1
 412 1329 l 2,19,20
EndSplineSet
Validated: 1
Substitution2: "Single Substitution lookup 21 subtable" obreve
Substitution2: "'aalt' Access All Alternates lookup 0 subtable" obreve
Position2: "'cpsp' Capital Spacing lookup 0 subtable" dx=10 dy=0 dh=20 dv=0
EndChar

StartChar: Ocircumflex
Encoding: 212 212 85
Width: 651
Flags: MW
HStem: 0 143<287 373 373 379 287 420 223 373> 1348 106<281 287 287 393>
VStem: 102 166<152 156 156 1329> 412 137<1329 1335>
LayerCount: 2
UndoRedoHistory
Layer: 1
Undoes
EndUndoes
Redoes
EndRedoes
EndUndoRedoHistory
Fore
SplineSet
387 1835 m 1,0,-1
 539 1610 l 1,1,-1
 479 1571 l 1,2,-1
 346 1698 l 1,3,-1
 213 1571 l 1,4,-1
 154 1610 l 1,5,-1
 305 1841 l 1,6,-1
 387 1835 l 1,0,-1
467 1454 m 1,7,-1
 549 1397 l 1,8,-1
 549 74 l 1,9,-1
 420 0 l 1,10,-1
 223 0 l 1,11,-1
 102 86 l 1,12,-1
 102 1389 l 1,13,-1
 190 1454 l 1,14,-1
 467 1454 l 1,7,-1
412 1329 m 2,15,16
 412 1348 412 1348 393 1348 c 2,17,-1
 287 1348 l 2,18,19
 268 1348 268 1348 268 1329 c 2,20,-1
 268 156 l 2,21,22
 268 143 268 143 287 143 c 2,23,-1
 373 143 l 2,24,25
 391 143 391 143 391 156 c 2,26,-1
 412 1329 l 2,15,16
EndSplineSet
Validated: 1
Substitution2: "Single Substitution lookup 21 subtable" ocircumflex
Substitution2: "'aalt' Access All Alternates lookup 0 subtable" ocircumflex
Position2: "'cpsp' Capital Spacing lookup 0 subtable" dx=10 dy=0 dh=20 dv=0
EndChar

StartChar: Odieresis
Encoding: 214 214 86
Width: 651
Flags: MW
HStem: 0 143<287 373 373 379 287 420 223 373> 1348 106<281 287 287 393> 1673 167
VStem: 90 166 102 166<152 156 156 1329> 400 159 412 137<1329 1335>
LayerCount: 2
UndoRedoHistory
Layer: 1
Undoes
EndUndoes
Redoes
EndRedoes
EndUndoRedoHistory
Fore
SplineSet
260 1843 m 1,0,-1
 252 1673 l 1,1,-1
 90 1673 l 1,2,-1
 90 1837 l 1,3,-1
 260 1843 l 1,0,-1
559 1843 m 1,4,-1
 559 1679 l 1,5,-1
 403 1673 l 1,6,-1
 397 1843 l 1,7,-1
 559 1843 l 1,4,-1
467 1454 m 1,8,-1
 549 1397 l 1,9,-1
 549 74 l 1,10,-1
 420 0 l 1,11,-1
 223 0 l 1,12,-1
 102 86 l 1,13,-1
 102 1389 l 1,14,-1
 190 1454 l 1,15,-1
 467 1454 l 1,8,-1
412 1329 m 2,16,17
 412 1348 412 1348 393 1348 c 2,18,-1
 287 1348 l 2,19,20
 268 1348 268 1348 268 1329 c 2,21,-1
 268 156 l 2,22,23
 268 143 268 143 287 143 c 2,24,-1
 373 143 l 2,25,26
 391 143 391 143 391 156 c 2,27,-1
 412 1329 l 2,16,17
EndSplineSet
Validated: 1
Substitution2: "Single Substitution lookup 21 subtable" odieresis
Substitution2: "'aalt' Access All Alternates lookup 0 subtable" odieresis
Position2: "'cpsp' Capital Spacing lookup 0 subtable" dx=10 dy=0 dh=20 dv=0
EndChar

StartChar: Odotbelow
Encoding: 7884 7884 87
Width: 651
Flags: MW
HStem: -312 198 0 143<287 373 373 379 287 420 223 373> 1348 106<281 287 287 393>
VStem: 102 166<152 156 156 1329> 225 186 412 137<1329 1335>
LayerCount: 2
UndoRedoHistory
Layer: 1
Undoes
EndUndoes
Redoes
EndRedoes
EndUndoRedoHistory
Fore
SplineSet
467 1454 m 1,0,-1
 549 1397 l 1,1,-1
 549 74 l 1,2,-1
 420 0 l 1,3,-1
 223 0 l 1,4,-1
 102 86 l 1,5,-1
 102 1389 l 1,6,-1
 190 1454 l 1,7,-1
 467 1454 l 1,0,-1
412 1329 m 2,8,9
 412 1348 412 1348 393 1348 c 2,10,-1
 287 1348 l 2,11,12
 268 1348 268 1348 268 1329 c 2,13,-1
 268 156 l 2,14,15
 268 143 268 143 287 143 c 2,16,-1
 373 143 l 2,17,18
 391 143 391 143 391 156 c 2,19,-1
 412 1329 l 2,8,9
412 -115 m 1,20,-1
 412 -309 l 1,21,-1
 229 -315 l 1,22,-1
 221 -115 l 1,23,-1
 412 -115 l 1,20,-1
EndSplineSet
Validated: 1
Substitution2: "Single Substitution lookup 21 subtable" odotbelow
Substitution2: "'aalt' Access All Alternates lookup 0 subtable" odotbelow
Position2: "'cpsp' Capital Spacing lookup 0 subtable" dx=10 dy=0 dh=20 dv=0
EndChar

StartChar: Ograve
Encoding: 210 210 88
Width: 651
Flags: MW
HStem: 0 143<287 373 373 379 287 420 223 373> 1348 106<281 287 287 393>
VStem: 102 166<152 156 156 1329> 412 137<1329 1335>
LayerCount: 2
UndoRedoHistory
Layer: 1
Undoes
EndUndoes
Redoes
EndRedoes
EndUndoRedoHistory
Fore
SplineSet
389 1573 m 1,0,-1
 193 1745 l 1,1,-1
 287 1843 l 1,2,-1
 459 1622 l 1,3,-1
 389 1573 l 1,0,-1
467 1454 m 1,4,-1
 549 1397 l 1,5,-1
 549 74 l 1,6,-1
 420 0 l 1,7,-1
 223 0 l 1,8,-1
 102 86 l 1,9,-1
 102 1389 l 1,10,-1
 190 1454 l 1,11,-1
 467 1454 l 1,4,-1
412 1329 m 2,12,13
 412 1348 412 1348 393 1348 c 2,14,-1
 287 1348 l 2,15,16
 268 1348 268 1348 268 1329 c 2,17,-1
 268 156 l 2,18,19
 268 143 268 143 287 143 c 2,20,-1
 373 143 l 2,21,22
 391 143 391 143 391 156 c 2,23,-1
 412 1329 l 2,12,13
EndSplineSet
Validated: 1
Substitution2: "Single Substitution lookup 21 subtable" ograve
Substitution2: "'aalt' Access All Alternates lookup 0 subtable" ograve
Position2: "'cpsp' Capital Spacing lookup 0 subtable" dx=10 dy=0 dh=20 dv=0
EndChar

StartChar: Ohungarumlaut
Encoding: 336 336 89
Width: 651
Flags: MW
HStem: 0 143<287 373 373 379 287 420 223 373> 1348 106<281 287 287 393>
VStem: 102 166<152 156 156 1329> 412 137<1329 1335>
LayerCount: 2
UndoRedoHistory
Layer: 1
Undoes
EndUndoes
Redoes
EndRedoes
EndUndoRedoHistory
Fore
SplineSet
389 1745 m 1,0,-1
 193 1573 l 1,1,-1
 123 1622 l 1,2,-1
 295 1843 l 1,3,-1
 389 1745 l 1,0,-1
655 1745 m 1,4,-1
 459 1573 l 1,5,-1
 389 1622 l 1,6,-1
 561 1843 l 1,7,-1
 655 1745 l 1,4,-1
467 1454 m 1,8,-1
 549 1397 l 1,9,-1
 549 74 l 1,10,-1
 420 0 l 1,11,-1
 223 0 l 1,12,-1
 102 86 l 1,13,-1
 102 1389 l 1,14,-1
 190 1454 l 1,15,-1
 467 1454 l 1,8,-1
412 1329 m 2,16,17
 412 1348 412 1348 393 1348 c 2,18,-1
 287 1348 l 2,19,20
 268 1348 268 1348 268 1329 c 2,21,-1
 268 156 l 2,22,23
 268 143 268 143 287 143 c 2,24,-1
 373 143 l 2,25,26
 391 143 391 143 391 156 c 2,27,-1
 412 1329 l 2,16,17
EndSplineSet
Validated: 1
Substitution2: "Single Substitution lookup 21 subtable" ohungarumlaut
Substitution2: "'aalt' Access All Alternates lookup 0 subtable" ohungarumlaut
Position2: "'cpsp' Capital Spacing lookup 0 subtable" dx=10 dy=0 dh=20 dv=0
EndChar

StartChar: Omacron
Encoding: 332 332 90
Width: 651
Flags: MW
HStem: 0 143<287 373 373 379 287 420 223 373> 1348 106<281 287 287 393> 1703 122
VStem: 102 166<152 156 156 1329> 412 137<1329 1335>
LayerCount: 2
UndoRedoHistory
Layer: 1
Undoes
EndUndoes
Redoes
EndRedoes
EndUndoRedoHistory
Fore
SplineSet
610 1712 m 1,0,-1
 68 1694 l 1,1,-1
 61 1825 l 1,2,-1
 610 1825 l 1,3,-1
 610 1712 l 1,0,-1
467 1454 m 1,4,-1
 549 1397 l 1,5,-1
 549 74 l 1,6,-1
 420 0 l 1,7,-1
 223 0 l 1,8,-1
 102 86 l 1,9,-1
 102 1389 l 1,10,-1
 190 1454 l 1,11,-1
 467 1454 l 1,4,-1
412 1329 m 2,12,13
 412 1348 412 1348 393 1348 c 2,14,-1
 287 1348 l 2,15,16
 268 1348 268 1348 268 1329 c 2,17,-1
 268 156 l 2,18,19
 268 143 268 143 287 143 c 2,20,-1
 373 143 l 2,21,22
 391 143 391 143 391 156 c 2,23,-1
 412 1329 l 2,12,13
EndSplineSet
Validated: 1
Substitution2: "Single Substitution lookup 21 subtable" omacron
Substitution2: "'aalt' Access All Alternates lookup 0 subtable" omacron
Position2: "'cpsp' Capital Spacing lookup 0 subtable" dx=10 dy=0 dh=20 dv=0
EndChar

StartChar: Oogonek
Encoding: 490 490 91
Width: 651
Flags: MW
HStem: 0 143<223 373 223 373 324 373 373 379 287 420 324 324> 1348 106<281 287 287 393>
VStem: 102 166<152 156 156 1329> 412 137<1329 1335>
LayerCount: 2
UndoRedoHistory
Layer: 1
Undoes
EndUndoes
Redoes
EndRedoes
EndUndoRedoHistory
Fore
SplineSet
467 1454 m 1,0,-1
 549 1397 l 1,1,-1
 549 74 l 1,2,-1
 420 0 l 1,3,-1
 324 0 l 1,4,-1
 270 -170 l 1,5,-1
 340 -297 l 1,6,-1
 522 -205 l 1,7,-1
 555 -299 l 1,8,-1
 324 -428 l 1,9,-1
 143 -195 l 1,10,-1
 242 0 l 1,11,-1
 223 0 l 1,12,-1
 102 86 l 1,13,-1
 102 1389 l 1,14,-1
 190 1454 l 1,15,-1
 467 1454 l 1,0,-1
412 1329 m 2,16,17
 412 1348 412 1348 393 1348 c 2,18,-1
 287 1348 l 2,19,20
 268 1348 268 1348 268 1329 c 2,21,-1
 268 156 l 2,22,23
 268 143 268 143 287 143 c 2,24,-1
 373 143 l 2,25,26
 391 143 391 143 391 156 c 2,27,-1
 412 1329 l 2,16,17
EndSplineSet
Validated: 1
Substitution2: "Single Substitution lookup 21 subtable" oogonek
Substitution2: "'aalt' Access All Alternates lookup 0 subtable" oogonek
Position2: "'cpsp' Capital Spacing lookup 0 subtable" dx=10 dy=0 dh=20 dv=0
EndChar

StartChar: Oslash
Encoding: 216 216 92
Width: 651
Flags: MW
HStem: 0 145<246 373 373 379 246 549 182 373> 1348 106<240 246 246 377 377 393> 1546 41G<604 604>
VStem: 102 125<154 158 158 166 518 1329> 391 158<154 158>
LayerCount: 2
UndoRedoHistory
Layer: 1
Undoes
EndUndoes
Redoes
EndRedoes
EndUndoRedoHistory
Fore
SplineSet
377 1454 m 2,0,1
 454 1454 454 1454 481 1446 c 1,2,-1
 528 1614 l 1,3,-1
 604 1587 l 1,4,-1
 549 1378 l 1,5,-1
 549 0 l 1,6,-1
 182 0 l 1,7,-1
 135 -180 l 1,8,-1
 45 -145 l 1,9,-1
 102 63 l 1,10,-1
 102 1454 l 1,11,-1
 377 1454 l 2,0,1
408 1178 m 1,12,-1
 412 1329 l 2,13,14
 412 1348 412 1348 393 1348 c 2,15,-1
 246 1348 l 2,16,17
 227 1348 227 1348 227 1329 c 2,18,-1
 227 518 l 1,19,-1
 408 1178 l 1,12,-1
227 166 m 1,20,-1
 227 158 l 2,21,22
 227 145 227 145 246 145 c 2,23,-1
 373 145 l 2,24,25
 391 145 391 145 391 158 c 2,26,-1
 401 827 l 1,27,-1
 227 166 l 1,20,-1
EndSplineSet
Validated: 1
Substitution2: "Single Substitution lookup 21 subtable" oslash
Substitution2: "'aalt' Access All Alternates lookup 0 subtable" oslash
Position2: "'cpsp' Capital Spacing lookup 0 subtable" dx=10 dy=0 dh=20 dv=0
EndChar

StartChar: Oslashacute
Encoding: 510 510 93
Width: 651
Flags: MW
HStem: 0 145<246 373 373 379 246 549 182 373> 1348 106<240 246 246 377 377 393> 1546 41G<604 604>
VStem: 102 125<154 158 158 166 518 1329> 391 158<154 158>
LayerCount: 2
UndoRedoHistory
Layer: 1
Undoes
EndUndoes
Redoes
EndRedoes
EndUndoRedoHistory
Fore
SplineSet
471 1745 m 1,0,-1
 274 1573 l 1,1,-1
 205 1622 l 1,2,-1
 377 1843 l 1,3,-1
 471 1745 l 1,0,-1
377 1454 m 2,4,5
 454 1454 454 1454 481 1446 c 1,6,-1
 528 1614 l 1,7,-1
 604 1587 l 1,8,-1
 549 1378 l 1,9,-1
 549 0 l 1,10,-1
 182 0 l 1,11,-1
 135 -180 l 1,12,-1
 45 -145 l 1,13,-1
 102 63 l 1,14,-1
 102 1454 l 1,15,-1
 377 1454 l 2,4,5
408 1178 m 1,16,-1
 412 1329 l 2,17,18
 412 1348 412 1348 393 1348 c 2,19,-1
 246 1348 l 2,20,21
 227 1348 227 1348 227 1329 c 2,22,-1
 227 518 l 1,23,-1
 408 1178 l 1,16,-1
227 166 m 1,24,-1
 227 158 l 2,25,26
 227 145 227 145 246 145 c 2,27,-1
 373 145 l 2,28,29
 391 145 391 145 391 158 c 2,30,-1
 401 827 l 1,31,-1
 227 166 l 1,24,-1
EndSplineSet
Validated: 1
Substitution2: "Single Substitution lookup 21 subtable" oslashacute
Substitution2: "'aalt' Access All Alternates lookup 0 subtable" oslashacute
Position2: "'cpsp' Capital Spacing lookup 0 subtable" dx=10 dy=0 dh=20 dv=0
EndChar

StartChar: Otilde
Encoding: 213 213 94
Width: 651
Flags: MW
HStem: 0 143<287 373 373 379 287 420 223 373> 1348 106<281 287 287 393>
VStem: 102 166<152 156 156 1329> 116 464 412 137<1329 1335>
LayerCount: 2
UndoRedoHistory
Layer: 1
Undoes
EndUndoes
Redoes
EndRedoes
EndUndoRedoHistory
Fore
SplineSet
166 1806 m 1,0,1
 203 1835 203 1835 244 1835 c 0,2,3
 295 1835 295 1835 354 1794 c 1,4,-1
 432 1743 l 1,5,-1
 580 1841 l 1,6,-1
 580 1718 l 1,7,-1
 530 1671 l 2,8,9
 479 1624 479 1624 440 1624 c 0,10,11
 403 1624 403 1624 348 1663 c 2,12,-1
 258 1726 l 1,13,-1
 119 1618 l 1,14,-1
 113 1759 l 1,15,-1
 166 1806 l 1,0,1
467 1454 m 1,16,-1
 549 1397 l 1,17,-1
 549 74 l 1,18,-1
 420 0 l 1,19,-1
 223 0 l 1,20,-1
 102 86 l 1,21,-1
 102 1389 l 1,22,-1
 190 1454 l 1,23,-1
 467 1454 l 1,16,-1
412 1329 m 2,24,25
 412 1348 412 1348 393 1348 c 2,26,-1
 287 1348 l 2,27,28
 268 1348 268 1348 268 1329 c 2,29,-1
 268 156 l 2,30,31
 268 143 268 143 287 143 c 2,32,-1
 373 143 l 2,33,34
 391 143 391 143 391 156 c 2,35,-1
 412 1329 l 2,24,25
EndSplineSet
Validated: 1
Substitution2: "Single Substitution lookup 21 subtable" otilde
Substitution2: "'aalt' Access All Alternates lookup 0 subtable" otilde
Position2: "'cpsp' Capital Spacing lookup 0 subtable" dx=10 dy=0 dh=20 dv=0
EndChar

StartChar: OE
Encoding: 338 338 95
Width: 944
Flags: MW
HStem: 0 143<287 373 373 379 287 420 223 373> 780 102<561 784> 1294 160<561 854 561 561> 1348 106<281 287 287 393>
VStem: 102 166<152 156 156 1329> 412 160
LayerCount: 2
UndoRedoHistory
Layer: 1
Undoes
EndUndoes
Redoes
EndRedoes
EndUndoRedoHistory
Fore
SplineSet
854 1454 m 1,0,-1
 854 1294 l 1,1,-1
 561 1294 l 1,2,-1
 561 883 l 1,3,-1
 784 883 l 1,4,-1
 784 780 l 1,5,-1
 571 743 l 1,6,-1
 571 150 l 1,7,-1
 848 186 l 1,8,-1
 872 20 l 1,9,-1
 549 0 l 1,10,-1
 543 70 l 1,11,-1
 420 0 l 1,12,-1
 223 0 l 1,13,-1
 102 86 l 1,14,-1
 102 1389 l 1,15,-1
 190 1454 l 1,16,-1
 854 1454 l 1,0,-1
412 1329 m 2,17,18
 412 1348 412 1348 393 1348 c 2,19,-1
 287 1348 l 2,20,21
 268 1348 268 1348 268 1329 c 2,22,-1
 268 156 l 2,23,24
 268 143 268 143 287 143 c 2,25,-1
 373 143 l 2,26,27
 391 143 391 143 391 156 c 2,28,-1
 412 1329 l 2,17,18
EndSplineSet
Validated: 1
Substitution2: "Single Substitution lookup 21 subtable" oe
Substitution2: "'aalt' Access All Alternates lookup 0 subtable" oe
Position2: "'cpsp' Capital Spacing lookup 0 subtable" dx=10 dy=0 dh=20 dv=0
EndChar

StartChar: P
Encoding: 80 80 96
Width: 622
Flags: MW
HStem: 0 43G<102 221 102 102> 627 121<267 274 267 330 221 274> 1362 92<266 274 274 309> 1395 59<57 356>
VStem: 102 119<0 627 0 1370> 375 166<776 780>
LayerCount: 2
UndoRedoHistory
Layer: 1
Undoes
EndUndoes
Redoes
EndRedoes
EndUndoRedoHistory
Fore
SplineSet
356 1454 m 2,0,1
 434 1454 434 1454 487.5 1424.5 c 128,-1,2
 541 1395 541 1395 541 1354 c 2,3,-1
 541 776 l 2,4,5
 541 765 541 765 537.5 750.5 c 128,-1,6
 534 736 534 736 521 713 c 128,-1,7
 508 690 508 690 487 672 c 128,-1,8
 466 654 466 654 425 640.5 c 128,-1,9
 384 627 384 627 330 627 c 2,10,-1
 221 627 l 1,11,-1
 221 0 l 1,12,-1
 102 0 l 1,13,-1
 102 1370 l 1,14,-1
 57 1395 l 1,15,-1
 57 1454 l 1,16,-1
 356 1454 l 2,0,1
250 764 m 2,17,18
 250 759 250 759 257 753.5 c 128,-1,19
 264 748 264 748 274 748 c 1,20,-1
 362 768 l 1,21,22
 375 768 375 768 375 780 c 2,23,-1
 395 1296 l 1,24,25
 393 1323 393 1323 372.5 1342.5 c 128,-1,26
 352 1362 352 1362 309 1362 c 2,27,-1
 274 1362 l 2,28,29
 250 1362 250 1362 250 1348 c 2,30,-1
 250 764 l 2,17,18
EndSplineSet
Validated: 1
Substitution2: "Single Substitution lookup 20 subtable" p
Substitution2: "'aalt' Access All Alternates lookup 0 subtable" p
Position2: "'cpsp' Capital Spacing lookup 0 subtable" dx=10 dy=0 dh=20 dv=0
EndChar

StartChar: Thorn
Encoding: 222 222 97
Width: 622
Flags: MW
HStem: 0 43G<102 221 102 102> 381 104<267 274 267 330 221 274> 977 109<266 274 274 309> 1413 41G<102 207 207 207>
VStem: 102 119<0 381 0 1454> 375 166<514 530>
LayerCount: 2
UndoRedoHistory
Layer: 1
Undoes
EndUndoes
Redoes
EndRedoes
EndUndoRedoHistory
Fore
SplineSet
356 1085 m 2,0,1
 434 1085 434 1085 487.5 1055.5 c 128,-1,2
 541 1026 541 1026 541 985 c 2,3,-1
 541 530 l 2,4,5
 541 519 541 519 537.5 504.5 c 128,-1,6
 534 490 534 490 521 467 c 128,-1,7
 508 444 508 444 487 426 c 128,-1,8
 466 408 466 408 425 394.5 c 128,-1,9
 384 381 384 381 330 381 c 2,10,-1
 221 381 l 1,11,-1
 221 0 l 1,12,-1
 102 0 l 1,13,-1
 102 1454 l 1,14,-1
 207 1454 l 1,15,-1
 227 1085 l 1,16,-1
 356 1085 l 2,0,1
250 502 m 2,17,18
 250 497 250 497 257 491 c 128,-1,19
 264 485 264 485 274 485 c 1,20,-1
 362 506 l 1,21,22
 375 506 375 506 375 518 c 2,23,-1
 395 911 l 1,24,25
 393 938 393 938 372.5 957.5 c 128,-1,26
 352 977 352 977 309 977 c 2,27,-1
 274 977 l 2,28,29
 250 977 250 977 250 963 c 2,30,-1
 250 502 l 2,17,18
EndSplineSet
Validated: 1
Substitution2: "Single Substitution lookup 20 subtable" thorn
Substitution2: "'aalt' Access All Alternates lookup 0 subtable" thorn
Position2: "'cpsp' Capital Spacing lookup 0 subtable" dx=10 dy=0 dh=20 dv=0
EndChar

StartChar: Q
Encoding: 81 81 98
Width: 651
Flags: MW
HStem: 61 143<246 291 246 334> 1327 127<260 266 266 393>
VStem: 102 145<1309 1315 1309 1360 1309 1360> 412 137<217 1309 1309 1315>
LayerCount: 2
UndoRedoHistory
Layer: 1
Undoes
EndUndoes
Redoes
EndRedoes
EndUndoRedoHistory
Fore
SplineSet
467 1454 m 1,0,-1
 549 1378 l 1,1,-1
 549 61 l 1,2,-1
 436 61 l 1,3,-1
 567 -254 l 1,4,-1
 465 -268 l 1,5,-1
 424 -233 l 1,6,-1
 334 61 l 1,7,-1
 102 61 l 1,8,-1
 102 1360 l 1,9,-1
 180 1454 l 1,10,-1
 467 1454 l 1,0,-1
412 1309 m 2,11,12
 412 1327 412 1327 393 1327 c 2,13,-1
 266 1327 l 2,14,15
 248 1327 248 1327 248 1309 c 2,16,-1
 227 217 l 2,17,18
 227 205 227 205 246 205 c 2,19,-1
 291 205 l 1,20,-1
 270 270 l 1,21,-1
 344 289 l 1,22,-1
 379 205 l 1,23,24
 390 205 390 205 401 209 c 128,-1,25
 412 213 412 213 412 217 c 2,26,-1
 412 1309 l 2,11,12
EndSplineSet
Validated: 1
Substitution2: "Single Substitution lookup 20 subtable" q
Substitution2: "'aalt' Access All Alternates lookup 0 subtable" q
Position2: "'cpsp' Capital Spacing lookup 0 subtable" dx=10 dy=0 dh=20 dv=0
EndChar

StartChar: R
Encoding: 82 82 99
Width: 653
Flags: MW
HStem: -6 43G<426 426> 0 43G<102 221 102 102 575 575> 637 131<274 281 221 383> 1366 88<274 337> 1395 59<57 377>
VStem: 102 119<0 637> 408 133
LayerCount: 2
UndoRedoHistory
Layer: 1
Undoes
EndUndoes
Redoes
EndRedoes
EndUndoRedoHistory
Fore
SplineSet
221 0 m 1,0,-1
 102 0 l 1,1,-1
 102 1370 l 1,2,-1
 57 1395 l 1,3,-1
 57 1454 l 1,4,-1
 377 1454 l 2,5,6
 454 1454 454 1454 506.5 1425 c 128,-1,7
 559 1396 559 1396 561 1354 c 1,8,-1
 541 786 l 2,9,10
 541 775 541 775 536.5 759.5 c 128,-1,11
 532 744 532 744 520 722 c 128,-1,12
 508 700 508 700 480 679 c 128,-1,13
 452 658 452 658 412 647 c 1,14,-1
 532 422 l 1,15,-1
 575 0 l 1,16,-1
 426 -6 l 1,17,-1
 393 395 l 1,18,-1
 281 637 l 1,19,-1
 221 637 l 1,20,-1
 221 0 l 1,0,-1
250 784 m 2,21,22
 250 779 250 779 257 773.5 c 128,-1,23
 264 768 264 768 274 768 c 2,24,-1
 383 768 l 2,25,26
 395 768 395 768 395 780 c 2,27,-1
 408 1298 l 2,28,29
 408 1312 408 1312 404 1321.5 c 128,-1,30
 400 1331 400 1331 388 1342.5 c 128,-1,31
 376 1354 376 1354 347 1360 c 128,-1,32
 318 1366 318 1366 274 1366 c 1,33,34
 250 1357 250 1357 250 1341 c 2,35,-1
 250 784 l 2,21,22
EndSplineSet
Validated: 1
Substitution2: "Single Substitution lookup 20 subtable" r
Substitution2: "'aalt' Access All Alternates lookup 0 subtable" r
Position2: "'cpsp' Capital Spacing lookup 0 subtable" dx=10 dy=0 dh=20 dv=0
EndChar

StartChar: Racute
Encoding: 340 340 100
Width: 653
Flags: MW
HStem: -6 43G<426 426> 0 43G<102 221 102 102 575 575> 637 131<274 281 221 383> 1366 88<274 337> 1395 59<57 377>
VStem: 102 119<0 637> 408 133
LayerCount: 2
UndoRedoHistory
Layer: 1
Undoes
EndUndoes
Redoes
EndRedoes
EndUndoRedoHistory
Fore
SplineSet
479 1743 m 1,0,-1
 283 1571 l 1,1,-1
 213 1620 l 1,2,-1
 385 1841 l 1,3,-1
 479 1743 l 1,0,-1
221 0 m 1,4,-1
 102 0 l 1,5,-1
 102 1370 l 1,6,-1
 57 1395 l 1,7,-1
 57 1454 l 1,8,-1
 377 1454 l 2,9,10
 454 1454 454 1454 506.5 1425 c 128,-1,11
 559 1396 559 1396 561 1354 c 1,12,-1
 541 786 l 2,13,14
 541 775 541 775 536.5 759.5 c 128,-1,15
 532 744 532 744 520 722 c 128,-1,16
 508 700 508 700 480 679 c 128,-1,17
 452 658 452 658 412 647 c 1,18,-1
 532 422 l 1,19,-1
 575 0 l 1,20,-1
 426 -6 l 1,21,-1
 393 395 l 1,22,-1
 281 637 l 1,23,-1
 221 637 l 1,24,-1
 221 0 l 1,4,-1
250 784 m 2,25,26
 250 779 250 779 257 773.5 c 128,-1,27
 264 768 264 768 274 768 c 2,28,-1
 383 768 l 2,29,30
 395 768 395 768 395 780 c 2,31,-1
 408 1298 l 2,32,33
 408 1312 408 1312 404 1321.5 c 128,-1,34
 400 1331 400 1331 388 1342.5 c 128,-1,35
 376 1354 376 1354 347 1360 c 128,-1,36
 318 1366 318 1366 274 1366 c 1,37,38
 250 1357 250 1357 250 1341 c 2,39,-1
 250 784 l 2,25,26
EndSplineSet
Validated: 1
Substitution2: "Single Substitution lookup 20 subtable" racute
Substitution2: "'aalt' Access All Alternates lookup 0 subtable" racute
Position2: "'cpsp' Capital Spacing lookup 0 subtable" dx=10 dy=0 dh=20 dv=0
EndChar

StartChar: Rcaron
Encoding: 344 344 101
Width: 653
Flags: MW
HStem: -6 43G<426 426> 0 43G<102 221 102 102 575 575> 637 131<274 281 221 383> 1366 88<274 337> 1395 59<57 377>
VStem: 102 119<0 637> 408 133
LayerCount: 2
UndoRedoHistory
Layer: 1
Undoes
EndUndoes
Redoes
EndRedoes
EndUndoRedoHistory
Fore
SplineSet
295 1577 m 1,0,-1
 143 1802 l 1,1,-1
 203 1841 l 1,2,-1
 336 1714 l 1,3,-1
 469 1841 l 1,4,-1
 528 1802 l 1,5,-1
 377 1571 l 1,6,-1
 295 1577 l 1,0,-1
221 0 m 1,7,-1
 102 0 l 1,8,-1
 102 1370 l 1,9,-1
 57 1395 l 1,10,-1
 57 1454 l 1,11,-1
 377 1454 l 2,12,13
 454 1454 454 1454 506.5 1425 c 128,-1,14
 559 1396 559 1396 561 1354 c 1,15,-1
 541 786 l 2,16,17
 541 775 541 775 536.5 759.5 c 128,-1,18
 532 744 532 744 520 722 c 128,-1,19
 508 700 508 700 480 679 c 128,-1,20
 452 658 452 658 412 647 c 1,21,-1
 532 422 l 1,22,-1
 575 0 l 1,23,-1
 426 -6 l 1,24,-1
 393 395 l 1,25,-1
 281 637 l 1,26,-1
 221 637 l 1,27,-1
 221 0 l 1,7,-1
250 784 m 2,28,29
 250 779 250 779 257 773.5 c 128,-1,30
 264 768 264 768 274 768 c 2,31,-1
 383 768 l 2,32,33
 395 768 395 768 395 780 c 2,34,-1
 408 1298 l 2,35,36
 408 1312 408 1312 404 1321.5 c 128,-1,37
 400 1331 400 1331 388 1342.5 c 128,-1,38
 376 1354 376 1354 347 1360 c 128,-1,39
 318 1366 318 1366 274 1366 c 1,40,41
 250 1357 250 1357 250 1341 c 2,42,-1
 250 784 l 2,28,29
EndSplineSet
Validated: 1
Substitution2: "Single Substitution lookup 20 subtable" rcaron
Substitution2: "'aalt' Access All Alternates lookup 0 subtable" rcaron
Position2: "'cpsp' Capital Spacing lookup 0 subtable" dx=10 dy=0 dh=20 dv=0
EndChar

StartChar: Rcommaaccent
Encoding: 342 342 102
Width: 653
Flags: MW
HStem: -512 43G<328 328> -328 168<223 309 223 389 223 395> -6 43G<426 426> 0 43G<102 221 102 102 575 575> 637 131<274 281 221 383> 1366 88<274 337> 1395 59<57 377>
VStem: 102 119<0 637> 223 169 408 133
LayerCount: 2
UndoRedoHistory
Layer: 1
Undoes
EndUndoes
Redoes
EndRedoes
EndUndoRedoHistory
Fore
SplineSet
221 0 m 1,0,-1
 102 0 l 1,1,-1
 102 1370 l 1,2,-1
 57 1395 l 1,3,-1
 57 1454 l 1,4,-1
 377 1454 l 2,5,6
 454 1454 454 1454 506.5 1425 c 128,-1,7
 559 1396 559 1396 561 1354 c 1,8,-1
 541 786 l 2,9,10
 541 775 541 775 536.5 759.5 c 128,-1,11
 532 744 532 744 520 722 c 128,-1,12
 508 700 508 700 480 679 c 128,-1,13
 452 658 452 658 412 647 c 1,14,-1
 532 422 l 1,15,-1
 575 0 l 1,16,-1
 426 -6 l 1,17,-1
 393 395 l 1,18,-1
 281 637 l 1,19,-1
 221 637 l 1,20,-1
 221 0 l 1,0,-1
250 784 m 2,21,22
 250 779 250 779 257 773.5 c 128,-1,23
 264 768 264 768 274 768 c 2,24,-1
 383 768 l 2,25,26
 395 768 395 768 395 780 c 2,27,-1
 408 1298 l 2,28,29
 408 1312 408 1312 404 1321.5 c 128,-1,30
 400 1331 400 1331 388 1342.5 c 128,-1,31
 376 1354 376 1354 347 1360 c 128,-1,32
 318 1366 318 1366 274 1366 c 1,33,34
 250 1357 250 1357 250 1341 c 2,35,-1
 250 784 l 2,21,22
389 -160 m 1,36,-1
 395 -328 l 1,37,-1
 328 -512 l 1,38,-1
 215 -479 l 1,39,-1
 309 -328 l 1,40,-1
 223 -328 l 1,41,-1
 223 -160 l 1,42,-1
 389 -160 l 1,36,-1
EndSplineSet
Validated: 1
Substitution2: "Single Substitution lookup 20 subtable" rcommaaccent
Substitution2: "'aalt' Access All Alternates lookup 0 subtable" rcommaaccent
Position2: "'cpsp' Capital Spacing lookup 0 subtable" dx=10 dy=0 dh=20 dv=0
EndChar

StartChar: Rdotbelow
Encoding: 7770 7770 103
Width: 653
Flags: MW
HStem: -312 198 -6 43G<426 426> 0 43G<102 221 102 102 575 575> 637 131<274 281 221 383> 1366 88<274 337> 1395 59<57 377>
VStem: 102 119<0 637> 229 186 408 133
LayerCount: 2
UndoRedoHistory
Layer: 1
Undoes
EndUndoes
Redoes
EndRedoes
EndUndoRedoHistory
Fore
SplineSet
221 0 m 1,0,-1
 102 0 l 1,1,-1
 102 1370 l 1,2,-1
 57 1395 l 1,3,-1
 57 1454 l 1,4,-1
 377 1454 l 2,5,6
 454 1454 454 1454 506.5 1425 c 128,-1,7
 559 1396 559 1396 561 1354 c 1,8,-1
 541 786 l 2,9,10
 541 775 541 775 536.5 759.5 c 128,-1,11
 532 744 532 744 520 722 c 128,-1,12
 508 700 508 700 480 679 c 128,-1,13
 452 658 452 658 412 647 c 1,14,-1
 532 422 l 1,15,-1
 575 0 l 1,16,-1
 426 -6 l 1,17,-1
 393 395 l 1,18,-1
 281 637 l 1,19,-1
 221 637 l 1,20,-1
 221 0 l 1,0,-1
250 784 m 2,21,22
 250 779 250 779 257 773.5 c 128,-1,23
 264 768 264 768 274 768 c 2,24,-1
 383 768 l 2,25,26
 395 768 395 768 395 780 c 2,27,-1
 408 1298 l 2,28,29
 408 1312 408 1312 404 1321.5 c 128,-1,30
 400 1331 400 1331 388 1342.5 c 128,-1,31
 376 1354 376 1354 347 1360 c 128,-1,32
 318 1366 318 1366 274 1366 c 1,33,34
 250 1357 250 1357 250 1341 c 2,35,-1
 250 784 l 2,21,22
416 -115 m 1,36,-1
 416 -309 l 1,37,-1
 233 -315 l 1,38,-1
 225 -115 l 1,39,-1
 416 -115 l 1,36,-1
EndSplineSet
Validated: 1
Substitution2: "Single Substitution lookup 20 subtable" rdotbelow
Substitution2: "'aalt' Access All Alternates lookup 0 subtable" rdotbelow
Position2: "'cpsp' Capital Spacing lookup 0 subtable" dx=10 dy=0 dh=20 dv=0
EndChar

StartChar: S
Encoding: 83 83 104
Width: 587
Flags: MW
HStem: 0 139<82 367 82 375 82 367> 1354 100<164 506>
VStem: 82 148
LayerCount: 2
UndoRedoHistory
Layer: 1
Undoes
EndUndoes
Redoes
EndRedoes
EndUndoRedoHistory
Fore
SplineSet
246 862 m 1,0,-1
 506 795 l 1,1,-1
 506 123 l 2,2,3
 506 81 506 81 463 40.5 c 128,-1,4
 420 0 420 0 375 0 c 2,5,-1
 82 0 l 1,6,-1
 82 139 l 1,7,-1
 367 139 l 1,8,-1
 317 688 l 1,9,-1
 82 750 l 1,10,-1
 82 1358 l 2,11,12
 82 1391 82 1391 107.5 1422.5 c 128,-1,13
 133 1454 133 1454 164 1454 c 2,14,-1
 506 1454 l 1,15,-1
 506 1354 l 1,16,-1
 215 1315 l 1,17,-1
 246 862 l 1,0,-1
EndSplineSet
Validated: 1
Substitution2: "Single Substitution lookup 20 subtable" s
Substitution2: "'aalt' Access All Alternates lookup 0 subtable" s
Position2: "'cpsp' Capital Spacing lookup 0 subtable" dx=10 dy=0 dh=20 dv=0
EndChar

StartChar: Sacute
Encoding: 346 346 105
Width: 587
Flags: MW
HStem: 0 139<82 367 82 375 82 367> 1354 100<164 506>
VStem: 82 148
LayerCount: 2
UndoRedoHistory
Layer: 1
Undoes
EndUndoes
Redoes
EndRedoes
EndUndoRedoHistory
Fore
SplineSet
471 1745 m 1,0,-1
 274 1573 l 1,1,-1
 205 1622 l 1,2,-1
 377 1843 l 1,3,-1
 471 1745 l 1,0,-1
246 862 m 1,4,-1
 506 795 l 1,5,-1
 506 123 l 2,6,7
 506 81 506 81 463 40.5 c 128,-1,8
 420 0 420 0 375 0 c 2,9,-1
 82 0 l 1,10,-1
 82 139 l 1,11,-1
 367 139 l 1,12,-1
 317 688 l 1,13,-1
 82 750 l 1,14,-1
 82 1358 l 2,15,16
 82 1391 82 1391 107.5 1422.5 c 128,-1,17
 133 1454 133 1454 164 1454 c 2,18,-1
 506 1454 l 1,19,-1
 506 1354 l 1,20,-1
 215 1315 l 1,21,-1
 246 862 l 1,4,-1
EndSplineSet
Validated: 1
Substitution2: "Single Substitution lookup 20 subtable" sacute
Substitution2: "'locl' Localized Forms in Latin lookup 11 subtable" Sacute.loclPLK
AlternateSubs2: "'aalt' Access All Alternates lookup 1 subtable" Sacute.loclPLK sacute
Position2: "'cpsp' Capital Spacing lookup 0 subtable" dx=10 dy=0 dh=20 dv=0
EndChar

StartChar: Scaron
Encoding: 352 352 106
Width: 587
Flags: MW
HStem: 0 139<82 367 82 375 82 367> 1354 100<164 506>
VStem: 82 148
LayerCount: 2
UndoRedoHistory
Layer: 1
Undoes
EndUndoes
Redoes
EndRedoes
EndUndoRedoHistory
Fore
SplineSet
274 1579 m 1,0,-1
 123 1804 l 1,1,-1
 182 1843 l 1,2,-1
 315 1716 l 1,3,-1
 449 1843 l 1,4,-1
 508 1804 l 1,5,-1
 356 1573 l 1,6,-1
 274 1579 l 1,0,-1
246 862 m 1,7,-1
 506 795 l 1,8,-1
 506 123 l 2,9,10
 506 81 506 81 463 40.5 c 128,-1,11
 420 0 420 0 375 0 c 2,12,-1
 82 0 l 1,13,-1
 82 139 l 1,14,-1
 367 139 l 1,15,-1
 317 688 l 1,16,-1
 82 750 l 1,17,-1
 82 1358 l 2,18,19
 82 1391 82 1391 107.5 1422.5 c 128,-1,20
 133 1454 133 1454 164 1454 c 2,21,-1
 506 1454 l 1,22,-1
 506 1354 l 1,23,-1
 215 1315 l 1,24,-1
 246 862 l 1,7,-1
EndSplineSet
Validated: 1
Substitution2: "Single Substitution lookup 20 subtable" scaron
Substitution2: "'aalt' Access All Alternates lookup 0 subtable" scaron
Position2: "'cpsp' Capital Spacing lookup 0 subtable" dx=10 dy=0 dh=20 dv=0
EndChar

StartChar: Scedilla
Encoding: 350 350 107
Width: 587
Flags: MW
HStem: -426 119<82 334 82 346> -190 98 0 139<82 203 82 367 332 367 82 375 332 332> 1354 100<164 506>
VStem: 82 148 82 383<-332 -307 -307 -307 -332 139>
LayerCount: 2
UndoRedoHistory
Layer: 1
Undoes
EndUndoes
Redoes
EndRedoes
EndUndoRedoHistory
Fore
SplineSet
246 862 m 1,0,-1
 506 795 l 1,1,-1
 506 123 l 2,2,3
 506 81 506 81 463 40.5 c 128,-1,4
 420 0 420 0 375 0 c 2,5,-1
 332 0 l 1,6,-1
 285 -92 l 1,7,-1
 514 -92 l 1,8,-1
 465 -303 l 1,9,10
 465 -345 465 -345 422 -385.5 c 128,-1,11
 379 -426 379 -426 334 -426 c 2,12,-1
 82 -426 l 1,13,-1
 82 -307 l 1,14,-1
 346 -307 l 1,15,-1
 367 -199 l 1,16,-1
 152 -182 l 1,17,-1
 203 0 l 1,18,-1
 82 0 l 1,19,-1
 82 139 l 1,20,-1
 367 139 l 1,21,-1
 317 688 l 1,22,-1
 82 750 l 1,23,-1
 82 1358 l 2,24,25
 82 1391 82 1391 107.5 1422.5 c 128,-1,26
 133 1454 133 1454 164 1454 c 2,27,-1
 506 1454 l 1,28,-1
 506 1354 l 1,29,-1
 215 1315 l 1,30,-1
 246 862 l 1,0,-1
EndSplineSet
Validated: 1
Substitution2: "Single Substitution lookup 20 subtable" scedilla
Substitution2: "'locl' Localized Forms in Latin lookup 10 subtable" Scommaaccent
Substitution2: "'locl' Localized Forms in Latin lookup 9 subtable" Scommaaccent
AlternateSubs2: "'aalt' Access All Alternates lookup 1 subtable" Scommaaccent scedilla
Position2: "'cpsp' Capital Spacing lookup 0 subtable" dx=10 dy=0 dh=20 dv=0
EndChar

StartChar: Scircumflex
Encoding: 348 348 108
Width: 587
Flags: MW
HStem: 0 139<82 367 82 375 82 367> 1354 100<164 506>
VStem: 82 148
LayerCount: 2
UndoRedoHistory
Layer: 1
Undoes
EndUndoes
Redoes
EndRedoes
EndUndoRedoHistory
Fore
SplineSet
356 1837 m 1,0,-1
 508 1612 l 1,1,-1
 449 1573 l 1,2,-1
 315 1700 l 1,3,-1
 182 1573 l 1,4,-1
 123 1612 l 1,5,-1
 274 1843 l 1,6,-1
 356 1837 l 1,0,-1
246 862 m 1,7,-1
 506 795 l 1,8,-1
 506 123 l 2,9,10
 506 81 506 81 463 40.5 c 128,-1,11
 420 0 420 0 375 0 c 2,12,-1
 82 0 l 1,13,-1
 82 139 l 1,14,-1
 367 139 l 1,15,-1
 317 688 l 1,16,-1
 82 750 l 1,17,-1
 82 1358 l 2,18,19
 82 1391 82 1391 107.5 1422.5 c 128,-1,20
 133 1454 133 1454 164 1454 c 2,21,-1
 506 1454 l 1,22,-1
 506 1354 l 1,23,-1
 215 1315 l 1,24,-1
 246 862 l 1,7,-1
EndSplineSet
Validated: 1
Substitution2: "Single Substitution lookup 20 subtable" scircumflex
Substitution2: "'aalt' Access All Alternates lookup 0 subtable" scircumflex
Position2: "'cpsp' Capital Spacing lookup 0 subtable" dx=10 dy=0 dh=20 dv=0
EndChar

StartChar: Scommaaccent
Encoding: 536 536 109
Width: 587
Flags: MW
HStem: -512 43G<297 297> -328 168<193 279 193 358 193 365> 0 139<82 367 82 375 82 367> 1354 100<164 506>
VStem: 82 148 193 169
LayerCount: 2
UndoRedoHistory
Layer: 1
Undoes
EndUndoes
Redoes
EndRedoes
EndUndoRedoHistory
Fore
SplineSet
246 862 m 1,0,-1
 506 795 l 1,1,-1
 506 123 l 2,2,3
 506 81 506 81 463 40.5 c 128,-1,4
 420 0 420 0 375 0 c 2,5,-1
 82 0 l 1,6,-1
 82 139 l 1,7,-1
 367 139 l 1,8,-1
 317 688 l 1,9,-1
 82 750 l 1,10,-1
 82 1358 l 2,11,12
 82 1391 82 1391 107.5 1422.5 c 128,-1,13
 133 1454 133 1454 164 1454 c 2,14,-1
 506 1454 l 1,15,-1
 506 1354 l 1,16,-1
 215 1315 l 1,17,-1
 246 862 l 1,0,-1
358 -160 m 1,18,-1
 365 -328 l 1,19,-1
 297 -512 l 1,20,-1
 184 -479 l 1,21,-1
 279 -328 l 1,22,-1
 193 -328 l 1,23,-1
 193 -160 l 1,24,-1
 358 -160 l 1,18,-1
EndSplineSet
Validated: 1
Substitution2: "Single Substitution lookup 20 subtable" scommaaccent
Substitution2: "'aalt' Access All Alternates lookup 0 subtable" scommaaccent
Position2: "'cpsp' Capital Spacing lookup 0 subtable" dx=10 dy=0 dh=20 dv=0
EndChar

StartChar: Sdotbelow
Encoding: 7778 7778 110
Width: 587
Flags: MW
HStem: -312 198 0 139<82 367 82 375 82 367> 1354 100<164 506>
VStem: 82 148 188 186
LayerCount: 2
UndoRedoHistory
Layer: 1
Undoes
EndUndoes
Redoes
EndRedoes
EndUndoRedoHistory
Fore
SplineSet
246 862 m 1,0,-1
 506 795 l 1,1,-1
 506 123 l 2,2,3
 506 81 506 81 463 40.5 c 128,-1,4
 420 0 420 0 375 0 c 2,5,-1
 82 0 l 1,6,-1
 82 139 l 1,7,-1
 367 139 l 1,8,-1
 317 688 l 1,9,-1
 82 750 l 1,10,-1
 82 1358 l 2,11,12
 82 1391 82 1391 107.5 1422.5 c 128,-1,13
 133 1454 133 1454 164 1454 c 2,14,-1
 506 1454 l 1,15,-1
 506 1354 l 1,16,-1
 215 1315 l 1,17,-1
 246 862 l 1,0,-1
375 -115 m 1,18,-1
 375 -309 l 1,19,-1
 193 -315 l 1,20,-1
 184 -115 l 1,21,-1
 375 -115 l 1,18,-1
EndSplineSet
Validated: 1
Substitution2: "Single Substitution lookup 20 subtable" sdotbelow
Substitution2: "'aalt' Access All Alternates lookup 0 subtable" sdotbelow
Position2: "'cpsp' Capital Spacing lookup 0 subtable" dx=10 dy=0 dh=20 dv=0
EndChar

StartChar: uni1E9E
Encoding: 7838 7838 111
Width: 847
Flags: MW
HStem: -2 43G<113 281 113 113> 0 43G<383 594 383 383> 0 160<586 586 586 594> 1331 123<414 414>
VStem: 113 146 596 150
LayerCount: 2
UndoRedoHistory
Layer: 1
Undoes
EndUndoes
Redoes
EndRedoes
EndUndoRedoHistory
Fore
SplineSet
745 164 m 1,0,-1
 594 0 l 1,1,-1
 383 0 l 1,2,-1
 375 131 l 1,3,-1
 586 160 l 1,4,-1
 606 565 l 1,5,-1
 383 811 l 1,6,-1
 330 940 l 1,7,-1
 479 1286 l 1,8,-1
 414 1331 l 1,9,-1
 238 1262 l 1,10,-1
 281 -2 l 1,11,-1
 113 -2 l 1,12,-1
 113 1311 l 1,13,-1
 299 1454 l 1,14,-1
 678 1454 l 1,15,-1
 467 930 l 1,16,-1
 469 920 l 1,17,-1
 745 707 l 1,18,-1
 745 164 l 1,0,-1
EndSplineSet
Validated: 1
Substitution2: "Single Substitution lookup 20 subtable" germandbls
Substitution2: "'aalt' Access All Alternates lookup 0 subtable" germandbls
Position2: "'cpsp' Capital Spacing lookup 0 subtable" dx=10 dy=0 dh=20 dv=0
EndChar

StartChar: Schwa
Encoding: 399 399 112
Width: 729
Flags: MW
HStem: 41 147<272 422 422 431 272 532> 614 139 1333 121<141 416 141 141>
VStem: 102 129<205 213 205 766> 493 146
LayerCount: 2
UndoRedoHistory
Layer: 1
Undoes
EndUndoes
Redoes
EndRedoes
EndUndoRedoHistory
Fore
SplineSet
483 741 m 1,0,-1
 502 1241 l 1,1,2
 499 1333 499 1333 416 1333 c 2,3,-1
 141 1333 l 1,4,-1
 129 1454 l 1,5,-1
 565 1454 l 1,6,-1
 639 1343 l 1,7,-1
 639 199 l 2,8,9
 639 124 639 124 607.5 82.5 c 128,-1,10
 576 41 576 41 532 41 c 2,11,-1
 102 41 l 1,12,-1
 102 766 l 1,13,-1
 483 741 l 1,0,-1
422 188 m 2,14,15
 436 188 436 188 450.5 200 c 128,-1,16
 465 212 465 212 465 225 c 2,17,-1
 479 614 l 1,18,-1
 211 614 l 1,19,-1
 231 213 l 2,20,21
 231 202 231 202 244.5 195 c 128,-1,22
 258 188 258 188 272 188 c 2,23,-1
 422 188 l 2,14,15
EndSplineSet
Validated: 1
Substitution2: "Single Substitution lookup 20 subtable" schwa
Substitution2: "'aalt' Access All Alternates lookup 0 subtable" schwa
Position2: "'cpsp' Capital Spacing lookup 0 subtable" dx=10 dy=0 dh=20 dv=0
EndChar

StartChar: T
Encoding: 84 84 113
Width: 563
Flags: MW
HStem: 1337 117<365 365 365 512> 1376 78<51 512>
VStem: 193 172<41 1337 41 1352 41 1352>
LayerCount: 2
UndoRedoHistory
Layer: 1
Undoes
EndUndoes
Redoes
EndRedoes
EndUndoRedoHistory
Fore
SplineSet
365 1337 m 1,0,-1
 365 41 l 1,1,-1
 193 41 l 1,2,-1
 193 1352 l 1,3,-1
 51 1376 l 1,4,-1
 72 1454 l 1,5,-1
 512 1454 l 1,6,-1
 512 1337 l 1,7,-1
 365 1337 l 1,0,-1
EndSplineSet
Validated: 1
Substitution2: "Single Substitution lookup 20 subtable" t
Substitution2: "'aalt' Access All Alternates lookup 0 subtable" t
Position2: "'cpsp' Capital Spacing lookup 0 subtable" dx=10 dy=0 dh=20 dv=0
EndChar

StartChar: Tbar
Encoding: 358 358 114
Width: 563
Flags: MW
HStem: 892 116 1317 137<365 553 365 365> 1356 98<10 553>
VStem: 193 172<41 883 883 883 1008 1317>
LayerCount: 2
UndoRedoHistory
Layer: 1
Undoes
EndUndoes
Redoes
EndRedoes
EndUndoRedoHistory
Fore
SplineSet
193 1331 m 1,0,-1
 10 1356 l 1,1,-1
 31 1454 l 1,2,-1
 553 1454 l 1,3,-1
 553 1317 l 1,4,-1
 365 1317 l 1,5,-1
 365 1008 l 1,6,-1
 557 1008 l 1,7,-1
 557 895 l 1,8,-1
 365 889 l 1,9,-1
 365 41 l 1,10,-1
 193 41 l 1,11,-1
 193 883 l 1,12,-1
 14 877 l 1,13,-1
 8 1008 l 1,14,-1
 193 1008 l 1,15,-1
 193 1331 l 1,0,-1
EndSplineSet
Validated: 1
Substitution2: "Single Substitution lookup 20 subtable" tbar
Substitution2: "'aalt' Access All Alternates lookup 0 subtable" tbar
Position2: "'cpsp' Capital Spacing lookup 0 subtable" dx=10 dy=0 dh=20 dv=0
EndChar

StartChar: Tcaron
Encoding: 356 356 115
Width: 563
Flags: MW
HStem: 1337 117<365 365 365 512> 1376 78<51 512>
VStem: 193 172<41 1337 41 1352 41 1352>
LayerCount: 2
UndoRedoHistory
Layer: 1
Undoes
EndUndoes
Redoes
EndRedoes
EndUndoRedoHistory
Fore
SplineSet
244 1579 m 1,0,-1
 92 1804 l 1,1,-1
 152 1843 l 1,2,-1
 285 1716 l 1,3,-1
 418 1843 l 1,4,-1
 477 1804 l 1,5,-1
 326 1573 l 1,6,-1
 244 1579 l 1,0,-1
365 1337 m 1,7,-1
 365 41 l 1,8,-1
 193 41 l 1,9,-1
 193 1352 l 1,10,-1
 51 1376 l 1,11,-1
 72 1454 l 1,12,-1
 512 1454 l 1,13,-1
 512 1337 l 1,14,-1
 365 1337 l 1,7,-1
EndSplineSet
Validated: 1
Substitution2: "Single Substitution lookup 20 subtable" tcaron
Substitution2: "'aalt' Access All Alternates lookup 0 subtable" tcaron
Position2: "'cpsp' Capital Spacing lookup 0 subtable" dx=10 dy=0 dh=20 dv=0
EndChar

StartChar: Tcedilla
Encoding: 354 354 116
Width: 563
Flags: MW
HStem: -426 119<59 311 59 324> -190 98 1337 117<365 365 365 512> 1376 78<51 512>
VStem: 59 383<-332 -307 -307 -307> 193 172<43 1337 41 1352 41 1352>
LayerCount: 2
UndoRedoHistory
Layer: 1
Undoes
EndUndoes
Redoes
EndRedoes
EndUndoRedoHistory
Fore
SplineSet
365 1337 m 1,0,-1
 365 41 l 1,1,-1
 332 41 l 1,2,-1
 262 -92 l 1,3,-1
 492 -92 l 1,4,-1
 442 -303 l 1,5,6
 442 -345 442 -345 399 -385.5 c 128,-1,7
 356 -426 356 -426 311 -426 c 2,8,-1
 59 -426 l 1,9,-1
 59 -307 l 1,10,-1
 324 -307 l 1,11,-1
 344 -199 l 1,12,-1
 129 -182 l 1,13,-1
 193 43 l 1,14,-1
 193 1352 l 1,15,-1
 51 1376 l 1,16,-1
 72 1454 l 1,17,-1
 512 1454 l 1,18,-1
 512 1337 l 1,19,-1
 365 1337 l 1,0,-1
EndSplineSet
Validated: 1
Substitution2: "Single Substitution lookup 20 subtable" tcedilla
Substitution2: "'locl' Localized Forms in Latin lookup 10 subtable" uni021A
Substitution2: "'locl' Localized Forms in Latin lookup 9 subtable" uni021A
AlternateSubs2: "'aalt' Access All Alternates lookup 1 subtable" uni021A tcedilla
Position2: "'cpsp' Capital Spacing lookup 0 subtable" dx=10 dy=0 dh=20 dv=0
EndChar

StartChar: uni021A
Encoding: 538 538 117
Width: 563
Flags: MW
HStem: -512 43G<299 299> -328 168<195 281 195 360 195 367> 1337 117<365 365 365 512> 1376 78<51 512>
VStem: 193 172<41 1337 41 1352 41 1352>
LayerCount: 2
UndoRedoHistory
Layer: 1
Undoes
EndUndoes
Redoes
EndRedoes
EndUndoRedoHistory
Fore
SplineSet
365 1337 m 1,0,-1
 365 41 l 1,1,-1
 193 41 l 1,2,-1
 193 1352 l 1,3,-1
 51 1376 l 1,4,-1
 72 1454 l 1,5,-1
 512 1454 l 1,6,-1
 512 1337 l 1,7,-1
 365 1337 l 1,0,-1
360 -160 m 1,8,-1
 367 -328 l 1,9,-1
 299 -512 l 1,10,-1
 186 -479 l 1,11,-1
 281 -328 l 1,12,-1
 195 -328 l 1,13,-1
 195 -160 l 1,14,-1
 360 -160 l 1,8,-1
EndSplineSet
Validated: 1
Substitution2: "Single Substitution lookup 20 subtable" uni021B
Substitution2: "'aalt' Access All Alternates lookup 0 subtable" uni021B
Position2: "'cpsp' Capital Spacing lookup 0 subtable" dx=10 dy=0 dh=20 dv=0
EndChar

StartChar: Tdotbelow
Encoding: 7788 7788 118
Width: 563
Flags: MW
HStem: -312 198 1337 117<365 365 365 512> 1376 78<51 512>
VStem: 180 186 193 172<41 1337 41 1352 41 1352>
LayerCount: 2
UndoRedoHistory
Layer: 1
Undoes
EndUndoes
Redoes
EndRedoes
EndUndoRedoHistory
Fore
SplineSet
365 1337 m 1,0,-1
 365 41 l 1,1,-1
 193 41 l 1,2,-1
 193 1352 l 1,3,-1
 51 1376 l 1,4,-1
 72 1454 l 1,5,-1
 512 1454 l 1,6,-1
 512 1337 l 1,7,-1
 365 1337 l 1,0,-1
367 -115 m 1,8,-1
 367 -309 l 1,9,-1
 184 -315 l 1,10,-1
 176 -115 l 1,11,-1
 367 -115 l 1,8,-1
EndSplineSet
Validated: 1
Substitution2: "Single Substitution lookup 20 subtable" tdotbelow
Substitution2: "'aalt' Access All Alternates lookup 0 subtable" tdotbelow
Position2: "'cpsp' Capital Spacing lookup 0 subtable" dx=10 dy=0 dh=20 dv=0
EndChar

StartChar: U
Encoding: 85 85 119
Width: 634
Flags: MW
HStem: 0 135 1413 41G<360 532 532 532>
VStem: 102 123<141 1407 141 1407 141 1407> 382 151
LayerCount: 2
UndoRedoHistory
Layer: 1
Undoes
EndUndoes
Redoes
EndRedoes
EndUndoRedoHistory
Fore
SplineSet
532 82 m 2,0,1
 532 53 532 53 503 26.5 c 128,-1,2
 474 0 474 0 444 0 c 2,3,-1
 102 0 l 1,4,-1
 102 1407 l 1,5,-1
 225 1407 l 1,6,-1
 225 141 l 1,7,-1
 403 129 l 1,8,-1
 360 1454 l 1,9,-1
 532 1454 l 1,10,-1
 532 82 l 2,0,1
EndSplineSet
Validated: 1
Substitution2: "Single Substitution lookup 21 subtable" u
Substitution2: "'aalt' Access All Alternates lookup 0 subtable" u
Position2: "'cpsp' Capital Spacing lookup 0 subtable" dx=10 dy=0 dh=20 dv=0
EndChar

StartChar: Uacute
Encoding: 218 218 120
Width: 634
Flags: MW
HStem: 0 135 1413 41G<360 532 532 532>
VStem: 102 123<141 1407 141 1407 141 1407> 382 151
LayerCount: 2
UndoRedoHistory
Layer: 1
Undoes
EndUndoes
Redoes
EndRedoes
EndUndoRedoHistory
Fore
SplineSet
492 1745 m 1,0,-1
 295 1573 l 1,1,-1
 225 1622 l 1,2,-1
 397 1843 l 1,3,-1
 492 1745 l 1,0,-1
532 82 m 2,4,5
 532 53 532 53 503 26.5 c 128,-1,6
 474 0 474 0 444 0 c 2,7,-1
 102 0 l 1,8,-1
 102 1407 l 1,9,-1
 225 1407 l 1,10,-1
 225 141 l 1,11,-1
 403 129 l 1,12,-1
 360 1454 l 1,13,-1
 532 1454 l 1,14,-1
 532 82 l 2,4,5
EndSplineSet
Validated: 1
Substitution2: "Single Substitution lookup 21 subtable" uacute
Substitution2: "'aalt' Access All Alternates lookup 0 subtable" uacute
Position2: "'cpsp' Capital Spacing lookup 0 subtable" dx=10 dy=0 dh=20 dv=0
EndChar

StartChar: Ubreve
Encoding: 364 364 121
Width: 634
Flags: MW
HStem: 0 135 1413 41G<360 532 532 532> 1608 97 1733 98<190 190>
VStem: 96 99 102 123<141 1407 141 1407 141 1407> 382 151 437 91
LayerCount: 2
UndoRedoHistory
Layer: 1
Undoes
EndUndoes
Redoes
EndRedoes
EndUndoRedoHistory
Fore
SplineSet
190 1733 m 1,0,-1
 215 1710 l 1,1,-1
 440 1700 l 1,2,-1
 434 1835 l 1,3,-1
 528 1843 l 1,4,-1
 528 1688 l 1,5,-1
 449 1608 l 1,6,-1
 193 1608 l 1,7,-1
 100 1665 l 1,8,-1
 92 1831 l 1,9,-1
 201 1831 l 1,10,-1
 190 1733 l 1,0,-1
532 82 m 2,11,12
 532 53 532 53 503 26.5 c 128,-1,13
 474 0 474 0 444 0 c 2,14,-1
 102 0 l 1,15,-1
 102 1407 l 1,16,-1
 225 1407 l 1,17,-1
 225 141 l 1,18,-1
 403 129 l 1,19,-1
 360 1454 l 1,20,-1
 532 1454 l 1,21,-1
 532 82 l 2,11,12
EndSplineSet
Validated: 1
Substitution2: "Single Substitution lookup 21 subtable" ubreve
Substitution2: "'aalt' Access All Alternates lookup 0 subtable" ubreve
Position2: "'cpsp' Capital Spacing lookup 0 subtable" dx=10 dy=0 dh=20 dv=0
EndChar

StartChar: Ucircumflex
Encoding: 219 219 122
Width: 634
Flags: MW
HStem: 0 135 1413 41G<360 532 532 532>
VStem: 102 123<141 1407 141 1407 141 1407> 382 151
LayerCount: 2
UndoRedoHistory
Layer: 1
Undoes
EndUndoes
Redoes
EndRedoes
EndUndoRedoHistory
Fore
SplineSet
365 1837 m 1,0,-1
 516 1612 l 1,1,-1
 457 1573 l 1,2,-1
 324 1700 l 1,3,-1
 190 1573 l 1,4,-1
 131 1612 l 1,5,-1
 283 1843 l 1,6,-1
 365 1837 l 1,0,-1
532 82 m 2,7,8
 532 53 532 53 503 26.5 c 128,-1,9
 474 0 474 0 444 0 c 2,10,-1
 102 0 l 1,11,-1
 102 1407 l 1,12,-1
 225 1407 l 1,13,-1
 225 141 l 1,14,-1
 403 129 l 1,15,-1
 360 1454 l 1,16,-1
 532 1454 l 1,17,-1
 532 82 l 2,7,8
EndSplineSet
Validated: 1
Substitution2: "Single Substitution lookup 21 subtable" ucircumflex
Substitution2: "'aalt' Access All Alternates lookup 0 subtable" ucircumflex
Position2: "'cpsp' Capital Spacing lookup 0 subtable" dx=10 dy=0 dh=20 dv=0
EndChar

StartChar: Udieresis
Encoding: 220 220 123
Width: 634
Flags: MW
HStem: 0 135 1413 41G<360 532 532 532> 1673 167
VStem: 82 166 102 123<141 1407 141 1407 141 1407> 382 151 392 159
LayerCount: 2
UndoRedoHistory
Layer: 1
Undoes
EndUndoes
Redoes
EndRedoes
EndUndoRedoHistory
Fore
SplineSet
252 1843 m 1,0,-1
 244 1673 l 1,1,-1
 82 1673 l 1,2,-1
 82 1837 l 1,3,-1
 252 1843 l 1,0,-1
551 1843 m 1,4,-1
 551 1679 l 1,5,-1
 395 1673 l 1,6,-1
 389 1843 l 1,7,-1
 551 1843 l 1,4,-1
532 82 m 2,8,9
 532 53 532 53 503 26.5 c 128,-1,10
 474 0 474 0 444 0 c 2,11,-1
 102 0 l 1,12,-1
 102 1407 l 1,13,-1
 225 1407 l 1,14,-1
 225 141 l 1,15,-1
 403 129 l 1,16,-1
 360 1454 l 1,17,-1
 532 1454 l 1,18,-1
 532 82 l 2,8,9
EndSplineSet
Validated: 1
Substitution2: "Single Substitution lookup 21 subtable" udieresis
Substitution2: "'aalt' Access All Alternates lookup 0 subtable" udieresis
Position2: "'cpsp' Capital Spacing lookup 0 subtable" dx=10 dy=0 dh=20 dv=0
EndChar

StartChar: Udotbelow
Encoding: 7908 7908 124
Width: 634
Flags: MW
HStem: -312 198 0 135 1413 41G<360 532 532 532>
VStem: 102 123<141 1407 141 1407 141 1407> 213 186 382 151
LayerCount: 2
UndoRedoHistory
Layer: 1
Undoes
EndUndoes
Redoes
EndRedoes
EndUndoRedoHistory
Fore
SplineSet
532 82 m 2,0,1
 532 53 532 53 503 26.5 c 128,-1,2
 474 0 474 0 444 0 c 2,3,-1
 102 0 l 1,4,-1
 102 1407 l 1,5,-1
 225 1407 l 1,6,-1
 225 141 l 1,7,-1
 403 129 l 1,8,-1
 360 1454 l 1,9,-1
 532 1454 l 1,10,-1
 532 82 l 2,0,1
399 -115 m 1,11,-1
 399 -309 l 1,12,-1
 217 -315 l 1,13,-1
 209 -115 l 1,14,-1
 399 -115 l 1,11,-1
EndSplineSet
Validated: 1
Substitution2: "Single Substitution lookup 21 subtable" udotbelow
Substitution2: "'aalt' Access All Alternates lookup 0 subtable" udotbelow
Position2: "'cpsp' Capital Spacing lookup 0 subtable" dx=10 dy=0 dh=20 dv=0
EndChar

StartChar: Ugrave
Encoding: 217 217 125
Width: 634
Flags: MW
HStem: 0 135 1413 41G<360 532 532 532>
VStem: 102 123<141 1407 141 1407 141 1407> 382 151
LayerCount: 2
UndoRedoHistory
Layer: 1
Undoes
EndUndoes
Redoes
EndRedoes
EndUndoRedoHistory
Fore
SplineSet
360 1573 m 1,0,-1
 164 1745 l 1,1,-1
 258 1843 l 1,2,-1
 430 1622 l 1,3,-1
 360 1573 l 1,0,-1
532 82 m 2,4,5
 532 53 532 53 503 26.5 c 128,-1,6
 474 0 474 0 444 0 c 2,7,-1
 102 0 l 1,8,-1
 102 1407 l 1,9,-1
 225 1407 l 1,10,-1
 225 141 l 1,11,-1
 403 129 l 1,12,-1
 360 1454 l 1,13,-1
 532 1454 l 1,14,-1
 532 82 l 2,4,5
EndSplineSet
Validated: 1
Substitution2: "Single Substitution lookup 21 subtable" ugrave
Substitution2: "'aalt' Access All Alternates lookup 0 subtable" ugrave
Position2: "'cpsp' Capital Spacing lookup 0 subtable" dx=10 dy=0 dh=20 dv=0
EndChar

StartChar: Uhungarumlaut
Encoding: 368 368 126
Width: 634
Flags: MW
HStem: 0 135 1413 41G<360 532 532 532>
VStem: 102 123<141 1407 141 1407 141 1407> 382 151
LayerCount: 2
UndoRedoHistory
Layer: 1
Undoes
EndUndoes
Redoes
EndRedoes
EndUndoRedoHistory
Fore
SplineSet
348 1745 m 1,0,-1
 152 1573 l 1,1,-1
 82 1622 l 1,2,-1
 254 1843 l 1,3,-1
 348 1745 l 1,0,-1
614 1745 m 1,4,-1
 418 1573 l 1,5,-1
 348 1622 l 1,6,-1
 520 1843 l 1,7,-1
 614 1745 l 1,4,-1
532 82 m 2,8,9
 532 53 532 53 503 26.5 c 128,-1,10
 474 0 474 0 444 0 c 2,11,-1
 102 0 l 1,12,-1
 102 1407 l 1,13,-1
 225 1407 l 1,14,-1
 225 141 l 1,15,-1
 403 129 l 1,16,-1
 360 1454 l 1,17,-1
 532 1454 l 1,18,-1
 532 82 l 2,8,9
EndSplineSet
Validated: 1
Substitution2: "Single Substitution lookup 21 subtable" uhungarumlaut
Substitution2: "'aalt' Access All Alternates lookup 0 subtable" uhungarumlaut
Position2: "'cpsp' Capital Spacing lookup 0 subtable" dx=10 dy=0 dh=20 dv=0
EndChar

StartChar: Umacron
Encoding: 362 362 127
Width: 634
Flags: MW
HStem: 0 135 1413 41G<360 532 532 532> 1703 122
VStem: 102 123<141 1407 141 1407 141 1407> 382 151
LayerCount: 2
UndoRedoHistory
Layer: 1
Undoes
EndUndoes
Redoes
EndRedoes
EndUndoRedoHistory
Fore
SplineSet
600 1712 m 1,0,-1
 57 1694 l 1,1,-1
 51 1825 l 1,2,-1
 600 1825 l 1,3,-1
 600 1712 l 1,0,-1
532 82 m 2,4,5
 532 53 532 53 503 26.5 c 128,-1,6
 474 0 474 0 444 0 c 2,7,-1
 102 0 l 1,8,-1
 102 1407 l 1,9,-1
 225 1407 l 1,10,-1
 225 141 l 1,11,-1
 403 129 l 1,12,-1
 360 1454 l 1,13,-1
 532 1454 l 1,14,-1
 532 82 l 2,4,5
EndSplineSet
Validated: 1
Substitution2: "Single Substitution lookup 21 subtable" umacron
Substitution2: "'aalt' Access All Alternates lookup 0 subtable" umacron
Position2: "'cpsp' Capital Spacing lookup 0 subtable" dx=10 dy=0 dh=20 dv=0
EndChar

StartChar: Uogonek
Encoding: 370 370 128
Width: 634
Flags: MW
HStem: 0 135 1413 41G<360 532 532 532>
VStem: 102 123<141 1407 141 1407 141 1407> 382 151
LayerCount: 2
UndoRedoHistory
Layer: 1
Undoes
EndUndoes
Redoes
EndRedoes
EndUndoRedoHistory
Fore
SplineSet
532 82 m 2,0,1
 532 53 532 53 503 26.5 c 128,-1,2
 474 0 474 0 444 0 c 2,3,-1
 373 0 l 1,4,-1
 319 -170 l 1,5,-1
 389 -297 l 1,6,-1
 571 -205 l 1,7,-1
 604 -299 l 1,8,-1
 373 -428 l 1,9,-1
 193 -195 l 1,10,-1
 291 0 l 1,11,-1
 102 0 l 1,12,-1
 102 1407 l 1,13,-1
 225 1407 l 1,14,-1
 225 141 l 1,15,-1
 403 129 l 1,16,-1
 360 1454 l 1,17,-1
 532 1454 l 1,18,-1
 532 82 l 2,0,1
EndSplineSet
Validated: 1
Substitution2: "Single Substitution lookup 21 subtable" uogonek
Substitution2: "'aalt' Access All Alternates lookup 0 subtable" uogonek
Position2: "'cpsp' Capital Spacing lookup 0 subtable" dx=10 dy=0 dh=20 dv=0
EndChar

StartChar: Uring
Encoding: 366 366 129
Width: 634
Flags: MW
HStem: 0 135 1413 41G<360 532 532 532> 1567 72<281 365 365 370 281 414> 1788 55<280 285>
VStem: 102 123<141 1407 141 1407 141 1407> 180 88<1644 1647 1647 1782> 379 86<1651 1765 1765 1767> 382 151
LayerCount: 2
UndoRedoHistory
Layer: 1
Undoes
EndUndoes
Redoes
EndRedoes
EndUndoRedoHistory
Fore
SplineSet
465 1620 m 1,0,-1
 414 1567 l 1,1,-1
 180 1567 l 1,2,-1
 180 1843 l 1,3,-1
 465 1843 l 1,4,-1
 465 1620 l 1,0,-1
365 1638 m 2,5,6
 379 1638 379 1638 379 1651 c 2,7,-1
 379 1765 l 2,8,9
 379 1772 379 1772 367 1778 c 1,10,-1
 285 1788 l 1,11,12
 268 1788 268 1788 268 1782 c 2,13,-1
 268 1647 l 2,14,15
 268 1638 268 1638 281 1638 c 2,16,-1
 365 1638 l 2,5,6
532 82 m 2,17,18
 532 53 532 53 503 26.5 c 128,-1,19
 474 0 474 0 444 0 c 2,20,-1
 102 0 l 1,21,-1
 102 1407 l 1,22,-1
 225 1407 l 1,23,-1
 225 141 l 1,24,-1
 403 129 l 1,25,-1
 360 1454 l 1,26,-1
 532 1454 l 1,27,-1
 532 82 l 2,17,18
EndSplineSet
Validated: 1
Substitution2: "Single Substitution lookup 21 subtable" uring
Substitution2: "'aalt' Access All Alternates lookup 0 subtable" uring
Position2: "'cpsp' Capital Spacing lookup 0 subtable" dx=10 dy=0 dh=20 dv=0
EndChar

StartChar: Utilde
Encoding: 360 360 130
Width: 634
Flags: MW
HStem: 0 135 1413 41G<360 532 532 532>
VStem: 102 123<141 1407 141 1407 141 1407> 382 151
LayerCount: 2
UndoRedoHistory
Layer: 1
Undoes
EndUndoes
Redoes
EndRedoes
EndUndoRedoHistory
Fore
SplineSet
135 1808 m 1,0,1
 172 1837 172 1837 213 1837 c 0,2,3
 265 1837 265 1837 324 1796 c 1,4,-1
 401 1745 l 1,5,-1
 549 1843 l 1,6,-1
 549 1720 l 1,7,-1
 500 1673 l 1,8,9
 449 1626 449 1626 410 1626 c 0,10,11
 372 1626 372 1626 317 1665 c 2,12,-1
 227 1729 l 1,13,-1
 88 1620 l 1,14,-1
 82 1761 l 1,15,-1
 135 1808 l 1,0,1
532 82 m 2,16,17
 532 53 532 53 503 26.5 c 128,-1,18
 474 0 474 0 444 0 c 2,19,-1
 102 0 l 1,20,-1
 102 1407 l 1,21,-1
 225 1407 l 1,22,-1
 225 141 l 1,23,-1
 403 129 l 1,24,-1
 360 1454 l 1,25,-1
 532 1454 l 1,26,-1
 532 82 l 2,16,17
EndSplineSet
Validated: 1
Substitution2: "Single Substitution lookup 21 subtable" utilde
Substitution2: "'aalt' Access All Alternates lookup 0 subtable" utilde
Position2: "'cpsp' Capital Spacing lookup 0 subtable" dx=10 dy=0 dh=20 dv=0
EndChar

StartChar: V
Encoding: 86 86 131
Width: 575
Flags: MW
HStem: -20 43G<252 252> 1413 41G<14 176 176 176 428 561 561 561>
VStem: 14 547<1454 1454>
LayerCount: 2
UndoRedoHistory
Layer: 1
Undoes
EndUndoes
Redoes
EndRedoes
EndUndoRedoHistory
Fore
SplineSet
14 1454 m 1,0,-1
 176 1454 l 1,1,-1
 322 160 l 1,2,-1
 330 160 l 1,3,-1
 428 1454 l 1,4,-1
 561 1454 l 1,5,-1
 387 0 l 1,6,-1
 252 -20 l 1,7,-1
 14 1454 l 1,0,-1
EndSplineSet
Validated: 1
Substitution2: "Single Substitution lookup 20 subtable" v
Substitution2: "'aalt' Access All Alternates lookup 0 subtable" v
Position2: "'cpsp' Capital Spacing lookup 0 subtable" dx=10 dy=0 dh=20 dv=0
EndChar

StartChar: W
Encoding: 87 87 132
Width: 684
Flags: MW
HStem: 0 176<166 174 166 209 96 174 516 526> 1413 41G<16 166 166 166 526 670 670 670>
VStem: 16 150<176 1454> 526 143<176 1454 1454 1454>
LayerCount: 2
UndoRedoHistory
Layer: 1
Undoes
EndUndoes
Redoes
EndRedoes
EndUndoRedoHistory
Fore
SplineSet
596 0 m 1,0,-1
 467 0 l 1,1,-1
 342 854 l 1,2,-1
 334 854 l 1,3,-1
 209 0 l 1,4,-1
 96 0 l 1,5,-1
 16 1454 l 1,6,-1
 166 1454 l 1,7,-1
 166 176 l 1,8,-1
 174 176 l 1,9,-1
 291 1225 l 1,10,-1
 379 1225 l 1,11,-1
 516 176 l 1,12,-1
 526 176 l 1,13,-1
 526 1454 l 1,14,-1
 670 1454 l 1,15,-1
 596 0 l 1,0,-1
EndSplineSet
Validated: 1
Substitution2: "Single Substitution lookup 20 subtable" w
Substitution2: "'aalt' Access All Alternates lookup 0 subtable" w
Position2: "'cpsp' Capital Spacing lookup 0 subtable" dx=10 dy=0 dh=20 dv=0
EndChar

StartChar: Wacute
Encoding: 7810 7810 133
Width: 684
Flags: MW
HStem: 0 176<166 174 166 209 96 174 516 526> 1413 41G<16 166 166 166 526 670 670 670>
VStem: 16 150<176 1454> 526 143<176 1454 1454 1454>
LayerCount: 2
UndoRedoHistory
Layer: 1
Undoes
EndUndoes
Redoes
EndRedoes
EndUndoRedoHistory
Fore
SplineSet
485 1745 m 1,0,-1
 289 1573 l 1,1,-1
 219 1622 l 1,2,-1
 391 1843 l 1,3,-1
 485 1745 l 1,0,-1
596 0 m 1,4,-1
 467 0 l 1,5,-1
 342 854 l 1,6,-1
 334 854 l 1,7,-1
 209 0 l 1,8,-1
 96 0 l 1,9,-1
 16 1454 l 1,10,-1
 166 1454 l 1,11,-1
 166 176 l 1,12,-1
 174 176 l 1,13,-1
 291 1225 l 1,14,-1
 379 1225 l 1,15,-1
 516 176 l 1,16,-1
 526 176 l 1,17,-1
 526 1454 l 1,18,-1
 670 1454 l 1,19,-1
 596 0 l 1,4,-1
EndSplineSet
Validated: 1
Substitution2: "Single Substitution lookup 20 subtable" wacute
Substitution2: "'aalt' Access All Alternates lookup 0 subtable" wacute
Position2: "'cpsp' Capital Spacing lookup 0 subtable" dx=10 dy=0 dh=20 dv=0
EndChar

StartChar: Wcircumflex
Encoding: 372 372 134
Width: 684
Flags: MW
HStem: 0 176<166 174 166 209 96 174 516 526> 1413 41G<16 166 166 166 526 670 670 670>
VStem: 16 150<176 1454> 526 143<176 1454 1454 1454>
LayerCount: 2
UndoRedoHistory
Layer: 1
Undoes
EndUndoes
Redoes
EndRedoes
EndUndoRedoHistory
Fore
SplineSet
397 1837 m 1,0,-1
 549 1612 l 1,1,-1
 489 1573 l 1,2,-1
 356 1700 l 1,3,-1
 223 1573 l 1,4,-1
 164 1612 l 1,5,-1
 315 1843 l 1,6,-1
 397 1837 l 1,0,-1
596 0 m 1,7,-1
 467 0 l 1,8,-1
 342 854 l 1,9,-1
 334 854 l 1,10,-1
 209 0 l 1,11,-1
 96 0 l 1,12,-1
 16 1454 l 1,13,-1
 166 1454 l 1,14,-1
 166 176 l 1,15,-1
 174 176 l 1,16,-1
 291 1225 l 1,17,-1
 379 1225 l 1,18,-1
 516 176 l 1,19,-1
 526 176 l 1,20,-1
 526 1454 l 1,21,-1
 670 1454 l 1,22,-1
 596 0 l 1,7,-1
EndSplineSet
Validated: 1
Substitution2: "Single Substitution lookup 20 subtable" wcircumflex
Substitution2: "'aalt' Access All Alternates lookup 0 subtable" wcircumflex
Position2: "'cpsp' Capital Spacing lookup 0 subtable" dx=10 dy=0 dh=20 dv=0
EndChar

StartChar: Wdieresis
Encoding: 7812 7812 135
Width: 684
Flags: MW
HStem: 0 176<166 174 166 209 96 174 516 526> 1413 41G<16 166 166 166 526 670 670 670> 1669 167
VStem: 16 150<176 1454> 102 166 413 159 526 143<176 1454 1454 1454>
LayerCount: 2
UndoRedoHistory
Layer: 1
Undoes
EndUndoes
Redoes
EndRedoes
EndUndoRedoHistory
Fore
SplineSet
272 1839 m 1,0,-1
 264 1669 l 1,1,-1
 102 1669 l 1,2,-1
 102 1833 l 1,3,-1
 272 1839 l 1,0,-1
571 1839 m 1,4,-1
 571 1675 l 1,5,-1
 416 1669 l 1,6,-1
 410 1839 l 1,7,-1
 571 1839 l 1,4,-1
596 0 m 1,8,-1
 467 0 l 1,9,-1
 342 854 l 1,10,-1
 334 854 l 1,11,-1
 209 0 l 1,12,-1
 96 0 l 1,13,-1
 16 1454 l 1,14,-1
 166 1454 l 1,15,-1
 166 176 l 1,16,-1
 174 176 l 1,17,-1
 291 1225 l 1,18,-1
 379 1225 l 1,19,-1
 516 176 l 1,20,-1
 526 176 l 1,21,-1
 526 1454 l 1,22,-1
 670 1454 l 1,23,-1
 596 0 l 1,8,-1
EndSplineSet
Validated: 1
Substitution2: "Single Substitution lookup 20 subtable" wdieresis
Substitution2: "'aalt' Access All Alternates lookup 0 subtable" wdieresis
Position2: "'cpsp' Capital Spacing lookup 0 subtable" dx=10 dy=0 dh=20 dv=0
EndChar

StartChar: Wgrave
Encoding: 7808 7808 136
Width: 684
Flags: MW
HStem: 0 176<166 174 166 209 96 174 516 526> 1413 41G<16 166 166 166 526 670 670 670>
VStem: 16 150<176 1454> 526 143<176 1454 1454 1454>
LayerCount: 2
UndoRedoHistory
Layer: 1
Undoes
EndUndoes
Redoes
EndRedoes
EndUndoRedoHistory
Fore
SplineSet
381 1573 m 1,0,-1
 184 1745 l 1,1,-1
 279 1843 l 1,2,-1
 451 1622 l 1,3,-1
 381 1573 l 1,0,-1
596 0 m 1,4,-1
 467 0 l 1,5,-1
 342 854 l 1,6,-1
 334 854 l 1,7,-1
 209 0 l 1,8,-1
 96 0 l 1,9,-1
 16 1454 l 1,10,-1
 166 1454 l 1,11,-1
 166 176 l 1,12,-1
 174 176 l 1,13,-1
 291 1225 l 1,14,-1
 379 1225 l 1,15,-1
 516 176 l 1,16,-1
 526 176 l 1,17,-1
 526 1454 l 1,18,-1
 670 1454 l 1,19,-1
 596 0 l 1,4,-1
EndSplineSet
Validated: 1
Substitution2: "Single Substitution lookup 20 subtable" wgrave
Substitution2: "'aalt' Access All Alternates lookup 0 subtable" wgrave
Position2: "'cpsp' Capital Spacing lookup 0 subtable" dx=10 dy=0 dh=20 dv=0
EndChar

StartChar: X
Encoding: 88 88 137
Width: 622
Flags: MW
HStem: 0 43G<47 225 47 47 455 604 455 455> 1413 41G<35 203 203 203 453 604 604 604>
VStem: 455 150<0 61 0 113 0 113>
LayerCount: 2
UndoRedoHistory
Layer: 1
Undoes
EndUndoes
Redoes
EndRedoes
EndUndoRedoHistory
Fore
SplineSet
250 745 m 1,0,-1
 35 1454 l 1,1,-1
 203 1454 l 1,2,-1
 350 791 l 1,3,-1
 391 856 l 1,4,-1
 453 1454 l 1,5,-1
 604 1454 l 1,6,-1
 543 823 l 1,7,-1
 403 684 l 1,8,-1
 578 92 l 1,9,-1
 604 61 l 1,10,-1
 604 0 l 1,11,-1
 455 0 l 1,12,-1
 455 113 l 1,13,-1
 301 614 l 1,14,-1
 244 539 l 1,15,-1
 225 0 l 1,16,-1
 47 0 l 1,17,-1
 104 600 l 1,18,-1
 250 745 l 1,0,-1
EndSplineSet
Validated: 1
Substitution2: "Single Substitution lookup 20 subtable" x
Substitution2: "'aalt' Access All Alternates lookup 0 subtable" x
Position2: "'cpsp' Capital Spacing lookup 0 subtable" dx=10 dy=0 dh=20 dv=0
EndChar

StartChar: Y
Encoding: 89 89 138
Width: 505
Flags: MW
HStem: 1413 41G<61 193 193 193 330 444 444 444>
VStem: 61 144 199 137<-41 723 723 723> 311 133
LayerCount: 2
UndoRedoHistory
Layer: 1
Undoes
EndUndoes
Redoes
EndRedoes
EndUndoRedoHistory
Fore
SplineSet
199 -41 m 1,0,-1
 199 723 l 1,1,-1
 61 967 l 1,2,-1
 61 1454 l 1,3,-1
 193 1454 l 1,4,-1
 219 883 l 1,5,-1
 293 877 l 1,6,-1
 330 1454 l 1,7,-1
 444 1454 l 1,8,-1
 444 924 l 1,9,-1
 336 797 l 1,10,-1
 336 -41 l 1,11,-1
 199 -41 l 1,0,-1
EndSplineSet
Validated: 1
Substitution2: "Single Substitution lookup 20 subtable" y
Substitution2: "'aalt' Access All Alternates lookup 0 subtable" y
Position2: "'cpsp' Capital Spacing lookup 0 subtable" dx=10 dy=0 dh=20 dv=0
EndChar

StartChar: Yacute
Encoding: 221 221 139
Width: 505
Flags: MW
HStem: -41 1884<332 332 332 336 332 336>
VStem: 206 105
LayerCount: 2
UndoRedoHistory
Layer: 1
Undoes
EndUndoes
Redoes
EndRedoes
EndUndoRedoHistory
Fore
SplineSet
426 1745 m 1,0,-1
 229 1573 l 1,1,-1
 160 1622 l 1,2,-1
 332 1843 l 1,3,-1
 426 1745 l 1,0,-1
444 924 m 1,4,-1
 336 797 l 1,5,-1
 336 -41 l 1,6,-1
 199 -41 l 1,7,-1
 199 723 l 1,8,-1
 61 967 l 1,9,-1
 61 1454 l 1,10,-1
 193 1454 l 1,11,-1
 219 883 l 1,12,-1
 293 877 l 1,13,-1
 330 1454 l 1,14,-1
 444 1454 l 1,15,-1
 444 924 l 1,4,-1
EndSplineSet
Validated: 1
Substitution2: "Single Substitution lookup 20 subtable" yacute
Substitution2: "'aalt' Access All Alternates lookup 0 subtable" yacute
Position2: "'cpsp' Capital Spacing lookup 0 subtable" dx=10 dy=0 dh=20 dv=0
EndChar

StartChar: Ycircumflex
Encoding: 374 374 140
Width: 505
Flags: MW
HStem: 1413 41G<61 193 193 193 330 444 444 444>
VStem: 61 144 199 137<-41 723 723 723> 311 133
LayerCount: 2
UndoRedoHistory
Layer: 1
Undoes
EndUndoes
Redoes
EndRedoes
EndUndoRedoHistory
Fore
SplineSet
305 1837 m 1,0,-1
 457 1612 l 1,1,-1
 397 1573 l 1,2,-1
 264 1700 l 1,3,-1
 131 1573 l 1,4,-1
 72 1612 l 1,5,-1
 223 1843 l 1,6,-1
 305 1837 l 1,0,-1
199 -41 m 1,7,-1
 199 723 l 1,8,-1
 61 967 l 1,9,-1
 61 1454 l 1,10,-1
 193 1454 l 1,11,-1
 219 883 l 1,12,-1
 293 877 l 1,13,-1
 330 1454 l 1,14,-1
 444 1454 l 1,15,-1
 444 924 l 1,16,-1
 336 797 l 1,17,-1
 336 -41 l 1,18,-1
 199 -41 l 1,7,-1
EndSplineSet
Validated: 1
Substitution2: "Single Substitution lookup 20 subtable" ycircumflex
Substitution2: "'aalt' Access All Alternates lookup 0 subtable" ycircumflex
Position2: "'cpsp' Capital Spacing lookup 0 subtable" dx=10 dy=0 dh=20 dv=0
EndChar

StartChar: Ydieresis
Encoding: 376 376 141
Width: 505
Flags: MW
HStem: 1669 167
VStem: 20 166 206 105 331 159
LayerCount: 2
UndoRedoHistory
Layer: 1
Undoes
EndUndoes
Redoes
EndRedoes
EndUndoRedoHistory
Fore
SplineSet
190 1839 m 1,0,-1
 182 1669 l 1,1,-1
 20 1669 l 1,2,-1
 20 1833 l 1,3,-1
 190 1839 l 1,0,-1
489 1839 m 1,4,-1
 489 1675 l 1,5,-1
 334 1669 l 1,6,-1
 328 1839 l 1,7,-1
 489 1839 l 1,4,-1
444 924 m 1,8,-1
 336 797 l 1,9,-1
 336 -41 l 1,10,-1
 199 -41 l 1,11,-1
 199 723 l 1,12,-1
 61 967 l 1,13,-1
 61 1454 l 1,14,-1
 193 1454 l 1,15,-1
 219 883 l 1,16,-1
 293 877 l 1,17,-1
 330 1454 l 1,18,-1
 444 1454 l 1,19,-1
 444 924 l 1,8,-1
EndSplineSet
Validated: 1
Substitution2: "Single Substitution lookup 20 subtable" ydieresis
Substitution2: "'aalt' Access All Alternates lookup 0 subtable" ydieresis
Position2: "'cpsp' Capital Spacing lookup 0 subtable" dx=10 dy=0 dh=20 dv=0
EndChar

StartChar: Ygrave
Encoding: 7922 7922 142
Width: 505
Flags: MW
HStem: 1413 41G<61 193 193 193 330 444 444 444>
VStem: 61 144 199 137<-41 723 723 723> 311 133
LayerCount: 2
UndoRedoHistory
Layer: 1
Undoes
EndUndoes
Redoes
EndRedoes
EndUndoRedoHistory
Fore
SplineSet
319 1573 m 1,0,-1
 123 1745 l 1,1,-1
 217 1843 l 1,2,-1
 389 1622 l 1,3,-1
 319 1573 l 1,0,-1
199 -41 m 1,4,-1
 199 723 l 1,5,-1
 61 967 l 1,6,-1
 61 1454 l 1,7,-1
 193 1454 l 1,8,-1
 219 883 l 1,9,-1
 293 877 l 1,10,-1
 330 1454 l 1,11,-1
 444 1454 l 1,12,-1
 444 924 l 1,13,-1
 336 797 l 1,14,-1
 336 -41 l 1,15,-1
 199 -41 l 1,4,-1
EndSplineSet
Validated: 1
Substitution2: "Single Substitution lookup 20 subtable" ygrave
Substitution2: "'aalt' Access All Alternates lookup 0 subtable" ygrave
Position2: "'cpsp' Capital Spacing lookup 0 subtable" dx=10 dy=0 dh=20 dv=0
EndChar

StartChar: Ytilde
Encoding: 7928 7928 143
Width: 505
Flags: MW
HStem: -41 1884<199 487 336 487>
VStem: 24 464 206 105
LayerCount: 2
UndoRedoHistory
Layer: 1
Undoes
EndUndoes
Redoes
EndRedoes
EndUndoRedoHistory
Fore
SplineSet
74 1808 m 1,0,1
 111 1837 111 1837 152 1837 c 0,2,3
 203 1837 203 1837 262 1796 c 1,4,-1
 340 1745 l 1,5,-1
 487 1843 l 1,6,-1
 487 1720 l 1,7,-1
 438 1673 l 1,8,9
 387 1626 387 1626 348 1626 c 0,10,11
 311 1626 311 1626 256 1665 c 2,12,-1
 166 1729 l 1,13,-1
 27 1620 l 1,14,-1
 20 1761 l 1,15,-1
 74 1808 l 1,0,1
444 924 m 1,16,-1
 336 797 l 1,17,-1
 336 -41 l 1,18,-1
 199 -41 l 1,19,-1
 199 723 l 1,20,-1
 61 967 l 1,21,-1
 61 1454 l 1,22,-1
 193 1454 l 1,23,-1
 219 883 l 1,24,-1
 293 877 l 1,25,-1
 330 1454 l 1,26,-1
 444 1454 l 1,27,-1
 444 924 l 1,16,-1
EndSplineSet
Validated: 1
Substitution2: "Single Substitution lookup 20 subtable" ytilde
Substitution2: "'aalt' Access All Alternates lookup 0 subtable" ytilde
Position2: "'cpsp' Capital Spacing lookup 0 subtable" dx=10 dy=0 dh=20 dv=0
EndChar

StartChar: Z
Encoding: 90 90 144
Width: 618
Flags: MW
HStem: 0 45<61 557 61 98> 1372 82<94 494> 1391 63
VStem: 61 496<0 45>
LayerCount: 2
UndoRedoHistory
Layer: 1
Undoes
EndUndoes
Redoes
EndRedoes
EndUndoRedoHistory
Fore
SplineSet
61 45 m 1,0,-1
 131 180 l 1,1,-1
 373 1307 l 1,2,-1
 94 1372 l 1,3,-1
 94 1454 l 1,4,-1
 494 1454 l 1,5,-1
 557 1391 l 1,6,-1
 266 172 l 1,7,-1
 541 133 l 1,8,-1
 557 0 l 1,9,-1
 98 0 l 1,10,-1
 61 45 l 1,0,-1
EndSplineSet
Validated: 1
Substitution2: "Single Substitution lookup 20 subtable" z
Substitution2: "'aalt' Access All Alternates lookup 0 subtable" z
Position2: "'cpsp' Capital Spacing lookup 0 subtable" dx=10 dy=0 dh=20 dv=0
EndChar

StartChar: Zacute
Encoding: 377 377 145
Width: 618
Flags: MW
HStem: 1454 168<215 215 215 494 94 215>
VStem: 61 496<0 45>
LayerCount: 2
UndoRedoHistory
Layer: 1
Undoes
EndUndoes
Redoes
EndRedoes
EndUndoRedoHistory
Fore
SplineSet
481 1745 m 1,0,-1
 285 1573 l 1,1,-1
 215 1622 l 1,2,-1
 387 1843 l 1,3,-1
 481 1745 l 1,0,-1
541 133 m 1,4,-1
 557 0 l 1,5,-1
 98 0 l 1,6,-1
 61 45 l 1,7,-1
 131 180 l 1,8,-1
 373 1307 l 1,9,-1
 94 1372 l 1,10,-1
 94 1454 l 1,11,-1
 494 1454 l 1,12,-1
 557 1391 l 1,13,-1
 266 172 l 1,14,-1
 541 133 l 1,4,-1
EndSplineSet
Validated: 1
Substitution2: "Single Substitution lookup 20 subtable" zacute
Substitution2: "'locl' Localized Forms in Latin lookup 11 subtable" Zacute.loclPLK
AlternateSubs2: "'aalt' Access All Alternates lookup 1 subtable" Zacute.loclPLK zacute
Position2: "'cpsp' Capital Spacing lookup 0 subtable" dx=10 dy=0 dh=20 dv=0
EndChar

StartChar: Zcaron
Encoding: 381 381 146
Width: 618
Flags: MW
HStem: 0 45<61 557 61 98> 1372 82<94 494> 1391 63
VStem: 61 496<0 45>
LayerCount: 2
UndoRedoHistory
Layer: 1
Undoes
EndUndoes
Redoes
EndRedoes
EndUndoRedoHistory
Fore
SplineSet
285 1579 m 1,0,-1
 133 1804 l 1,1,-1
 193 1843 l 1,2,-1
 326 1716 l 1,3,-1
 459 1843 l 1,4,-1
 518 1804 l 1,5,-1
 367 1573 l 1,6,-1
 285 1579 l 1,0,-1
61 45 m 1,7,-1
 131 180 l 1,8,-1
 373 1307 l 1,9,-1
 94 1372 l 1,10,-1
 94 1454 l 1,11,-1
 494 1454 l 1,12,-1
 557 1391 l 1,13,-1
 266 172 l 1,14,-1
 541 133 l 1,15,-1
 557 0 l 1,16,-1
 98 0 l 1,17,-1
 61 45 l 1,7,-1
EndSplineSet
Validated: 1
Substitution2: "Single Substitution lookup 20 subtable" zcaron
Substitution2: "'aalt' Access All Alternates lookup 0 subtable" zcaron
Position2: "'cpsp' Capital Spacing lookup 0 subtable" dx=10 dy=0 dh=20 dv=0
EndChar

StartChar: Zdotaccent
Encoding: 379 379 147
Width: 618
Flags: MW
HStem: 1646 198
VStem: 225 186
LayerCount: 2
UndoRedoHistory
Layer: 1
Undoes
EndUndoes
Redoes
EndRedoes
EndUndoRedoHistory
Fore
SplineSet
412 1843 m 1,0,-1
 412 1649 l 1,1,-1
 229 1642 l 1,2,-1
 221 1843 l 1,3,-1
 412 1843 l 1,0,-1
541 133 m 1,4,-1
 557 0 l 1,5,-1
 98 0 l 1,6,-1
 61 45 l 1,7,-1
 131 180 l 1,8,-1
 373 1307 l 1,9,-1
 94 1372 l 1,10,-1
 94 1454 l 1,11,-1
 494 1454 l 1,12,-1
 557 1391 l 1,13,-1
 266 172 l 1,14,-1
 541 133 l 1,4,-1
EndSplineSet
Validated: 1
Substitution2: "Single Substitution lookup 20 subtable" zdotaccent
Substitution2: "'aalt' Access All Alternates lookup 0 subtable" zdotaccent
Position2: "'cpsp' Capital Spacing lookup 0 subtable" dx=10 dy=0 dh=20 dv=0
EndChar

StartChar: Zdotbelow
Encoding: 7826 7826 148
Width: 618
Flags: MW
HStem: -312 198 0 45<61 557 61 98> 1372 82<94 494> 1391 63
VStem: 229 186
LayerCount: 2
UndoRedoHistory
Layer: 1
Undoes
EndUndoes
Redoes
EndRedoes
EndUndoRedoHistory
Fore
SplineSet
61 45 m 1,0,-1
 131 180 l 1,1,-1
 373 1307 l 1,2,-1
 94 1372 l 1,3,-1
 94 1454 l 1,4,-1
 494 1454 l 1,5,-1
 557 1391 l 1,6,-1
 266 172 l 1,7,-1
 541 133 l 1,8,-1
 557 0 l 1,9,-1
 98 0 l 1,10,-1
 61 45 l 1,0,-1
416 -115 m 1,11,-1
 416 -309 l 1,12,-1
 233 -315 l 1,13,-1
 225 -115 l 1,14,-1
 416 -115 l 1,11,-1
EndSplineSet
Validated: 1
Substitution2: "Single Substitution lookup 20 subtable" zdotbelow
Substitution2: "'aalt' Access All Alternates lookup 0 subtable" zdotbelow
Position2: "'cpsp' Capital Spacing lookup 0 subtable" dx=10 dy=0 dh=20 dv=0
EndChar

StartChar: a
Encoding: 97 97 149
Width: 630
Flags: MW
HStem: 0 43G<63 190 63 63 473 563 473 473> 1348 106<272 272> 1368 86<360 365>
VStem: 63 500<0 0>
LayerCount: 2
UndoRedoHistory
Layer: 1
Undoes
EndUndoes
Redoes
EndRedoes
EndUndoRedoHistory
Fore
SplineSet
473 0 m 1,0,-1
 399 545 l 1,1,-1
 236 467 l 1,2,-1
 190 0 l 1,3,-1
 63 0 l 1,4,-1
 156 1454 l 1,5,-1
 479 1454 l 1,6,-1
 563 0 l 1,7,-1
 473 0 l 1,0,-1
373 1356 m 2,8,9
 373 1368 373 1368 360 1368 c 1,10,-1
 272 1348 l 1,11,12
 260 1342 260 1342 260 1327 c 2,13,-1
 260 606 l 2,14,15
 260 596 260 596 272 596 c 1,16,-1
 348 608 l 1,17,18
 360 608 360 608 360 621 c 2,19,-1
 373 1356 l 2,8,9
EndSplineSet
Validated: 1
Substitution2: "Single Substitution lookup 21 subtable" A
Substitution2: "Single Substitution lookup 20 subtable" ordfeminine
AlternateSubs2: "'aalt' Access All Alternates lookup 1 subtable" ordfeminine A
EndChar

StartChar: aacute
Encoding: 225 225 150
Width: 630
Flags: MW
HStem: 0 43G<63 190 63 63 473 563 473 473> 1348 106<272 272> 1368 86<360 365>
VStem: 63 500<0 0>
LayerCount: 2
UndoRedoHistory
Layer: 1
Undoes
EndUndoes
Redoes
EndRedoes
EndUndoRedoHistory
Fore
SplineSet
469 1745 m 1,0,-1
 272 1573 l 1,1,-1
 203 1622 l 1,2,-1
 375 1843 l 1,3,-1
 469 1745 l 1,0,-1
473 0 m 1,4,-1
 399 545 l 1,5,-1
 236 467 l 1,6,-1
 190 0 l 1,7,-1
 63 0 l 1,8,-1
 156 1454 l 1,9,-1
 479 1454 l 1,10,-1
 563 0 l 1,11,-1
 473 0 l 1,4,-1
373 1356 m 2,12,13
 373 1368 373 1368 360 1368 c 1,14,-1
 272 1348 l 1,15,16
 260 1342 260 1342 260 1327 c 2,17,-1
 260 606 l 2,18,19
 260 596 260 596 272 596 c 1,20,-1
 348 608 l 1,21,22
 360 608 360 608 360 621 c 2,23,-1
 373 1356 l 2,12,13
EndSplineSet
Validated: 1
Substitution2: "Single Substitution lookup 21 subtable" Aacute
Substitution2: "'aalt' Access All Alternates lookup 0 subtable" Aacute
EndChar

StartChar: abreve
Encoding: 259 259 151
Width: 630
Flags: MW
HStem: 0 43G<63 190 63 63 473 563 473 473> 1348 106<272 272> 1368 86<360 365> 1608 97 1733 98<201 201>
VStem: 106 99 447 91
LayerCount: 2
UndoRedoHistory
Layer: 1
Undoes
EndUndoes
Redoes
EndRedoes
EndUndoRedoHistory
Fore
SplineSet
201 1733 m 1,0,-1
 225 1710 l 1,1,-1
 451 1700 l 1,2,-1
 444 1835 l 1,3,-1
 539 1843 l 1,4,-1
 539 1688 l 1,5,-1
 459 1608 l 1,6,-1
 203 1608 l 1,7,-1
 111 1665 l 1,8,-1
 102 1831 l 1,9,-1
 211 1831 l 1,10,-1
 201 1733 l 1,0,-1
473 0 m 1,11,-1
 399 545 l 1,12,-1
 236 467 l 1,13,-1
 190 0 l 1,14,-1
 63 0 l 1,15,-1
 156 1454 l 1,16,-1
 479 1454 l 1,17,-1
 563 0 l 1,18,-1
 473 0 l 1,11,-1
373 1356 m 2,19,20
 373 1368 373 1368 360 1368 c 1,21,-1
 272 1348 l 1,22,23
 260 1342 260 1342 260 1327 c 2,24,-1
 260 606 l 2,25,26
 260 596 260 596 272 596 c 1,27,-1
 348 608 l 1,28,29
 360 608 360 608 360 621 c 2,30,-1
 373 1356 l 2,19,20
EndSplineSet
Validated: 1
Substitution2: "Single Substitution lookup 21 subtable" Abreve
Substitution2: "'aalt' Access All Alternates lookup 0 subtable" Abreve
EndChar

StartChar: acircumflex
Encoding: 226 226 152
Width: 630
Flags: MW
HStem: 0 43G<63 190 63 63 473 563 473 473> 1348 106<272 272> 1368 86<360 365>
VStem: 63 500<0 0>
LayerCount: 2
UndoRedoHistory
Layer: 1
Undoes
EndUndoes
Redoes
EndRedoes
EndUndoRedoHistory
Fore
SplineSet
367 1837 m 1,0,-1
 518 1612 l 1,1,-1
 459 1573 l 1,2,-1
 326 1700 l 1,3,-1
 193 1573 l 1,4,-1
 133 1612 l 1,5,-1
 285 1843 l 1,6,-1
 367 1837 l 1,0,-1
473 0 m 1,7,-1
 399 545 l 1,8,-1
 236 467 l 1,9,-1
 190 0 l 1,10,-1
 63 0 l 1,11,-1
 156 1454 l 1,12,-1
 479 1454 l 1,13,-1
 563 0 l 1,14,-1
 473 0 l 1,7,-1
373 1356 m 2,15,16
 373 1368 373 1368 360 1368 c 1,17,-1
 272 1348 l 1,18,19
 260 1342 260 1342 260 1327 c 2,20,-1
 260 606 l 2,21,22
 260 596 260 596 272 596 c 1,23,-1
 348 608 l 1,24,25
 360 608 360 608 360 621 c 2,26,-1
 373 1356 l 2,15,16
EndSplineSet
Validated: 1
Substitution2: "Single Substitution lookup 21 subtable" Acircumflex
Substitution2: "'aalt' Access All Alternates lookup 0 subtable" Acircumflex
EndChar

StartChar: adieresis
Encoding: 228 228 153
Width: 630
Flags: MW
HStem: 0 43G<63 190 63 63 473 563 473 473> 1348 106<272 272> 1368 86<360 365> 1669 167
VStem: 80 166 390 159
LayerCount: 2
UndoRedoHistory
Layer: 1
Undoes
EndUndoes
Redoes
EndRedoes
EndUndoRedoHistory
Fore
SplineSet
250 1839 m 1,0,-1
 242 1669 l 1,1,-1
 80 1669 l 1,2,-1
 80 1833 l 1,3,-1
 250 1839 l 1,0,-1
549 1839 m 1,4,-1
 549 1675 l 1,5,-1
 393 1669 l 1,6,-1
 387 1839 l 1,7,-1
 549 1839 l 1,4,-1
473 0 m 1,8,-1
 399 545 l 1,9,-1
 236 467 l 1,10,-1
 190 0 l 1,11,-1
 63 0 l 1,12,-1
 156 1454 l 1,13,-1
 479 1454 l 1,14,-1
 563 0 l 1,15,-1
 473 0 l 1,8,-1
373 1356 m 2,16,17
 373 1368 373 1368 360 1368 c 1,18,-1
 272 1348 l 1,19,20
 260 1342 260 1342 260 1327 c 2,21,-1
 260 606 l 2,22,23
 260 596 260 596 272 596 c 1,24,-1
 348 608 l 1,25,26
 360 608 360 608 360 621 c 2,27,-1
 373 1356 l 2,16,17
EndSplineSet
Validated: 1
Substitution2: "Single Substitution lookup 21 subtable" Adieresis
Substitution2: "'aalt' Access All Alternates lookup 0 subtable" Adieresis
EndChar

StartChar: agrave
Encoding: 224 224 154
Width: 630
Flags: MW
HStem: 0 43G<63 190 63 63 473 563 473 473> 1348 106<272 272> 1368 86<360 365>
VStem: 63 500<0 0>
LayerCount: 2
UndoRedoHistory
Layer: 1
Undoes
EndUndoes
Redoes
EndRedoes
EndUndoRedoHistory
Fore
SplineSet
379 1573 m 1,0,-1
 182 1745 l 1,1,-1
 276 1843 l 1,2,-1
 449 1622 l 1,3,-1
 379 1573 l 1,0,-1
473 0 m 1,4,-1
 399 545 l 1,5,-1
 236 467 l 1,6,-1
 190 0 l 1,7,-1
 63 0 l 1,8,-1
 156 1454 l 1,9,-1
 479 1454 l 1,10,-1
 563 0 l 1,11,-1
 473 0 l 1,4,-1
373 1356 m 2,12,13
 373 1368 373 1368 360 1368 c 1,14,-1
 272 1348 l 1,15,16
 260 1342 260 1342 260 1327 c 2,17,-1
 260 606 l 2,18,19
 260 596 260 596 272 596 c 1,20,-1
 348 608 l 1,21,22
 360 608 360 608 360 621 c 2,23,-1
 373 1356 l 2,12,13
EndSplineSet
Validated: 1
Substitution2: "Single Substitution lookup 21 subtable" Agrave
Substitution2: "'aalt' Access All Alternates lookup 0 subtable" Agrave
EndChar

StartChar: amacron
Encoding: 257 257 155
Width: 630
Flags: MW
HStem: 0 43G<63 190 63 63 473 563 473 473> 1348 106<272 272> 1368 86<360 365> 1703 122
VStem: 41 549<1712 1825>
LayerCount: 2
UndoRedoHistory
Layer: 1
Undoes
EndUndoes
Redoes
EndRedoes
EndUndoRedoHistory
Fore
SplineSet
590 1712 m 1,0,-1
 47 1694 l 1,1,-1
 41 1825 l 1,2,-1
 590 1825 l 1,3,-1
 590 1712 l 1,0,-1
473 0 m 1,4,-1
 399 545 l 1,5,-1
 236 467 l 1,6,-1
 190 0 l 1,7,-1
 63 0 l 1,8,-1
 156 1454 l 1,9,-1
 479 1454 l 1,10,-1
 563 0 l 1,11,-1
 473 0 l 1,4,-1
373 1356 m 2,12,13
 373 1368 373 1368 360 1368 c 1,14,-1
 272 1348 l 1,15,16
 260 1342 260 1342 260 1327 c 2,17,-1
 260 606 l 2,18,19
 260 596 260 596 272 596 c 1,20,-1
 348 608 l 1,21,22
 360 608 360 608 360 621 c 2,23,-1
 373 1356 l 2,12,13
EndSplineSet
Validated: 1
Substitution2: "Single Substitution lookup 21 subtable" Amacron
Substitution2: "'aalt' Access All Alternates lookup 0 subtable" Amacron
EndChar

StartChar: aogonek
Encoding: 261 261 156
Width: 630
Flags: MW
HStem: 0 43G<63 190 63 63 473 473 555 563 555 555> 1348 106<272 272> 1368 86<360 365>
VStem: 63 723<-299 0>
LayerCount: 2
UndoRedoHistory
Layer: 1
Undoes
EndUndoes
Redoes
EndRedoes
EndUndoRedoHistory
Fore
SplineSet
555 0 m 1,0,-1
 502 -170 l 1,1,-1
 571 -297 l 1,2,-1
 754 -205 l 1,3,-1
 786 -299 l 1,4,-1
 555 -428 l 1,5,-1
 375 -195 l 1,6,-1
 473 0 l 1,7,-1
 399 545 l 1,8,-1
 236 467 l 1,9,-1
 190 0 l 1,10,-1
 63 0 l 1,11,-1
 156 1454 l 1,12,-1
 479 1454 l 1,13,-1
 563 0 l 1,14,-1
 555 0 l 1,0,-1
373 1356 m 2,15,16
 373 1368 373 1368 360 1368 c 1,17,-1
 272 1348 l 1,18,19
 260 1342 260 1342 260 1327 c 2,20,-1
 260 606 l 2,21,22
 260 596 260 596 272 596 c 1,23,-1
 348 608 l 1,24,25
 360 608 360 608 360 621 c 2,26,-1
 373 1356 l 2,15,16
EndSplineSet
Validated: 1
Substitution2: "Single Substitution lookup 21 subtable" Aogonek
Substitution2: "'aalt' Access All Alternates lookup 0 subtable" Aogonek
EndChar

StartChar: aring
Encoding: 229 229 157
Width: 630
Flags: MW
HStem: 0 43G<63 190 63 63 473 563 473 473> 1348 106<272 272> 1368 86<360 365> 1567 72<291 375 375 380 291 424> 1788 55<290 295>
VStem: 190 88<1644 1647 1647 1782> 389 86<1651 1765 1765 1767>
LayerCount: 2
UndoRedoHistory
Layer: 1
Undoes
EndUndoes
Redoes
EndRedoes
EndUndoRedoHistory
Fore
SplineSet
475 1620 m 1,0,-1
 424 1567 l 1,1,-1
 190 1567 l 1,2,-1
 190 1843 l 1,3,-1
 475 1843 l 1,4,-1
 475 1620 l 1,0,-1
375 1638 m 2,5,6
 389 1638 389 1638 389 1651 c 2,7,-1
 389 1765 l 2,8,9
 389 1772 389 1772 377 1778 c 1,10,-1
 295 1788 l 1,11,12
 279 1788 279 1788 279 1782 c 2,13,-1
 279 1647 l 2,14,15
 279 1638 279 1638 291 1638 c 2,16,-1
 375 1638 l 2,5,6
473 0 m 1,17,-1
 399 545 l 1,18,-1
 236 467 l 1,19,-1
 190 0 l 1,20,-1
 63 0 l 1,21,-1
 156 1454 l 1,22,-1
 479 1454 l 1,23,-1
 563 0 l 1,24,-1
 473 0 l 1,17,-1
373 1356 m 2,25,26
 373 1368 373 1368 360 1368 c 1,27,-1
 272 1348 l 1,28,29
 260 1342 260 1342 260 1327 c 2,30,-1
 260 606 l 2,31,32
 260 596 260 596 272 596 c 1,33,-1
 348 608 l 1,34,35
 360 608 360 608 360 621 c 2,36,-1
 373 1356 l 2,25,26
EndSplineSet
Validated: 1
Substitution2: "Single Substitution lookup 21 subtable" Aring
Substitution2: "'aalt' Access All Alternates lookup 0 subtable" Aring
EndChar

StartChar: aringacute
Encoding: 507 507 158
Width: 630
Flags: MW
HStem: 0 43G<63 190 63 63 473 563 473 473> 1348 106<272 272> 1368 86<360 361> 1413 41G<156 172 172 172 266 356 356 361 457 479 479 479> 1604 55<271 276>
VStem: 172 88<1459 1462 1462 1597> 371 86<1466 1581 1581 1583>
LayerCount: 2
UndoRedoHistory
Layer: 1
Undoes
EndUndoes
Redoes
EndRedoes
EndUndoRedoHistory
Fore
SplineSet
471 1731 m 1,0,-1
 213 1686 l 1,1,-1
 180 1763 l 1,2,-1
 453 1843 l 1,3,-1
 471 1731 l 1,0,-1
457 1454 m 1,4,-1
 479 1454 l 1,5,-1
 563 0 l 1,6,-1
 473 0 l 1,7,-1
 399 545 l 1,8,-1
 236 467 l 1,9,-1
 190 0 l 1,10,-1
 63 0 l 1,11,-1
 156 1454 l 1,12,-1
 172 1454 l 1,13,-1
 172 1659 l 1,14,-1
 457 1659 l 1,15,-1
 457 1454 l 1,4,-1
356 1454 m 2,16,17
 371 1454 371 1454 371 1466 c 2,18,-1
 371 1581 l 2,19,20
 371 1586 371 1586 358 1593 c 1,21,-1
 276 1604 l 1,22,23
 260 1604 260 1604 260 1597 c 2,24,-1
 260 1462 l 2,25,26
 260 1454 260 1454 266 1454 c 2,27,-1
 356 1454 l 2,16,17
373 1356 m 2,28,29
 373 1368 373 1368 360 1368 c 1,30,-1
 272 1348 l 1,31,32
 260 1342 260 1342 260 1327 c 2,33,-1
 260 606 l 2,34,35
 260 596 260 596 272 596 c 1,36,-1
 348 608 l 1,37,38
 360 608 360 608 360 621 c 2,39,-1
 373 1356 l 2,28,29
EndSplineSet
Validated: 1
Substitution2: "Single Substitution lookup 21 subtable" Aringacute
Substitution2: "'aalt' Access All Alternates lookup 0 subtable" Aringacute
EndChar

StartChar: atilde
Encoding: 227 227 159
Width: 630
Flags: MW
HStem: 0 43G<63 190 63 63 473 563 473 473> 1348 106<272 272> 1368 86<360 365>
VStem: 85 175
LayerCount: 2
UndoRedoHistory
Layer: 1
Undoes
EndUndoes
Redoes
EndRedoes
EndUndoRedoHistory
Fore
SplineSet
135 1808 m 1,0,1
 172 1837 172 1837 213 1837 c 0,2,3
 265 1837 265 1837 324 1796 c 1,4,-1
 401 1745 l 1,5,-1
 549 1843 l 1,6,-1
 549 1720 l 1,7,-1
 500 1673 l 1,8,9
 449 1626 449 1626 410 1626 c 0,10,11
 372 1626 372 1626 317 1665 c 2,12,-1
 227 1729 l 1,13,-1
 88 1620 l 1,14,-1
 82 1761 l 1,15,-1
 135 1808 l 1,0,1
473 0 m 1,16,-1
 399 545 l 1,17,-1
 236 467 l 1,18,-1
 190 0 l 1,19,-1
 63 0 l 1,20,-1
 156 1454 l 1,21,-1
 479 1454 l 1,22,-1
 563 0 l 1,23,-1
 473 0 l 1,16,-1
373 1356 m 2,24,25
 373 1368 373 1368 360 1368 c 1,26,-1
 272 1348 l 1,27,28
 260 1342 260 1342 260 1327 c 2,29,-1
 260 606 l 2,30,31
 260 596 260 596 272 596 c 1,32,-1
 348 608 l 1,33,34
 360 608 360 608 360 621 c 2,35,-1
 373 1356 l 2,24,25
EndSplineSet
Validated: 1
Substitution2: "Single Substitution lookup 21 subtable" Atilde
Substitution2: "'aalt' Access All Alternates lookup 0 subtable" Atilde
EndChar

StartChar: ae
Encoding: 230 230 160
Width: 1024
Flags: MW
HStem: 0 162 1333 121 1368 86<422 426>
VStem: 238 84 414 172 473 147<154 549 549 549>
LayerCount: 2
UndoRedoHistory
Layer: 1
Undoes
EndUndoes
Redoes
EndRedoes
EndUndoRedoHistory
Fore
SplineSet
473 0 m 1,0,-1
 473 549 l 1,1,-1
 297 467 l 1,2,-1
 190 0 l 1,3,-1
 63 0 l 1,4,-1
 238 1454 l 1,5,-1
 911 1454 l 1,6,-1
 911 1327 l 1,7,-1
 586 1339 l 1,8,-1
 586 874 l 1,9,-1
 911 827 l 1,10,-1
 911 729 l 1,11,-1
 621 741 l 1,12,-1
 621 154 l 1,13,-1
 911 170 l 1,14,-1
 911 0 l 1,15,-1
 473 0 l 1,0,-1
434 1356 m 2,16,17
 434 1368 434 1368 422 1368 c 1,18,-1
 334 1348 l 1,19,20
 322 1342 322 1342 322 1327 c 2,21,-1
 322 635 l 2,22,23
 322 625 322 625 334 625 c 2,24,-1
 401 625 l 2,25,26
 414 625 414 625 414 637 c 2,27,-1
 434 1356 l 2,16,17
EndSplineSet
Validated: 1
Substitution2: "Single Substitution lookup 21 subtable" AE
Substitution2: "'aalt' Access All Alternates lookup 0 subtable" AE
EndChar

StartChar: aeacute
Encoding: 509 509 161
Width: 1024
Flags: MW
HStem: 0 162 1333 121 1368 86<422 426>
VStem: 238 84 414 172 473 147<154 549 549 549>
LayerCount: 2
UndoRedoHistory
Layer: 1
Undoes
EndUndoes
Redoes
EndRedoes
EndUndoRedoHistory
Fore
SplineSet
702 1745 m 1,0,-1
 506 1573 l 1,1,-1
 436 1622 l 1,2,-1
 608 1843 l 1,3,-1
 702 1745 l 1,0,-1
473 0 m 1,4,-1
 473 549 l 1,5,-1
 297 467 l 1,6,-1
 190 0 l 1,7,-1
 63 0 l 1,8,-1
 238 1454 l 1,9,-1
 911 1454 l 1,10,-1
 911 1327 l 1,11,-1
 586 1339 l 1,12,-1
 586 874 l 1,13,-1
 911 827 l 1,14,-1
 911 729 l 1,15,-1
 621 741 l 1,16,-1
 621 154 l 1,17,-1
 911 170 l 1,18,-1
 911 0 l 1,19,-1
 473 0 l 1,4,-1
434 1356 m 2,20,21
 434 1368 434 1368 422 1368 c 1,22,-1
 334 1348 l 1,23,24
 322 1342 322 1342 322 1327 c 2,25,-1
 322 635 l 2,26,27
 322 625 322 625 334 625 c 2,28,-1
 401 625 l 2,29,30
 414 625 414 625 414 637 c 2,31,-1
 434 1356 l 2,20,21
EndSplineSet
Validated: 1
Substitution2: "Single Substitution lookup 21 subtable" AEacute
Substitution2: "'aalt' Access All Alternates lookup 0 subtable" AEacute
EndChar

StartChar: b
Encoding: 98 98 162
Width: 700
Flags: MW
HStem: 0 115<279 279 279 381> 670 143<256 439> 1329 125<412 417 102 421>
VStem: 102 129<824 829 829 1321> 440 135<1321 1324> 442 174<578 628 578 657 578 657>
LayerCount: 2
UndoRedoHistory
Layer: 1
Undoes
EndUndoes
Redoes
EndRedoes
EndUndoRedoHistory
Fore
SplineSet
492 745 m 1,0,1
 533 735 533 735 574.5 690 c 128,-1,2
 616 645 616 645 616 578 c 1,3,-1
 575 61 l 1,4,5
 575 41 575 41 549.5 27 c 128,-1,6
 524 13 524 13 485 8 c 128,-1,7
 446 3 446 3 423 1.5 c 128,-1,8
 400 0 400 0 381 0 c 2,9,-1
 102 0 l 1,10,-1
 102 1454 l 1,11,-1
 375 1454 l 2,12,13
 446 1454 446 1454 510.5 1419 c 128,-1,14
 575 1384 575 1384 575 1327 c 2,15,-1
 575 915 l 1,16,-1
 492 745 l 1,0,1
231 829 m 2,17,18
 231 813 231 813 256 813 c 2,19,-1
 403 813 l 2,20,21
 410 813 410 813 418 821 c 0,22,23
 419 822 419 822 422 831 c 1,24,-1
 440 1321 l 2,25,26
 440 1329 440 1329 412 1329 c 1,27,-1
 231 1321 l 1,28,-1
 231 829 l 2,17,18
279 115 m 1,29,30
 326 132 326 132 360 148.5 c 128,-1,31
 394 165 394 165 410 176 c 128,-1,32
 426 187 426 187 435 198 c 128,-1,33
 444 209 444 209 445 214 c 128,-1,34
 446 219 446 219 446 225 c 0,35,36
 446 238 446 238 442 238 c 1,37,-1
 442 657 l 1,38,39
 449 660 449 660 449 664 c 0,40,41
 449 670 449 670 434 670 c 1,42,-1
 279 690 l 2,43,44
 274 690 274 690 268.5 687.5 c 128,-1,45
 263 685 263 685 259.5 682 c 128,-1,46
 256 679 256 679 256 678 c 2,47,-1
 256 121 l 1,48,-1
 279 115 l 1,29,30
EndSplineSet
Validated: 1
Substitution2: "Single Substitution lookup 20 subtable" B
Substitution2: "'aalt' Access All Alternates lookup 0 subtable" B
EndChar

StartChar: c
Encoding: 99 99 163
Width: 684
Flags: MW
HStem: 41 150<272 475 475 483 272 606 170 475> 1290 164<219 328 219 455> 1413 41G<219 268>
VStem: 106 154 479 94<1081 1272> 500 106<203 356 356 356>
LayerCount: 2
UndoRedoHistory
Layer: 1
Undoes
EndUndoes
Redoes
EndRedoes
EndUndoRedoHistory
Fore
SplineSet
606 41 m 1,0,-1
 170 41 l 1,1,-1
 86 127 l 1,2,-1
 127 1337 l 2,3,4
 129 1383 129 1383 165 1418.5 c 128,-1,5
 201 1454 201 1454 264 1454 c 0,6,7
 268 1454 268 1454 277.5 1453 c 128,-1,8
 287 1452 287 1452 291 1452 c 2,9,-1
 606 1411 l 1,10,-1
 573 1081 l 1,11,-1
 479 1081 l 1,12,-1
 479 1272 l 2,13,14
 479 1290 479 1290 455 1290 c 2,15,-1
 328 1290 l 2,16,17
 290 1290 290 1290 272 1258 c 128,-1,18
 254 1226 254 1226 254 1188 c 0,19,20
 254 1164 254 1164 260 1161 c 1,21,-1
 260 203 l 1,22,23
 254 200 254 200 254 197 c 0,24,25
 254 190 254 190 272 190 c 2,26,-1
 475 190 l 2,27,28
 500 190 500 190 500 203 c 2,29,-1
 500 356 l 1,30,-1
 539 383 l 1,31,-1
 606 383 l 1,32,-1
 606 41 l 1,0,-1
EndSplineSet
Validated: 1
Substitution2: "Single Substitution lookup 20 subtable" C
Substitution2: "'aalt' Access All Alternates lookup 0 subtable" C
EndChar

StartChar: cacute
Encoding: 263 263 164
Width: 684
Flags: MW
HStem: 41 150<272 475 475 483 272 606 170 475> 1290 164<219 328 219 455> 1413 41G<219 268>
VStem: 106 154 479 94<1081 1272> 500 106<203 356 356 356>
LayerCount: 2
UndoRedoHistory
Layer: 1
Undoes
EndUndoes
Redoes
EndRedoes
EndUndoRedoHistory
Fore
SplineSet
588 1745 m 1,0,-1
 391 1573 l 1,1,-1
 322 1622 l 1,2,-1
 494 1843 l 1,3,-1
 588 1745 l 1,0,-1
606 41 m 1,4,-1
 170 41 l 1,5,-1
 86 127 l 1,6,-1
 127 1337 l 2,7,8
 129 1383 129 1383 165 1418.5 c 128,-1,9
 201 1454 201 1454 264 1454 c 0,10,11
 268 1454 268 1454 277.5 1453 c 128,-1,12
 287 1452 287 1452 291 1452 c 2,13,-1
 606 1411 l 1,14,-1
 573 1081 l 1,15,-1
 479 1081 l 1,16,-1
 479 1272 l 2,17,18
 479 1290 479 1290 455 1290 c 2,19,-1
 328 1290 l 2,20,21
 290 1290 290 1290 272 1258 c 128,-1,22
 254 1226 254 1226 254 1188 c 0,23,24
 254 1164 254 1164 260 1161 c 1,25,-1
 260 203 l 1,26,27
 254 200 254 200 254 197 c 0,28,29
 254 190 254 190 272 190 c 2,30,-1
 475 190 l 2,31,32
 500 190 500 190 500 203 c 2,33,-1
 500 356 l 1,34,-1
 539 383 l 1,35,-1
 606 383 l 1,36,-1
 606 41 l 1,4,-1
EndSplineSet
Validated: 1
Substitution2: "Single Substitution lookup 20 subtable" Cacute
Substitution2: "'locl' Localized Forms in Latin lookup 11 subtable" cacute.loclPLK
AlternateSubs2: "'aalt' Access All Alternates lookup 1 subtable" cacute.loclPLK Cacute
EndChar

StartChar: ccaron
Encoding: 269 269 165
Width: 684
Flags: MW
HStem: 41 150<272 475 475 483 272 606 170 475> 1290 164<219 328 219 455> 1413 41G<219 268>
VStem: 106 154 479 94<1081 1272> 500 106<203 356 356 356>
LayerCount: 2
UndoRedoHistory
Layer: 1
Undoes
EndUndoes
Redoes
EndRedoes
EndUndoRedoHistory
Fore
SplineSet
379 1579 m 1,0,-1
 227 1804 l 1,1,-1
 287 1843 l 1,2,-1
 420 1716 l 1,3,-1
 553 1843 l 1,4,-1
 612 1804 l 1,5,-1
 461 1573 l 1,6,-1
 379 1579 l 1,0,-1
606 41 m 1,7,-1
 170 41 l 1,8,-1
 86 127 l 1,9,-1
 127 1337 l 2,10,11
 129 1383 129 1383 165 1418.5 c 128,-1,12
 201 1454 201 1454 264 1454 c 0,13,14
 268 1454 268 1454 277.5 1453 c 128,-1,15
 287 1452 287 1452 291 1452 c 2,16,-1
 606 1411 l 1,17,-1
 573 1081 l 1,18,-1
 479 1081 l 1,19,-1
 479 1272 l 2,20,21
 479 1290 479 1290 455 1290 c 2,22,-1
 328 1290 l 2,23,24
 290 1290 290 1290 272 1258 c 128,-1,25
 254 1226 254 1226 254 1188 c 0,26,27
 254 1164 254 1164 260 1161 c 1,28,-1
 260 203 l 1,29,30
 254 200 254 200 254 197 c 0,31,32
 254 190 254 190 272 190 c 2,33,-1
 475 190 l 2,34,35
 500 190 500 190 500 203 c 2,36,-1
 500 356 l 1,37,-1
 539 383 l 1,38,-1
 606 383 l 1,39,-1
 606 41 l 1,7,-1
EndSplineSet
Validated: 1
Substitution2: "Single Substitution lookup 20 subtable" Ccaron
Substitution2: "'aalt' Access All Alternates lookup 0 subtable" Ccaron
EndChar

StartChar: ccedilla
Encoding: 231 231 166
Width: 684
Flags: MW
HStem: -426 119<127 379 127 391> -190 98 41 150<170 475 170 475 399 475 475 483 272 606 399 399> 1290 164<219 328 219 455> 1413 41G<219 268>
VStem: 106 154 127 383<-332 -307 -307 -307> 479 94<1081 1272> 500 106<203 356 356 356>
LayerCount: 2
UndoRedoHistory
Layer: 1
Undoes
EndUndoes
Redoes
EndRedoes
EndUndoRedoHistory
Fore
SplineSet
606 41 m 1,0,-1
 399 41 l 1,1,-1
 330 -92 l 1,2,-1
 559 -92 l 1,3,-1
 510 -303 l 1,4,5
 510 -345 510 -345 467 -385.5 c 128,-1,6
 424 -426 424 -426 379 -426 c 2,7,-1
 127 -426 l 1,8,-1
 127 -307 l 1,9,-1
 391 -307 l 1,10,-1
 412 -199 l 1,11,-1
 197 -182 l 1,12,-1
 258 41 l 1,13,-1
 170 41 l 1,14,-1
 86 127 l 1,15,-1
 127 1337 l 2,16,17
 129 1383 129 1383 165 1418.5 c 128,-1,18
 201 1454 201 1454 264 1454 c 0,19,20
 268 1454 268 1454 277.5 1453 c 128,-1,21
 287 1452 287 1452 291 1452 c 2,22,-1
 606 1411 l 1,23,-1
 573 1081 l 1,24,-1
 479 1081 l 1,25,-1
 479 1272 l 2,26,27
 479 1290 479 1290 455 1290 c 2,28,-1
 328 1290 l 2,29,30
 290 1290 290 1290 272 1258 c 128,-1,31
 254 1226 254 1226 254 1188 c 0,32,33
 254 1164 254 1164 260 1161 c 1,34,-1
 260 203 l 1,35,36
 254 200 254 200 254 197 c 0,37,38
 254 190 254 190 272 190 c 2,39,-1
 475 190 l 2,40,41
 500 190 500 190 500 203 c 2,42,-1
 500 356 l 1,43,-1
 539 383 l 1,44,-1
 606 383 l 1,45,-1
 606 41 l 1,0,-1
EndSplineSet
Validated: 1
Substitution2: "Single Substitution lookup 20 subtable" Ccedilla
Substitution2: "'aalt' Access All Alternates lookup 0 subtable" Ccedilla
EndChar

StartChar: ccircumflex
Encoding: 265 265 167
Width: 684
Flags: MW
HStem: 41 150<272 475 475 483 272 606 170 475> 1290 164<219 328 219 455> 1413 41G<219 268>
VStem: 106 154 479 94<1081 1272> 500 106<203 356 356 356>
LayerCount: 2
UndoRedoHistory
Layer: 1
Undoes
EndUndoes
Redoes
EndRedoes
EndUndoRedoHistory
Fore
SplineSet
461 1837 m 1,0,-1
 612 1612 l 1,1,-1
 553 1573 l 1,2,-1
 420 1700 l 1,3,-1
 287 1573 l 1,4,-1
 227 1612 l 1,5,-1
 379 1843 l 1,6,-1
 461 1837 l 1,0,-1
606 41 m 1,7,-1
 170 41 l 1,8,-1
 86 127 l 1,9,-1
 127 1337 l 2,10,11
 129 1383 129 1383 165 1418.5 c 128,-1,12
 201 1454 201 1454 264 1454 c 0,13,14
 268 1454 268 1454 277.5 1453 c 128,-1,15
 287 1452 287 1452 291 1452 c 2,16,-1
 606 1411 l 1,17,-1
 573 1081 l 1,18,-1
 479 1081 l 1,19,-1
 479 1272 l 2,20,21
 479 1290 479 1290 455 1290 c 2,22,-1
 328 1290 l 2,23,24
 290 1290 290 1290 272 1258 c 128,-1,25
 254 1226 254 1226 254 1188 c 0,26,27
 254 1164 254 1164 260 1161 c 1,28,-1
 260 203 l 1,29,30
 254 200 254 200 254 197 c 0,31,32
 254 190 254 190 272 190 c 2,33,-1
 475 190 l 2,34,35
 500 190 500 190 500 203 c 2,36,-1
 500 356 l 1,37,-1
 539 383 l 1,38,-1
 606 383 l 1,39,-1
 606 41 l 1,7,-1
EndSplineSet
Validated: 1
Substitution2: "Single Substitution lookup 20 subtable" Ccircumflex
Substitution2: "'aalt' Access All Alternates lookup 0 subtable" Ccircumflex
EndChar

StartChar: cdotaccent
Encoding: 267 267 168
Width: 684
Flags: MW
HStem: 41 150<272 475 475 483 272 606 170 475> 1290 164<219 328 219 455> 1413 41G<219 268> 1646 198
VStem: 106 154 336 186 479 94<1081 1272> 500 106<203 356 356 356>
LayerCount: 2
UndoRedoHistory
Layer: 1
Undoes
EndUndoes
Redoes
EndRedoes
EndUndoRedoHistory
Fore
SplineSet
522 1843 m 1,0,-1
 522 1649 l 1,1,-1
 340 1642 l 1,2,-1
 332 1843 l 1,3,-1
 522 1843 l 1,0,-1
606 41 m 1,4,-1
 170 41 l 1,5,-1
 86 127 l 1,6,-1
 127 1337 l 2,7,8
 129 1383 129 1383 165 1418.5 c 128,-1,9
 201 1454 201 1454 264 1454 c 0,10,11
 268 1454 268 1454 277.5 1453 c 128,-1,12
 287 1452 287 1452 291 1452 c 2,13,-1
 606 1411 l 1,14,-1
 573 1081 l 1,15,-1
 479 1081 l 1,16,-1
 479 1272 l 2,17,18
 479 1290 479 1290 455 1290 c 2,19,-1
 328 1290 l 2,20,21
 290 1290 290 1290 272 1258 c 128,-1,22
 254 1226 254 1226 254 1188 c 0,23,24
 254 1164 254 1164 260 1161 c 1,25,-1
 260 203 l 1,26,27
 254 200 254 200 254 197 c 0,28,29
 254 190 254 190 272 190 c 2,30,-1
 475 190 l 2,31,32
 500 190 500 190 500 203 c 2,33,-1
 500 356 l 1,34,-1
 539 383 l 1,35,-1
 606 383 l 1,36,-1
 606 41 l 1,4,-1
EndSplineSet
Validated: 1
Substitution2: "Single Substitution lookup 20 subtable" Cdotaccent
Substitution2: "'aalt' Access All Alternates lookup 0 subtable" Cdotaccent
EndChar

StartChar: d
Encoding: 100 100 169
Width: 681
Flags: MW
HStem: 0 141<279 344 344 361 279 459> 1325 129<272 279 279 422 84 434>
VStem: 105 155 453 127<1307 1315>
LayerCount: 2
UndoRedoHistory
Layer: 1
Undoes
EndUndoes
Redoes
EndRedoes
EndUndoRedoHistory
Fore
SplineSet
580 1389 m 1,0,-1
 580 115 l 2,1,2
 580 85 580 85 569 62.5 c 128,-1,3
 558 40 558 40 543 28.5 c 128,-1,4
 528 17 528 17 509 10 c 128,-1,5
 490 3 490 3 478.5 1.5 c 128,-1,6
 467 0 467 0 459 0 c 2,7,-1
 115 0 l 1,8,-1
 115 115 l 1,9,-1
 127 172 l 1,10,-1
 84 1454 l 1,11,-1
 422 1454 l 1,12,-1
 580 1389 l 1,0,-1
344 141 m 2,13,14
 375 141 375 141 391.5 165.5 c 128,-1,15
 408 190 408 190 412 268 c 2,16,-1
 453 1307 l 2,17,18
 453 1318 453 1318 449 1321.5 c 128,-1,19
 445 1325 445 1325 434 1325 c 2,20,-1
 279 1325 l 2,21,22
 260 1325 260 1325 260 1307 c 2,23,-1
 260 160 l 2,24,25
 260 141 260 141 279 141 c 2,26,-1
 344 141 l 2,13,14
EndSplineSet
Validated: 1
Substitution2: "Single Substitution lookup 20 subtable" D
Substitution2: "'aalt' Access All Alternates lookup 0 subtable" D
EndChar

StartChar: eth
Encoding: 240 240 170
Width: 681
Flags: MW
HStem: 0 141<279 344 344 361 279 459> 692 102 1325 129<272 279 279 422 84 434>
VStem: 118 142 453 127<1307 1315>
LayerCount: 2
UndoRedoHistory
Layer: 1
Undoes
EndUndoes
Redoes
EndRedoes
EndUndoRedoHistory
Fore
SplineSet
580 1389 m 1,0,-1
 580 115 l 2,1,2
 580 85 580 85 569 62.5 c 128,-1,3
 558 40 558 40 543 28.5 c 128,-1,4
 528 17 528 17 509 10 c 128,-1,5
 490 3 490 3 478.5 1.5 c 128,-1,6
 467 0 467 0 459 0 c 2,7,-1
 115 0 l 1,8,-1
 115 115 l 1,9,-1
 127 172 l 1,10,-1
 109 692 l 1,11,-1
 23 692 l 1,12,-1
 16 811 l 1,13,-1
 104 805 l 1,14,-1
 84 1454 l 1,15,-1
 422 1454 l 1,16,-1
 580 1389 l 1,0,-1
344 141 m 2,17,18
 375 141 375 141 391.5 165.5 c 128,-1,19
 408 190 408 190 412 268 c 2,20,-1
 453 1307 l 2,21,22
 453 1318 453 1318 449 1321.5 c 128,-1,23
 445 1325 445 1325 434 1325 c 2,24,-1
 279 1325 l 2,25,26
 260 1325 260 1325 260 1307 c 2,27,-1
 260 797 l 1,28,-1
 360 793 l 1,29,-1
 360 692 l 1,30,-1
 260 692 l 1,31,-1
 260 160 l 2,32,33
 260 141 260 141 279 141 c 2,34,-1
 344 141 l 2,17,18
EndSplineSet
Validated: 1
Substitution2: "Single Substitution lookup 20 subtable" Eth
Substitution2: "'aalt' Access All Alternates lookup 0 subtable" Eth
EndChar

StartChar: dcaron
Encoding: 271 271 171
Width: 638
Flags: MW
HStem: 0 141<279 344 344 361 279 459> 1325 129<272 279 279 422 84 434>
VStem: 105 155 453 127<1307 1315>
LayerCount: 2
UndoRedoHistory
Layer: 1
Undoes
EndUndoes
Redoes
EndRedoes
EndUndoRedoHistory
Fore
SplineSet
379 1579 m 1,0,-1
 227 1804 l 1,1,-1
 287 1843 l 1,2,-1
 420 1716 l 1,3,-1
 553 1843 l 1,4,-1
 612 1804 l 1,5,-1
 461 1573 l 1,6,-1
 379 1579 l 1,0,-1
580 1389 m 1,7,-1
 580 115 l 2,8,9
 580 85 580 85 569 62.5 c 128,-1,10
 558 40 558 40 543 28.5 c 128,-1,11
 528 17 528 17 509 10 c 128,-1,12
 490 3 490 3 478.5 1.5 c 128,-1,13
 467 0 467 0 459 0 c 2,14,-1
 115 0 l 1,15,-1
 115 115 l 1,16,-1
 127 172 l 1,17,-1
 84 1454 l 1,18,-1
 422 1454 l 1,19,-1
 580 1389 l 1,7,-1
344 141 m 2,20,21
 375 141 375 141 391.5 165.5 c 128,-1,22
 408 190 408 190 412 268 c 2,23,-1
 453 1307 l 2,24,25
 453 1318 453 1318 449 1321.5 c 128,-1,26
 445 1325 445 1325 434 1325 c 2,27,-1
 279 1325 l 2,28,29
 260 1325 260 1325 260 1307 c 2,30,-1
 260 160 l 2,31,32
 260 141 260 141 279 141 c 2,33,-1
 344 141 l 2,20,21
EndSplineSet
Validated: 1
Substitution2: "Single Substitution lookup 20 subtable" Dcaron
Substitution2: "'aalt' Access All Alternates lookup 0 subtable" Dcaron
EndChar

StartChar: dcroat
Encoding: 273 273 172
Width: 681
Flags: MW
HStem: 0 141<279 344 344 361 279 459> 692 102 1325 129<272 279 279 422 84 434>
VStem: 118 142 453 127<1307 1315>
LayerCount: 2
UndoRedoHistory
Layer: 1
Undoes
EndUndoes
Redoes
EndRedoes
EndUndoRedoHistory
Fore
SplineSet
580 1389 m 1,0,-1
 580 115 l 2,1,2
 580 85 580 85 569 62.5 c 128,-1,3
 558 40 558 40 543 28.5 c 128,-1,4
 528 17 528 17 509 10 c 128,-1,5
 490 3 490 3 478.5 1.5 c 128,-1,6
 467 0 467 0 459 0 c 2,7,-1
 115 0 l 1,8,-1
 115 115 l 1,9,-1
 127 172 l 1,10,-1
 109 692 l 1,11,-1
 23 692 l 1,12,-1
 16 811 l 1,13,-1
 104 805 l 1,14,-1
 84 1454 l 1,15,-1
 422 1454 l 1,16,-1
 580 1389 l 1,0,-1
344 141 m 2,17,18
 375 141 375 141 391.5 165.5 c 128,-1,19
 408 190 408 190 412 268 c 2,20,-1
 453 1307 l 2,21,22
 453 1318 453 1318 449 1321.5 c 128,-1,23
 445 1325 445 1325 434 1325 c 2,24,-1
 279 1325 l 2,25,26
 260 1325 260 1325 260 1307 c 2,27,-1
 260 797 l 1,28,-1
 360 793 l 1,29,-1
 360 692 l 1,30,-1
 260 692 l 1,31,-1
 260 160 l 2,32,33
 260 141 260 141 279 141 c 2,34,-1
 344 141 l 2,17,18
EndSplineSet
Validated: 1
Substitution2: "Single Substitution lookup 20 subtable" Dcroat
Substitution2: "'aalt' Access All Alternates lookup 0 subtable" Dcroat
EndChar

StartChar: ddotbelow
Encoding: 7693 7693 173
Width: 681
Flags: MW
HStem: -312 198 0 141<279 344 344 361 279 459> 1325 129<272 279 279 422 84 434>
VStem: 105 155 236 186 453 127<1307 1315>
LayerCount: 2
UndoRedoHistory
Layer: 1
Undoes
EndUndoes
Redoes
EndRedoes
EndUndoRedoHistory
Fore
SplineSet
580 1389 m 1,0,-1
 580 115 l 2,1,2
 580 85 580 85 569 62.5 c 128,-1,3
 558 40 558 40 543 28.5 c 128,-1,4
 528 17 528 17 509 10 c 128,-1,5
 490 3 490 3 478.5 1.5 c 128,-1,6
 467 0 467 0 459 0 c 2,7,-1
 115 0 l 1,8,-1
 115 115 l 1,9,-1
 127 172 l 1,10,-1
 84 1454 l 1,11,-1
 422 1454 l 1,12,-1
 580 1389 l 1,0,-1
344 141 m 2,13,14
 375 141 375 141 391.5 165.5 c 128,-1,15
 408 190 408 190 412 268 c 2,16,-1
 453 1307 l 2,17,18
 453 1318 453 1318 449 1321.5 c 128,-1,19
 445 1325 445 1325 434 1325 c 2,20,-1
 279 1325 l 2,21,22
 260 1325 260 1325 260 1307 c 2,23,-1
 260 160 l 2,24,25
 260 141 260 141 279 141 c 2,26,-1
 344 141 l 2,13,14
422 -115 m 1,27,-1
 422 -309 l 1,28,-1
 240 -315 l 1,29,-1
 231 -115 l 1,30,-1
 422 -115 l 1,27,-1
EndSplineSet
Validated: 1
Substitution2: "Single Substitution lookup 20 subtable" Ddotbelow
Substitution2: "'aalt' Access All Alternates lookup 0 subtable" Ddotbelow
EndChar

StartChar: dz
Encoding: 499 499 174
Width: 1280
Flags: MW
HStem: 0 141<279 344 344 361 279 459> 1325 129<272 279 279 422 84 434>
VStem: 105 155 453 127<1307 1315>
LayerCount: 2
UndoRedoHistory
Layer: 1
Undoes
EndUndoes
Redoes
EndRedoes
EndUndoRedoHistory
Fore
SplineSet
580 1389 m 1,0,-1
 580 115 l 2,1,2
 580 85 580 85 569 62.5 c 128,-1,3
 558 40 558 40 543 28.5 c 128,-1,4
 528 17 528 17 509 10 c 128,-1,5
 490 3 490 3 478.5 1.5 c 128,-1,6
 467 0 467 0 459 0 c 2,7,-1
 115 0 l 1,8,-1
 115 115 l 1,9,-1
 127 172 l 1,10,-1
 84 1454 l 1,11,-1
 422 1454 l 1,12,-1
 580 1389 l 1,0,-1
1229 96 m 1,13,-1
 1229 0 l 1,14,-1
 770 0 l 1,15,-1
 733 68 l 1,16,-1
 1028 1356 l 1,17,-1
 766 1323 l 1,18,-1
 766 1454 l 1,19,-1
 1188 1454 l 1,20,-1
 954 115 l 1,21,-1
 1229 96 l 1,13,-1
344 141 m 2,22,23
 375 141 375 141 391.5 165.5 c 128,-1,24
 408 190 408 190 412 268 c 2,25,-1
 453 1307 l 2,26,27
 453 1318 453 1318 449 1321.5 c 128,-1,28
 445 1325 445 1325 434 1325 c 2,29,-1
 279 1325 l 2,30,31
 260 1325 260 1325 260 1307 c 2,32,-1
 260 160 l 2,33,34
 260 141 260 141 279 141 c 2,35,-1
 344 141 l 2,22,23
EndSplineSet
Validated: 1
Substitution2: "Single Substitution lookup 20 subtable" DZ
Substitution2: "'aalt' Access All Alternates lookup 0 subtable" DZ
EndChar

StartChar: dzcaron
Encoding: 454 454 175
Width: 1236
Flags: MW
HStem: 0 105 0 140 1319 135<265 268 268 338 338 360> 1356 98<985 985>
VStem: 102 147<147 1307 147 1454> 362 199
LayerCount: 2
UndoRedoHistory
Layer: 1
Undoes
EndUndoes
Redoes
EndRedoes
EndUndoRedoHistory
Fore
SplineSet
907 1579 m 1,0,-1
 756 1804 l 1,1,-1
 815 1843 l 1,2,-1
 948 1716 l 1,3,-1
 1081 1843 l 1,4,-1
 1141 1804 l 1,5,-1
 989 1573 l 1,6,-1
 907 1579 l 1,0,-1
338 1454 m 2,7,8
 436 1454 436 1454 498.5 1390.5 c 128,-1,9
 561 1327 561 1327 561 1229 c 1,10,-1
 500 117 l 1,11,-1
 375 0 l 1,12,-1
 102 0 l 1,13,-1
 102 1454 l 1,14,-1
 338 1454 l 2,7,8
690 68 m 1,15,-1
 985 1356 l 1,16,-1
 723 1323 l 1,17,-1
 723 1454 l 1,18,-1
 1145 1454 l 1,19,-1
 911 115 l 1,20,-1
 1186 96 l 1,21,-1
 1186 0 l 1,22,-1
 727 0 l 1,23,-1
 690 68 l 1,15,-1
385 1307 m 2,24,25
 385 1319 385 1319 360 1319 c 2,26,-1
 268 1319 l 2,27,28
 263 1319 263 1319 256.5 1315 c 128,-1,29
 250 1311 250 1311 250 1307 c 2,30,-1
 250 147 l 1,31,-1
 268 135 l 1,32,-1
 344 145 l 1,33,34
 362 157 362 157 362 172 c 2,35,-1
 385 1307 l 2,24,25
EndSplineSet
Validated: 1
Substitution2: "Single Substitution lookup 20 subtable" DZcaron
Substitution2: "'aalt' Access All Alternates lookup 0 subtable" DZcaron
EndChar

StartChar: e
Encoding: 101 101 176
Width: 675
Flags: MW
HStem: 0 162 1333 121
VStem: 113 147<154 741 154 1454>
LayerCount: 2
UndoRedoHistory
Layer: 1
Undoes
EndUndoes
Redoes
EndRedoes
EndUndoRedoHistory
Fore
SplineSet
113 0 m 1,0,-1
 113 1454 l 1,1,-1
 551 1454 l 1,2,-1
 551 1327 l 1,3,-1
 295 1339 l 1,4,-1
 295 874 l 1,5,-1
 551 827 l 1,6,-1
 551 729 l 1,7,-1
 260 741 l 1,8,-1
 260 154 l 1,9,-1
 551 170 l 1,10,-1
 551 0 l 1,11,-1
 113 0 l 1,0,-1
EndSplineSet
Validated: 1
Substitution2: "Single Substitution lookup 21 subtable" E
Substitution2: "'aalt' Access All Alternates lookup 0 subtable" E
EndChar

StartChar: eacute
Encoding: 233 233 177
Width: 675
Flags: MW
HStem: 0 162 1333 121
VStem: 113 147<154 741 154 1454>
LayerCount: 2
UndoRedoHistory
Layer: 1
Undoes
EndUndoes
Redoes
EndRedoes
EndUndoRedoHistory
Fore
SplineSet
516 1745 m 1,0,-1
 319 1573 l 1,1,-1
 250 1622 l 1,2,-1
 422 1843 l 1,3,-1
 516 1745 l 1,0,-1
113 0 m 1,4,-1
 113 1454 l 1,5,-1
 551 1454 l 1,6,-1
 551 1327 l 1,7,-1
 295 1339 l 1,8,-1
 295 874 l 1,9,-1
 551 827 l 1,10,-1
 551 729 l 1,11,-1
 260 741 l 1,12,-1
 260 154 l 1,13,-1
 551 170 l 1,14,-1
 551 0 l 1,15,-1
 113 0 l 1,4,-1
EndSplineSet
Validated: 1
Substitution2: "Single Substitution lookup 21 subtable" Eacute
Substitution2: "'aalt' Access All Alternates lookup 0 subtable" Eacute
EndChar

StartChar: ebreve
Encoding: 277 277 178
Width: 675
Flags: MW
HStem: 0 162 1333 121 1608 97 1733 98<225 225>
VStem: 113 147<154 741 154 1454> 131 99 472 91
LayerCount: 2
UndoRedoHistory
Layer: 1
Undoes
EndUndoes
Redoes
EndRedoes
EndUndoRedoHistory
Fore
SplineSet
225 1733 m 1,0,-1
 250 1710 l 1,1,-1
 475 1700 l 1,2,-1
 469 1835 l 1,3,-1
 563 1843 l 1,4,-1
 563 1688 l 1,5,-1
 483 1608 l 1,6,-1
 227 1608 l 1,7,-1
 135 1665 l 1,8,-1
 127 1831 l 1,9,-1
 236 1831 l 1,10,-1
 225 1733 l 1,0,-1
113 0 m 1,11,-1
 113 1454 l 1,12,-1
 551 1454 l 1,13,-1
 551 1327 l 1,14,-1
 295 1339 l 1,15,-1
 295 874 l 1,16,-1
 551 827 l 1,17,-1
 551 729 l 1,18,-1
 260 741 l 1,19,-1
 260 154 l 1,20,-1
 551 170 l 1,21,-1
 551 0 l 1,22,-1
 113 0 l 1,11,-1
EndSplineSet
Validated: 1
Substitution2: "Single Substitution lookup 21 subtable" Ebreve
Substitution2: "'aalt' Access All Alternates lookup 0 subtable" Ebreve
EndChar

StartChar: ecaron
Encoding: 283 283 179
Width: 675
Flags: MW
HStem: 0 162 1333 121
VStem: 113 147<154 741 154 1454>
LayerCount: 2
UndoRedoHistory
Layer: 1
Undoes
EndUndoes
Redoes
EndRedoes
EndUndoRedoHistory
Fore
SplineSet
313 1579 m 1,0,-1
 162 1804 l 1,1,-1
 221 1843 l 1,2,-1
 354 1716 l 1,3,-1
 487 1843 l 1,4,-1
 547 1804 l 1,5,-1
 395 1573 l 1,6,-1
 313 1579 l 1,0,-1
113 0 m 1,7,-1
 113 1454 l 1,8,-1
 551 1454 l 1,9,-1
 551 1327 l 1,10,-1
 295 1339 l 1,11,-1
 295 874 l 1,12,-1
 551 827 l 1,13,-1
 551 729 l 1,14,-1
 260 741 l 1,15,-1
 260 154 l 1,16,-1
 551 170 l 1,17,-1
 551 0 l 1,18,-1
 113 0 l 1,7,-1
EndSplineSet
Validated: 1
Substitution2: "Single Substitution lookup 21 subtable" Ecaron
Substitution2: "'aalt' Access All Alternates lookup 0 subtable" Ecaron
EndChar

StartChar: ecircumflex
Encoding: 234 234 180
Width: 675
Flags: MW
HStem: 0 162 1333 121
VStem: 113 147<154 741 154 1454>
LayerCount: 2
UndoRedoHistory
Layer: 1
Undoes
EndUndoes
Redoes
EndRedoes
EndUndoRedoHistory
Fore
SplineSet
379 1837 m 1,0,-1
 530 1612 l 1,1,-1
 471 1573 l 1,2,-1
 338 1700 l 1,3,-1
 205 1573 l 1,4,-1
 145 1612 l 1,5,-1
 297 1843 l 1,6,-1
 379 1837 l 1,0,-1
113 0 m 1,7,-1
 113 1454 l 1,8,-1
 551 1454 l 1,9,-1
 551 1327 l 1,10,-1
 295 1339 l 1,11,-1
 295 874 l 1,12,-1
 551 827 l 1,13,-1
 551 729 l 1,14,-1
 260 741 l 1,15,-1
 260 154 l 1,16,-1
 551 170 l 1,17,-1
 551 0 l 1,18,-1
 113 0 l 1,7,-1
EndSplineSet
Validated: 1
Substitution2: "Single Substitution lookup 21 subtable" Ecircumflex
Substitution2: "'aalt' Access All Alternates lookup 0 subtable" Ecircumflex
EndChar

StartChar: edieresis
Encoding: 235 235 181
Width: 675
Flags: MW
HStem: 0 162 1333 121 1669 167
VStem: 102 166 113 147<154 741 154 1454> 413 159
LayerCount: 2
UndoRedoHistory
Layer: 1
Undoes
EndUndoes
Redoes
EndRedoes
EndUndoRedoHistory
Fore
SplineSet
272 1839 m 1,0,-1
 264 1669 l 1,1,-1
 102 1669 l 1,2,-1
 102 1833 l 1,3,-1
 272 1839 l 1,0,-1
571 1839 m 1,4,-1
 571 1675 l 1,5,-1
 416 1669 l 1,6,-1
 410 1839 l 1,7,-1
 571 1839 l 1,4,-1
113 0 m 1,8,-1
 113 1454 l 1,9,-1
 551 1454 l 1,10,-1
 551 1327 l 1,11,-1
 295 1339 l 1,12,-1
 295 874 l 1,13,-1
 551 827 l 1,14,-1
 551 729 l 1,15,-1
 260 741 l 1,16,-1
 260 154 l 1,17,-1
 551 170 l 1,18,-1
 551 0 l 1,19,-1
 113 0 l 1,8,-1
EndSplineSet
Validated: 1
Substitution2: "Single Substitution lookup 21 subtable" Edieresis
Substitution2: "'aalt' Access All Alternates lookup 0 subtable" Edieresis
EndChar

StartChar: edotaccent
Encoding: 279 279 182
Width: 675
Flags: MW
HStem: 0 162 1333 121 1646 198
VStem: 113 147<154 741 154 1454> 262 186
LayerCount: 2
UndoRedoHistory
Layer: 1
Undoes
EndUndoes
Redoes
EndRedoes
EndUndoRedoHistory
Fore
SplineSet
449 1843 m 1,0,-1
 449 1649 l 1,1,-1
 266 1642 l 1,2,-1
 258 1843 l 1,3,-1
 449 1843 l 1,0,-1
113 0 m 1,4,-1
 113 1454 l 1,5,-1
 551 1454 l 1,6,-1
 551 1327 l 1,7,-1
 295 1339 l 1,8,-1
 295 874 l 1,9,-1
 551 827 l 1,10,-1
 551 729 l 1,11,-1
 260 741 l 1,12,-1
 260 154 l 1,13,-1
 551 170 l 1,14,-1
 551 0 l 1,15,-1
 113 0 l 1,4,-1
EndSplineSet
Validated: 1
Substitution2: "Single Substitution lookup 21 subtable" Edotaccent
Substitution2: "'aalt' Access All Alternates lookup 0 subtable" Edotaccent
EndChar

StartChar: edotbelow
Encoding: 7865 7865 183
Width: 675
Flags: MW
HStem: -312 198 0 162 1333 121
VStem: 113 147<154 741 154 1454> 231 186
LayerCount: 2
UndoRedoHistory
Layer: 1
Undoes
EndUndoes
Redoes
EndRedoes
EndUndoRedoHistory
Fore
SplineSet
113 0 m 1,0,-1
 113 1454 l 1,1,-1
 551 1454 l 1,2,-1
 551 1327 l 1,3,-1
 295 1339 l 1,4,-1
 295 874 l 1,5,-1
 551 827 l 1,6,-1
 551 729 l 1,7,-1
 260 741 l 1,8,-1
 260 154 l 1,9,-1
 551 170 l 1,10,-1
 551 0 l 1,11,-1
 113 0 l 1,0,-1
418 -115 m 1,12,-1
 418 -309 l 1,13,-1
 236 -315 l 1,14,-1
 227 -115 l 1,15,-1
 418 -115 l 1,12,-1
EndSplineSet
Validated: 1
Substitution2: "Single Substitution lookup 21 subtable" Edotbelow
Substitution2: "'aalt' Access All Alternates lookup 0 subtable" Edotbelow
EndChar

StartChar: egrave
Encoding: 232 232 184
Width: 675
Flags: MW
HStem: 0 162 1333 121
VStem: 113 147<154 741 154 1454>
LayerCount: 2
UndoRedoHistory
Layer: 1
Undoes
EndUndoes
Redoes
EndRedoes
EndUndoRedoHistory
Fore
SplineSet
354 1573 m 1,0,-1
 158 1745 l 1,1,-1
 252 1843 l 1,2,-1
 424 1622 l 1,3,-1
 354 1573 l 1,0,-1
113 0 m 1,4,-1
 113 1454 l 1,5,-1
 551 1454 l 1,6,-1
 551 1327 l 1,7,-1
 295 1339 l 1,8,-1
 295 874 l 1,9,-1
 551 827 l 1,10,-1
 551 729 l 1,11,-1
 260 741 l 1,12,-1
 260 154 l 1,13,-1
 551 170 l 1,14,-1
 551 0 l 1,15,-1
 113 0 l 1,4,-1
EndSplineSet
Validated: 1
Substitution2: "Single Substitution lookup 21 subtable" Egrave
Substitution2: "'aalt' Access All Alternates lookup 0 subtable" Egrave
EndChar

StartChar: emacron
Encoding: 275 275 185
Width: 675
Flags: MW
HStem: 0 162 1333 121 1703 122
VStem: 113 147<154 741 154 1454>
LayerCount: 2
UndoRedoHistory
Layer: 1
Undoes
EndUndoes
Redoes
EndRedoes
EndUndoRedoHistory
Fore
SplineSet
612 1712 m 1,0,-1
 70 1694 l 1,1,-1
 63 1825 l 1,2,-1
 612 1825 l 1,3,-1
 612 1712 l 1,0,-1
113 0 m 1,4,-1
 113 1454 l 1,5,-1
 551 1454 l 1,6,-1
 551 1327 l 1,7,-1
 295 1339 l 1,8,-1
 295 874 l 1,9,-1
 551 827 l 1,10,-1
 551 729 l 1,11,-1
 260 741 l 1,12,-1
 260 154 l 1,13,-1
 551 170 l 1,14,-1
 551 0 l 1,15,-1
 113 0 l 1,4,-1
EndSplineSet
Validated: 1
Substitution2: "Single Substitution lookup 21 subtable" Emacron
Substitution2: "'aalt' Access All Alternates lookup 0 subtable" Emacron
EndChar

StartChar: eogonek
Encoding: 281 281 186
Width: 675
Flags: MW
HStem: 0 162 1333 121
VStem: 113 147<154 741 154 1454>
LayerCount: 2
UndoRedoHistory
Layer: 1
Undoes
EndUndoes
Redoes
EndRedoes
EndUndoRedoHistory
Fore
SplineSet
340 0 m 1,0,-1
 287 -170 l 1,1,-1
 356 -297 l 1,2,-1
 539 -205 l 1,3,-1
 571 -299 l 1,4,-1
 340 -428 l 1,5,-1
 160 -195 l 1,6,-1
 258 0 l 1,7,-1
 113 0 l 1,8,-1
 113 1454 l 1,9,-1
 551 1454 l 1,10,-1
 551 1327 l 1,11,-1
 295 1339 l 1,12,-1
 295 874 l 1,13,-1
 551 827 l 1,14,-1
 551 729 l 1,15,-1
 260 741 l 1,16,-1
 260 154 l 1,17,-1
 551 170 l 1,18,-1
 551 0 l 1,19,-1
 340 0 l 1,0,-1
EndSplineSet
Validated: 1
Substitution2: "Single Substitution lookup 21 subtable" Eogonek
Substitution2: "'aalt' Access All Alternates lookup 0 subtable" Eogonek
EndChar

StartChar: etilde
Encoding: 7869 7869 187
Width: 675
Flags: MW
HStem: 0 162 1333 121
VStem: 113 147<154 741 154 1454> 122 464
LayerCount: 2
UndoRedoHistory
Layer: 1
Undoes
EndUndoes
Redoes
EndRedoes
EndUndoRedoHistory
Fore
SplineSet
172 1808 m 1,0,1
 209 1837 209 1837 250 1837 c 0,2,3
 301 1837 301 1837 360 1796 c 1,4,-1
 438 1745 l 1,5,-1
 586 1843 l 1,6,-1
 586 1720 l 1,7,-1
 537 1673 l 1,8,9
 486 1626 486 1626 446 1626 c 0,10,11
 409 1626 409 1626 354 1665 c 2,12,-1
 264 1729 l 1,13,-1
 125 1620 l 1,14,-1
 119 1761 l 1,15,-1
 172 1808 l 1,0,1
113 0 m 1,16,-1
 113 1454 l 1,17,-1
 551 1454 l 1,18,-1
 551 1327 l 1,19,-1
 295 1339 l 1,20,-1
 295 874 l 1,21,-1
 551 827 l 1,22,-1
 551 729 l 1,23,-1
 260 741 l 1,24,-1
 260 154 l 1,25,-1
 551 170 l 1,26,-1
 551 0 l 1,27,-1
 113 0 l 1,16,-1
EndSplineSet
Validated: 1
Substitution2: "Single Substitution lookup 21 subtable" Etilde
Substitution2: "'aalt' Access All Alternates lookup 0 subtable" Etilde
EndChar

StartChar: f
Encoding: 102 102 188
Width: 636
Flags: MW
HStem: 797 119<274 551> 1413 41G
VStem: 113 162<915 1262 915 1454>
LayerCount: 2
UndoRedoHistory
Layer: 1
Undoes
EndUndoes
Redoes
EndRedoes
EndUndoRedoHistory
Fore
SplineSet
113 1454 m 1,0,-1
 551 1413 l 1,1,-1
 551 1286 l 1,2,-1
 274 1262 l 1,3,-1
 274 915 l 1,4,-1
 551 915 l 1,5,-1
 551 797 l 1,6,-1
 240 762 l 1,7,-1
 281 -41 l 1,8,-1
 113 -41 l 1,9,-1
 113 1454 l 1,0,-1
EndSplineSet
Validated: 1
Substitution2: "Single Substitution lookup 20 subtable" F
Substitution2: "'aalt' Access All Alternates lookup 0 subtable" F
EndChar

StartChar: g
Encoding: 103 103 189
Width: 729
Flags: MW
HStem: 0 193<313 408 408 416 313 434 127 408> 1145 309<465 555 465 465> 1341 113<465 465>
VStem: 104 166 449 129<217 567> 465 127<1145 1454 1341 1454>
LayerCount: 2
UndoRedoHistory
Layer: 1
Undoes
EndUndoes
Redoes
EndRedoes
EndUndoRedoHistory
Fore
SplineSet
578 567 m 1,0,-1
 578 119 l 2,1,2
 578 66 578 66 534.5 33 c 128,-1,3
 491 0 491 0 434 0 c 2,4,-1
 127 0 l 1,5,-1
 82 1343 l 1,6,7
 84 1391 84 1391 111 1422.5 c 128,-1,8
 138 1454 138 1454 182 1454 c 2,9,-1
 592 1454 l 1,10,-1
 592 1368 l 1,11,-1
 555 1145 l 1,12,-1
 465 1145 l 1,13,-1
 465 1341 l 1,14,-1
 236 1290 l 1,15,-1
 270 229 l 2,16,17
 270 216 270 216 284.5 204.5 c 128,-1,18
 299 193 299 193 313 193 c 2,19,-1
 408 193 l 2,20,21
 422 193 422 193 435.5 199.5 c 128,-1,22
 449 206 449 206 449 217 c 2,23,-1
 449 702 l 1,24,-1
 657 682 l 1,25,-1
 657 602 l 1,26,-1
 578 567 l 1,0,-1
EndSplineSet
Validated: 1
Substitution2: "Single Substitution lookup 20 subtable" G
Substitution2: "'aalt' Access All Alternates lookup 0 subtable" G
EndChar

StartChar: gbreve
Encoding: 287 287 190
Width: 729
Flags: MW
HStem: 0 193<313 408 408 416 313 434 127 408> 1145 309<465 555 465 465> 1341 113<465 465> 1608 97 1733 98<254 254>
VStem: 104 166 160 99 449 129<217 567> 465 127<1145 1454 1341 1454> 501 91
LayerCount: 2
UndoRedoHistory
Layer: 1
Undoes
EndUndoes
Redoes
EndRedoes
EndUndoRedoHistory
Fore
SplineSet
254 1733 m 1,0,-1
 279 1710 l 1,1,-1
 504 1700 l 1,2,-1
 498 1835 l 1,3,-1
 592 1843 l 1,4,-1
 592 1688 l 1,5,-1
 512 1608 l 1,6,-1
 256 1608 l 1,7,-1
 164 1665 l 1,8,-1
 156 1831 l 1,9,-1
 264 1831 l 1,10,-1
 254 1733 l 1,0,-1
578 567 m 1,11,-1
 578 119 l 2,12,13
 578 66 578 66 534.5 33 c 128,-1,14
 491 0 491 0 434 0 c 2,15,-1
 127 0 l 1,16,-1
 82 1343 l 1,17,18
 84 1391 84 1391 111 1422.5 c 128,-1,19
 138 1454 138 1454 182 1454 c 2,20,-1
 592 1454 l 1,21,-1
 592 1368 l 1,22,-1
 555 1145 l 1,23,-1
 465 1145 l 1,24,-1
 465 1341 l 1,25,-1
 236 1290 l 1,26,-1
 270 229 l 2,27,28
 270 216 270 216 284.5 204.5 c 128,-1,29
 299 193 299 193 313 193 c 2,30,-1
 408 193 l 2,31,32
 422 193 422 193 435.5 199.5 c 128,-1,33
 449 206 449 206 449 217 c 2,34,-1
 449 702 l 1,35,-1
 657 682 l 1,36,-1
 657 602 l 1,37,-1
 578 567 l 1,11,-1
EndSplineSet
Validated: 1
Substitution2: "Single Substitution lookup 20 subtable" Gbreve
Substitution2: "'aalt' Access All Alternates lookup 0 subtable" Gbreve
EndChar

StartChar: gcircumflex
Encoding: 285 285 191
Width: 729
Flags: MW
HStem: 0 193<313 408 408 416 313 434 127 408> 1145 309<465 555 465 465> 1341 113<465 465>
VStem: 104 166 449 129<217 567> 465 127<1145 1454 1341 1454>
LayerCount: 2
UndoRedoHistory
Layer: 1
Undoes
EndUndoes
Redoes
EndRedoes
EndUndoRedoHistory
Fore
SplineSet
406 1837 m 1,0,-1
 557 1612 l 1,1,-1
 498 1573 l 1,2,-1
 365 1700 l 1,3,-1
 231 1573 l 1,4,-1
 172 1612 l 1,5,-1
 324 1843 l 1,6,-1
 406 1837 l 1,0,-1
578 567 m 1,7,-1
 578 119 l 2,8,9
 578 66 578 66 534.5 33 c 128,-1,10
 491 0 491 0 434 0 c 2,11,-1
 127 0 l 1,12,-1
 82 1343 l 1,13,14
 84 1391 84 1391 111 1422.5 c 128,-1,15
 138 1454 138 1454 182 1454 c 2,16,-1
 592 1454 l 1,17,-1
 592 1368 l 1,18,-1
 555 1145 l 1,19,-1
 465 1145 l 1,20,-1
 465 1341 l 1,21,-1
 236 1290 l 1,22,-1
 270 229 l 2,23,24
 270 216 270 216 284.5 204.5 c 128,-1,25
 299 193 299 193 313 193 c 2,26,-1
 408 193 l 2,27,28
 422 193 422 193 435.5 199.5 c 128,-1,29
 449 206 449 206 449 217 c 2,30,-1
 449 702 l 1,31,-1
 657 682 l 1,32,-1
 657 602 l 1,33,-1
 578 567 l 1,7,-1
EndSplineSet
Validated: 1
Substitution2: "Single Substitution lookup 20 subtable" Gcircumflex
Substitution2: "'aalt' Access All Alternates lookup 0 subtable" Gcircumflex
EndChar

StartChar: gcommaaccent
Encoding: 291 291 192
Width: 729
Flags: MW
HStem: -512 43G<408 408> -328 168<303 389 303 469 303 475> 0 193<313 408 408 416 313 434 127 408> 1104 309<465 555 465 465>
VStem: 104 166 303 169 449 129<217 567> 465 127<1104 1413 1300 1413>
LayerCount: 2
UndoRedoHistory
Layer: 1
Undoes
EndUndoes
Redoes
EndRedoes
EndUndoRedoHistory
Fore
SplineSet
578 567 m 1,0,-1
 578 119 l 2,1,2
 578 66 578 66 534.5 33 c 128,-1,3
 491 0 491 0 434 0 c 2,4,-1
 127 0 l 1,5,-1
 82 1303 l 1,6,7
 84 1351 84 1351 111 1382 c 128,-1,8
 138 1413 138 1413 182 1413 c 2,9,-1
 592 1413 l 1,10,-1
 592 1327 l 1,11,-1
 555 1104 l 1,12,-1
 465 1104 l 1,13,-1
 465 1300 l 1,14,-1
 236 1249 l 1,15,-1
 270 229 l 2,16,17
 270 216 270 216 284.5 204.5 c 128,-1,18
 299 193 299 193 313 193 c 2,19,-1
 408 193 l 2,20,21
 422 193 422 193 435.5 199.5 c 128,-1,22
 449 206 449 206 449 217 c 2,23,-1
 449 702 l 1,24,-1
 657 682 l 1,25,-1
 657 602 l 1,26,-1
 578 567 l 1,0,-1
469 -160 m 1,27,-1
 475 -328 l 1,28,-1
 408 -512 l 1,29,-1
 295 -479 l 1,30,-1
 389 -328 l 1,31,-1
 303 -328 l 1,32,-1
 303 -160 l 1,33,-1
 469 -160 l 1,27,-1
EndSplineSet
Validated: 1
Substitution2: "Single Substitution lookup 20 subtable" Gcommaaccent
Substitution2: "'aalt' Access All Alternates lookup 0 subtable" Gcommaaccent
EndChar

StartChar: gdotaccent
Encoding: 289 289 193
Width: 729
Flags: MW
HStem: 0 193<313 408 408 416 313 434 127 408> 1145 309<465 555 465 465> 1341 113<465 465> 1646 198
VStem: 104 166 287 186 449 129<217 567> 465 127<1145 1454 1341 1454>
LayerCount: 2
UndoRedoHistory
Layer: 1
Undoes
EndUndoes
Redoes
EndRedoes
EndUndoRedoHistory
Fore
SplineSet
473 1843 m 1,0,-1
 473 1649 l 1,1,-1
 291 1642 l 1,2,-1
 283 1843 l 1,3,-1
 473 1843 l 1,0,-1
578 567 m 1,4,-1
 578 119 l 2,5,6
 578 66 578 66 534.5 33 c 128,-1,7
 491 0 491 0 434 0 c 2,8,-1
 127 0 l 1,9,-1
 82 1343 l 1,10,11
 84 1391 84 1391 111 1422.5 c 128,-1,12
 138 1454 138 1454 182 1454 c 2,13,-1
 592 1454 l 1,14,-1
 592 1368 l 1,15,-1
 555 1145 l 1,16,-1
 465 1145 l 1,17,-1
 465 1341 l 1,18,-1
 236 1290 l 1,19,-1
 270 229 l 2,20,21
 270 216 270 216 284.5 204.5 c 128,-1,22
 299 193 299 193 313 193 c 2,23,-1
 408 193 l 2,24,25
 422 193 422 193 435.5 199.5 c 128,-1,26
 449 206 449 206 449 217 c 2,27,-1
 449 702 l 1,28,-1
 657 682 l 1,29,-1
 657 602 l 1,30,-1
 578 567 l 1,4,-1
EndSplineSet
Validated: 1
Substitution2: "Single Substitution lookup 20 subtable" Gdotaccent
Substitution2: "'aalt' Access All Alternates lookup 0 subtable" Gdotaccent
EndChar

StartChar: h
Encoding: 104 104 194
Width: 681
Flags: MW
HStem: 0 43G<102 254 102 102 489 489 489 580> 1413 41G<102 250 250 250 430 580 580 580>
VStem: 102 152<0 670 0 1454> 430 150<635 635 819 1454 0 1454>
LayerCount: 2
UndoRedoHistory
Layer: 1
Undoes
EndUndoes
Redoes
EndRedoes
EndUndoRedoHistory
Fore
SplineSet
254 670 m 1,0,-1
 254 0 l 1,1,-1
 102 0 l 1,2,-1
 102 1454 l 1,3,-1
 250 1454 l 1,4,-1
 227 809 l 1,5,-1
 430 819 l 1,6,-1
 430 1454 l 1,7,-1
 580 1454 l 1,8,-1
 580 0 l 1,9,-1
 489 0 l 1,10,-1
 430 635 l 1,11,-1
 254 670 l 1,0,-1
EndSplineSet
Validated: 1
Substitution2: "Single Substitution lookup 20 subtable" H
Substitution2: "'aalt' Access All Alternates lookup 0 subtable" H
EndChar

